<?xml version="1.0" encoding="UTF-8" standalone="no"?>
<svg width="360px" height="511px" viewBox="0 0 360 511" version="1.1" xmlns="http://www.w3.org/2000/svg" xmlns:xlink="http://www.w3.org/1999/xlink" xmlns:sketch="http://www.bohemiancoding.com/sketch/ns">
    <!-- Generator: Sketch 3.3.3 (12081) - http://www.bohemiancoding.com/sketch -->
    <title>s2i1</title>
    <desc>Created with Sketch.</desc>
    <defs></defs>
    <g id="Autotrader-&amp;-Barclays" stroke="none" stroke-width="1" fill="none" fill-rule="evenodd" sketch:type="MSPage">
        <g id="s2i1" sketch:type="MSArtboardGroup">
            <rect id="Rectangle-88" fill="#FFFFFF" sketch:type="MSShapeGroup" x="0" y="0" width="360" height="511"></rect>
            <rect id="Rectangle-1-Copy-18" fill="#D8D8D8" sketch:type="MSShapeGroup" x="0" y="0" width="360" height="60"></rect>
            <text id="Payment-type" sketch:type="MSTextLayer" font-family="Helvetica Neue" font-size="20" font-weight="260" fill="#333333">
                <tspan x="17" y="109">Payment type</tspan>
            </text>
            <text id="Minimum" sketch:type="MSTextLayer" font-family="Helvetica Neue" font-size="20" font-weight="260" fill="#333333">
                <tspan x="17" y="218">Minimum</tspan>
            </text>
            <g id="Rectangle-1-Copy-19-+-Rectangle-1-Copy-20-+-Rectangle-1-Copy-21" sketch:type="MSLayerGroup" transform="translate(17.000000, 122.000000)">
                <rect id="Rectangle-1-Copy-19" stroke="#979797" sketch:type="MSShapeGroup" x="0.473731581" y="0" width="122.200202" height="45" rx="5"></rect>
                <rect id="Rectangle-1-Copy-20" stroke="#979797" fill="#D8D8D8" sketch:type="MSShapeGroup" x="203.326067" y="0" width="122.200202" height="45" rx="5"></rect>
                <rect id="Rectangle-1-Copy-21" stroke="#979797" fill="#D8D8D8" sketch:type="MSShapeGroup" x="108.009909" y="0" width="109.980182" height="45"></rect>
                <path d="M28.924,20.032 L30.012,20.032 C29.937333,19.4346637 29.7586681,18.906669 29.476,18.448 C29.1933319,17.989331 28.8413354,17.6026682 28.42,17.288 C27.9986646,16.9733318 27.5293359,16.7360008 27.012,16.576 C26.4946641,16.4159992 25.9640027,16.336 25.42,16.336 C24.5239955,16.336 23.7373367,16.498665 23.06,16.824 C22.3826633,17.149335 21.8200022,17.5866639 21.372,18.136 C20.9239978,18.6853361 20.5880011,19.3173298 20.364,20.032 C20.1399989,20.7466702 20.028,21.4986627 20.028,22.288 C20.028,23.0773373 20.1399989,23.8293298 20.364,24.544 C20.5880011,25.2586702 20.9239978,25.8879973 21.372,26.432 C21.8200022,26.9760027 22.3826633,27.410665 23.06,27.736 C23.7373367,28.061335 24.5239955,28.224 25.42,28.224 C26.0920034,28.224 26.7026639,28.1173344 27.252,27.904 C27.8013361,27.6906656 28.2786646,27.3866686 28.684,26.992 C29.0893354,26.5973314 29.4199987,26.1173362 29.676,25.552 C29.9320013,24.9866638 30.097333,24.3520035 30.172,23.648 L29.084,23.648 C29.0306664,24.1600026 28.908001,24.6373311 28.716,25.08 C28.523999,25.5226689 28.2733349,25.9093317 27.964,26.24 C27.6546651,26.5706683 27.2866688,26.831999 26.86,27.024 C26.4333312,27.216001 25.953336,27.312 25.42,27.312 C24.6626629,27.312 24.0120027,27.1680014 23.468,26.88 C22.9239973,26.5919986 22.4786684,26.210669 22.132,25.736 C21.7853316,25.261331 21.5293342,24.7226697 21.364,24.12 C21.1986658,23.5173303 21.116,22.9066698 21.116,22.288 C21.116,21.6586635 21.1986658,21.0453363 21.364,20.448 C21.5293342,19.8506637 21.7853316,19.314669 22.132,18.84 C22.4786684,18.365331 22.9239973,17.9840014 23.468,17.696 C24.0120027,17.4079986 24.6626629,17.264 25.42,17.264 C25.8360021,17.264 26.2333314,17.3253327 26.612,17.448 C26.9906686,17.5706673 27.3373318,17.7493322 27.652,17.984 C27.9666682,18.2186678 28.2333322,18.5093316 28.452,18.856 C28.6706678,19.2026684 28.8279995,19.5946645 28.924,20.032 L28.924,20.032 Z M31.548,22.272 L32.556,22.272 C32.5773334,21.5999966 32.7906646,21.1120015 33.196,20.808 C33.6013354,20.5039985 34.1239968,20.352 34.764,20.352 C35.0626682,20.352 35.3426654,20.3759998 35.604,20.424 C35.8653346,20.4720002 36.0946657,20.5599994 36.292,20.688 C36.4893343,20.8160006 36.6439994,20.9893322 36.756,21.208 C36.8680006,21.4266678 36.924,21.706665 36.924,22.048 C36.924,22.2720011 36.894667,22.4533326 36.836,22.592 C36.777333,22.7306674 36.6946672,22.8399996 36.588,22.92 C36.4813328,23.0000004 36.3480008,23.0559998 36.188,23.088 C36.0279992,23.1200002 35.8413344,23.1466666 35.628,23.168 C35.0839973,23.2320003 34.5480026,23.2986663 34.02,23.368 C33.4919974,23.4373337 33.0173354,23.5573325 32.596,23.728 C32.1746646,23.8986675 31.8360013,24.146665 31.58,24.472 C31.3239987,24.797335 31.196,25.2479971 31.196,25.824 C31.196,26.2400021 31.2679993,26.5999985 31.412,26.904 C31.5560007,27.2080015 31.7533321,27.4586657 32.004,27.656 C32.2546679,27.8533343 32.5479983,27.9973329 32.884,28.088 C33.2200017,28.1786671 33.5799981,28.224 33.964,28.224 C34.3693354,28.224 34.7186652,28.186667 35.012,28.112 C35.3053348,28.037333 35.5666655,27.9306674 35.796,27.792 C36.0253345,27.6533326 36.2333324,27.480001 36.42,27.272 C36.6066676,27.063999 36.7906658,26.826668 36.972,26.56 L37.004,26.56 C37.004,26.7733344 37.0173332,26.9679991 37.044,27.144 C37.0706668,27.3200009 37.1266662,27.4719994 37.212,27.6 C37.2973338,27.7280006 37.4173326,27.8266663 37.572,27.896 C37.7266674,27.9653337 37.9319987,28 38.188,28 C38.3266674,28 38.4413329,27.9946667 38.532,27.984 C38.6226671,27.9733333 38.7266661,27.9573334 38.844,27.936 L38.844,27.088 C38.7479995,27.1306669 38.6413339,27.152 38.524,27.152 C38.1293314,27.152 37.932,26.9493354 37.932,26.544 L37.932,22.16 C37.932,21.6053306 37.8413342,21.1546684 37.66,20.808 C37.4786658,20.4613316 37.2440014,20.192001 36.956,20 C36.6679986,19.807999 36.3426685,19.6773337 35.98,19.608 C35.6173315,19.5386663 35.2546685,19.504 34.892,19.504 C34.4119976,19.504 33.9746686,19.5573328 33.58,19.664 C33.1853314,19.7706672 32.8413348,19.9359989 32.548,20.16 C32.2546652,20.3840011 32.0226675,20.6719982 31.852,21.024 C31.6813325,21.3760018 31.5800002,21.7919976 31.548,22.272 L31.548,22.272 Z M36.924,23.488 L36.924,24.8 C36.924,25.2053354 36.8466674,25.5679984 36.692,25.888 C36.5373326,26.2080016 36.3293346,26.4799989 36.068,26.704 C35.8066654,26.9280011 35.5000018,27.0986661 35.148,27.216 C34.7959982,27.3333339 34.4280019,27.392 34.044,27.392 C33.8093322,27.392 33.5800011,27.354667 33.356,27.28 C33.1319989,27.205333 32.9346675,27.0960007 32.764,26.952 C32.5933325,26.8079993 32.4573338,26.6373343 32.356,26.44 C32.2546662,26.2426657 32.204,26.0160013 32.204,25.76 C32.204,25.3546646 32.3239988,25.0426678 32.564,24.824 C32.8040012,24.6053322 33.1106648,24.4373339 33.484,24.32 C33.8573352,24.2026661 34.2706644,24.114667 34.724,24.056 C35.1773356,23.997333 35.6173312,23.930667 36.044,23.856 C36.1826674,23.8346666 36.3426658,23.7973336 36.524,23.744 C36.7053342,23.6906664 36.8279997,23.6053339 36.892,23.488 L36.924,23.488 Z M44.892,22.16 L45.9,22.16 C45.8786666,21.7119978 45.7880008,21.3226683 45.628,20.992 C45.4679992,20.6613317 45.2520014,20.3840011 44.98,20.16 C44.7079986,19.9359989 44.3933351,19.7706672 44.036,19.664 C43.6786649,19.5573328 43.2920021,19.504 42.876,19.504 C42.5133315,19.504 42.1480018,19.5466662 41.78,19.632 C41.4119982,19.7173338 41.0786682,19.8506658 40.78,20.032 C40.4813318,20.2133342 40.2386676,20.4533318 40.052,20.752 C39.8653324,21.0506682 39.772,21.4079979 39.772,21.824 C39.772,22.1760018 39.8306661,22.4719988 39.948,22.712 C40.0653339,22.9520012 40.227999,23.1546658 40.436,23.32 C40.644001,23.4853342 40.8866653,23.6239994 41.164,23.736 C41.4413347,23.8480006 41.7453317,23.9466662 42.076,24.032 L43.372,24.32 C43.5960011,24.3733336 43.8173322,24.437333 44.036,24.512 C44.2546678,24.586667 44.4493325,24.6799994 44.62,24.792 C44.7906675,24.9040006 44.9266662,25.0426658 45.028,25.208 C45.1293338,25.3733342 45.18,25.5786654 45.18,25.824 C45.18,26.1120014 45.1080007,26.3546657 44.964,26.552 C44.8199993,26.7493343 44.6360011,26.9119994 44.412,27.04 C44.1879989,27.1680006 43.9453346,27.2586664 43.684,27.312 C43.4226654,27.3653336 43.1693346,27.392 42.924,27.392 C42.2519966,27.392 41.6893356,27.2186684 41.236,26.872 C40.7826644,26.5253316 40.5346669,26.0106701 40.492,25.328 L39.484,25.328 C39.5693338,26.3413384 39.9133303,27.077331 40.516,27.536 C41.1186697,27.994669 41.9053285,28.224 42.876,28.224 C43.2600019,28.224 43.6493314,28.1813338 44.044,28.096 C44.4386686,28.0106662 44.7933318,27.8693343 45.108,27.672 C45.4226682,27.4746657 45.6813323,27.2186682 45.884,26.904 C46.0866677,26.5893318 46.188,26.2080022 46.188,25.76 C46.188,25.3973315 46.1186674,25.082668 45.98,24.816 C45.8413326,24.549332 45.6626678,24.3253342 45.444,24.144 C45.2253322,23.9626658 44.9746681,23.8160006 44.692,23.704 C44.4093319,23.5919994 44.1240014,23.5146669 43.836,23.472 L42.492,23.168 C42.3213325,23.1253331 42.1346677,23.0693337 41.932,23 C41.7293323,22.9306663 41.5426675,22.8426672 41.372,22.736 C41.2013325,22.6293328 41.0600006,22.4986674 40.948,22.344 C40.8359994,22.1893326 40.78,22.0000011 40.78,21.776 C40.78,21.509332 40.8386661,21.2853342 40.956,21.104 C41.0733339,20.9226658 41.227999,20.7760006 41.42,20.664 C41.612001,20.5519994 41.8226655,20.4720002 42.052,20.424 C42.2813345,20.3759998 42.5079989,20.352 42.732,20.352 C43.0200014,20.352 43.2919987,20.3866663 43.548,20.456 C43.8040013,20.5253337 44.0306657,20.6346659 44.228,20.784 C44.4253343,20.9333341 44.5826661,21.1226655 44.7,21.352 C44.8173339,21.5813345 44.8813333,21.8506651 44.892,22.16 L44.892,22.16 Z M47.628,16.576 L47.628,28 L48.636,28 L48.636,23.184 C48.6466667,22.7786646 48.7133327,22.4026684 48.836,22.056 C48.9586673,21.7093316 49.1293322,21.4106679 49.348,21.16 C49.5666678,20.9093321 49.8333318,20.7120007 50.148,20.568 C50.4626682,20.4239993 50.8226646,20.352 51.228,20.352 C51.6333354,20.352 51.9719986,20.4159994 52.244,20.544 C52.5160014,20.6720006 52.7319992,20.8479989 52.892,21.072 C53.0520008,21.2960011 53.1639997,21.5599985 53.228,21.864 C53.2920003,22.1680015 53.324,22.4959982 53.324,22.848 L53.324,28 L54.332,28 L54.332,22.688 C54.332,22.1973309 54.2840005,21.7546686 54.188,21.36 C54.0919995,20.9653314 53.9266678,20.6320014 53.692,20.36 C53.4573322,20.0879986 53.1453353,19.8773341 52.756,19.728 C52.3666647,19.5786659 51.8840029,19.504 51.308,19.504 C50.7213304,19.504 50.1826691,19.6559985 49.692,19.96 C49.2013309,20.2640015 48.860001,20.6666642 48.668,21.168 L48.636,21.168 L48.636,16.576 L47.628,16.576 Z M64.172,20.352 C64.6520024,20.352 65.0733315,20.4533323 65.436,20.656 C65.7986685,20.8586677 66.0999988,21.1253317 66.34,21.456 C66.5800012,21.7866683 66.7613327,22.1626646 66.884,22.584 C67.0066673,23.0053354 67.068,23.4346645 67.068,23.872 C67.068,24.3093355 67.0066673,24.7386646 66.884,25.16 C66.7613327,25.5813354 66.5800012,25.9573317 66.34,26.288 C66.0999988,26.6186683 65.7986685,26.8853323 65.436,27.088 C65.0733315,27.2906677 64.6520024,27.392 64.172,27.392 C63.6919976,27.392 63.2706685,27.2906677 62.908,27.088 C62.5453315,26.8853323 62.2440012,26.6186683 62.004,26.288 C61.7639988,25.9573317 61.5826673,25.5813354 61.46,25.16 C61.3373327,24.7386646 61.276,24.3093355 61.276,23.872 C61.276,23.4346645 61.3373327,23.0053354 61.46,22.584 C61.5826673,22.1626646 61.7639988,21.7866683 62.004,21.456 C62.2440012,21.1253317 62.5453315,20.8586677 62.908,20.656 C63.2706685,20.4533323 63.6919976,20.352 64.172,20.352 L64.172,20.352 Z M64.172,19.504 C63.5426635,19.504 62.9853358,19.6213322 62.5,19.856 C62.0146642,20.0906678 61.6066683,20.4053314 61.276,20.8 C60.9453317,21.1946686 60.6946675,21.6559974 60.524,22.184 C60.3533325,22.7120026 60.268,23.2746637 60.268,23.872 C60.268,24.4693363 60.3533325,25.0319974 60.524,25.56 C60.6946675,26.0880026 60.9453317,26.5493314 61.276,26.944 C61.6066683,27.3386686 62.0146642,27.6506655 62.5,27.88 C62.9853358,28.1093345 63.5426635,28.224 64.172,28.224 C64.8013365,28.224 65.3586642,28.1093345 65.844,27.88 C66.3293358,27.6506655 66.7373317,27.3386686 67.068,26.944 C67.3986683,26.5493314 67.6493325,26.0880026 67.82,25.56 C67.9906675,25.0319974 68.076,24.4693363 68.076,23.872 C68.076,23.2746637 67.9906675,22.7120026 67.82,22.184 C67.6493325,21.6559974 67.3986683,21.1946686 67.068,20.8 C66.7373317,20.4053314 66.3293358,20.0906678 65.844,19.856 C65.3586642,19.6213322 64.8013365,19.504 64.172,19.504 L64.172,19.504 Z M69.564,19.744 L69.564,28 L70.572,28 L70.572,23.184 C70.5826667,22.7786646 70.6493327,22.4026684 70.772,22.056 C70.8946673,21.7093316 71.0653322,21.4106679 71.284,21.16 C71.5026678,20.9093321 71.7693318,20.7120007 72.084,20.568 C72.3986682,20.4239993 72.7586646,20.352 73.164,20.352 C73.5693354,20.352 73.9079986,20.4159994 74.18,20.544 C74.4520014,20.6720006 74.6679992,20.8479989 74.828,21.072 C74.9880008,21.2960011 75.0999997,21.5599985 75.164,21.864 C75.2280003,22.1680015 75.26,22.4959982 75.26,22.848 L75.26,28 L76.268,28 L76.268,22.688 C76.268,22.1973309 76.2200005,21.7546686 76.124,21.36 C76.0279995,20.9653314 75.8626678,20.6320014 75.628,20.36 C75.3933322,20.0879986 75.0813353,19.8773341 74.692,19.728 C74.3026647,19.5786659 73.8200029,19.504 73.244,19.504 C72.6573304,19.504 72.1186691,19.6559985 71.628,19.96 C71.1373309,20.2640015 70.796001,20.6666642 70.604,21.168 L70.572,21.168 L70.572,19.744 L69.564,19.744 Z M78.188,16.576 L78.188,28 L79.196,28 L79.196,16.576 L78.188,16.576 Z M80.204,19.744 L83.5,27.968 L83.148,28.896 C83.0626662,29.088001 82.982667,29.2639992 82.908,29.424 C82.833333,29.5840008 82.7426672,29.7199994 82.636,29.832 C82.5293328,29.9440006 82.4040007,30.0319997 82.26,30.096 C82.1159993,30.1600003 81.9320011,30.192 81.708,30.192 C81.5906661,30.192 81.4760006,30.1840001 81.364,30.168 C81.2519994,30.1519999 81.1373339,30.1333334 81.02,30.112 L81.02,30.96 C81.1053338,30.9920002 81.2039994,31.0106666 81.316,31.016 C81.4280006,31.0213334 81.5853323,31.0293333 81.788,31.04 C82.1080016,31.04 82.371999,31.010667 82.58,30.952 C82.788001,30.893333 82.9693326,30.797334 83.124,30.664 C83.2786674,30.530666 83.4199994,30.3493345 83.548,30.12 C83.6760006,29.8906655 83.8146659,29.6000018 83.964,29.248 L87.548,19.744 L86.54,19.744 L83.996,26.784 L81.276,19.744 L80.204,19.744 Z" id="Cash-only-Copy" fill="#333333" sketch:type="MSShapeGroup"></path>
            </g>
            <rect id="Rectangle-1-Copy-19" stroke="#979797" fill="#FFFFFF" sketch:type="MSShapeGroup" x="14.4737316" y="231" width="50" height="45" rx="5"></rect>
            <rect id="Rectangle-1-Copy-20" stroke="#979797" fill="#FFFFFF" sketch:type="MSShapeGroup" x="293" y="231" width="50" height="45" rx="5"></rect>
            <rect id="Rectangle-1-Copy-21" stroke="#979797" fill="#FFFFFF" sketch:type="MSShapeGroup" x="58.4737316" y="231" width="241" height="45"></rect>
            <text id="Maximum" sketch:type="MSTextLayer" font-family="Helvetica Neue" font-size="20" font-weight="260" fill="#333333">
                <tspan x="18.2631342" y="309">Maximum</tspan>
            </text>
            <rect id="Rectangle-1-Copy-22" stroke="#979797" fill="#FFFFFF" sketch:type="MSShapeGroup" x="15.7368658" y="322" width="50" height="45" rx="5"></rect>
            <rect id="Rectangle-1-Copy-23" stroke="#979797" fill="#FFFFFF" sketch:type="MSShapeGroup" x="294.263134" y="322" width="50" height="45" rx="5"></rect>
            <rect id="Rectangle-1-Copy-24" stroke="#979797" fill="#FFFFFF" sketch:type="MSShapeGroup" x="59.7368658" y="322" width="241" height="45"></rect>
            <rect id="Rectangle-1-Copy-25" stroke="#979797" sketch:type="MSShapeGroup" x="17" y="427" width="326" height="60" rx="5"></rect>
            <path d="M17.25,28.28 L17.25,23.18 L21.93,23.18 C24.0766774,23.18 25.15,24.0733244 25.15,25.86 C25.15,26.193335 25.083334,26.5066652 24.95,26.8 C24.816666,27.0933348 24.616668,27.3499989 24.35,27.57 C24.083332,27.7900011 23.750002,27.9633327 23.35,28.09 C22.949998,28.2166673 22.4766694,28.28 21.93,28.28 L17.25,28.28 Z M15.89,22.02 L15.89,36.3 L21.93,36.3 C22.7033372,36.3 23.3666639,36.2300007 23.92,36.09 C24.4733361,35.9499993 24.9399981,35.7700011 25.32,35.55 C25.7000019,35.3299989 26.0033322,35.0733348 26.23,34.78 C26.4566678,34.4866652 26.6299994,34.1900015 26.75,33.89 C26.8700006,33.5899985 26.9499998,33.2966681 26.99,33.01 C27.0300002,32.7233319 27.05,32.4666678 27.05,32.24 C27.05,31.306662 26.7766694,30.5233365 26.23,29.89 C25.6833306,29.2566635 24.9500046,28.8800006 24.03,28.76 L24.03,28.72 C24.4033352,28.6399996 24.7399985,28.500001 25.04,28.3 C25.3400015,28.099999 25.5999989,27.8566681 25.82,27.57 C26.0400011,27.2833319 26.2099994,26.9633351 26.33,26.61 C26.4500006,26.2566649 26.51,25.8933352 26.51,25.52 C26.51,24.85333 26.3833346,24.2966689 26.13,23.85 C25.8766654,23.4033311 25.5400021,23.0433347 25.12,22.77 C24.6999979,22.4966653 24.2133361,22.3033339 23.66,22.19 C23.1066639,22.0766661 22.530003,22.02 21.93,22.02 L15.89,22.02 Z M17.25,35.14 L17.25,29.44 L21.93,29.44 C23.1433394,29.44 24.0733301,29.6699977 24.72,30.13 C25.3666699,30.5900023 25.69,31.2799954 25.69,32.2 C25.69,32.7733362 25.590001,33.2499981 25.39,33.63 C25.189999,34.0100019 24.9166684,34.3133322 24.57,34.54 C24.2233316,34.7666678 23.8233356,34.9233329 23.37,35.01 C22.9166644,35.0966671 22.4366692,35.14 21.93,35.14 L17.25,35.14 Z M28.87,29.14 L30.13,29.14 C30.1566668,28.2999958 30.4233308,27.6900019 30.93,27.31 C31.4366692,26.9299981 32.089996,26.74 32.89,26.74 C33.2633352,26.74 33.6133317,26.7699997 33.94,26.83 C34.2666683,26.8900003 34.5533321,26.9999992 34.8,27.16 C35.0466679,27.3200008 35.2399993,27.5366653 35.38,27.81 C35.5200007,28.0833347 35.59,28.4333312 35.59,28.86 C35.59,29.1400014 35.5533337,29.3666658 35.48,29.54 C35.4066663,29.7133342 35.303334,29.8499995 35.17,29.95 C35.036666,30.0500005 34.870001,30.1199998 34.67,30.16 C34.469999,30.2000002 34.236668,30.2333332 33.97,30.26 C33.2899966,30.3400004 32.6200033,30.4233329 31.96,30.51 C31.2999967,30.5966671 30.7066693,30.7466656 30.18,30.96 C29.6533307,31.1733344 29.2300016,31.4833313 28.91,31.89 C28.5899984,32.2966687 28.43,32.8599964 28.43,33.58 C28.43,34.1000026 28.5199991,34.5499981 28.7,34.93 C28.8800009,35.3100019 29.1266651,35.6233321 29.44,35.87 C29.7533349,36.1166679 30.1199979,36.2966661 30.54,36.41 C30.9600021,36.5233339 31.4099976,36.58 31.89,36.58 C32.3966692,36.58 32.8333315,36.5333338 33.2,36.44 C33.5666685,36.3466662 33.8933319,36.2133342 34.18,36.04 C34.4666681,35.8666658 34.7266655,35.6500013 34.96,35.39 C35.1933345,35.1299987 35.4233322,34.833335 35.65,34.5 L35.69,34.5 C35.69,34.766668 35.7066665,35.0099989 35.74,35.23 C35.7733335,35.4500011 35.8433328,35.6399992 35.95,35.8 C36.0566672,35.9600008 36.2066657,36.0833329 36.4,36.17 C36.5933343,36.2566671 36.8499984,36.3 37.17,36.3 C37.3433342,36.3 37.4866661,36.2933334 37.6,36.28 C37.7133339,36.2666666 37.8433326,36.2466668 37.99,36.22 L37.99,35.16 C37.8699994,35.2133336 37.7366674,35.24 37.59,35.24 C37.0966642,35.24 36.85,34.9866692 36.85,34.48 L36.85,29 C36.85,28.3066632 36.7366678,27.7433355 36.51,27.31 C36.2833322,26.8766645 35.9900018,26.5400012 35.63,26.3 C35.2699982,26.0599988 34.8633356,25.8966671 34.41,25.81 C33.9566644,25.7233329 33.5033356,25.68 33.05,25.68 C32.449997,25.68 31.9033358,25.746666 31.41,25.88 C30.9166642,26.013334 30.4866685,26.2199986 30.12,26.5 C29.7533315,26.7800014 29.4633344,27.1399978 29.25,27.58 C29.0366656,28.0200022 28.9100002,28.539997 28.87,29.14 L28.87,29.14 Z M35.59,30.66 L35.59,32.3 C35.59,32.8066692 35.4933343,33.259998 35.3,33.66 C35.1066657,34.060002 34.8466683,34.3999986 34.52,34.68 C34.1933317,34.9600014 33.8100022,35.1733326 33.37,35.32 C32.9299978,35.4666674 32.4700024,35.54 31.99,35.54 C31.6966652,35.54 31.4100014,35.4933338 31.13,35.4 C30.8499986,35.3066662 30.6033344,35.1700009 30.39,34.99 C30.1766656,34.8099991 30.0066673,34.5966679 29.88,34.35 C29.7533327,34.1033321 29.69,33.8200016 29.69,33.5 C29.69,32.9933308 29.8399985,32.6033347 30.14,32.33 C30.4400015,32.0566653 30.823331,31.8466674 31.29,31.7 C31.756669,31.5533326 32.2733305,31.4433337 32.84,31.37 C33.4066695,31.2966663 33.956664,31.2133338 34.49,31.12 C34.6633342,31.0933332 34.8633322,31.046667 35.09,30.98 C35.3166678,30.913333 35.4699996,30.8066674 35.55,30.66 L35.59,30.66 Z M46.65,29.22 L47.91,29.22 C47.7633326,28.0333274 47.3066705,27.1466696 46.54,26.56 C45.7733295,25.9733304 44.8366722,25.68 43.73,25.68 C42.9433294,25.68 42.2466697,25.8266652 41.64,26.12 C41.0333303,26.4133348 40.5233354,26.8066642 40.11,27.3 C39.6966646,27.7933358 39.3833344,28.3699967 39.17,29.03 C38.9566656,29.6900033 38.85,30.3933296 38.85,31.14 C38.85,31.8866704 38.9566656,32.5899967 39.17,33.25 C39.3833344,33.9100033 39.6966646,34.4866642 40.11,34.98 C40.5233354,35.4733358 41.0333303,35.8633319 41.64,36.15 C42.2466697,36.4366681 42.9433294,36.58 43.73,36.58 C44.9033392,36.58 45.8633296,36.2300035 46.61,35.53 C47.3566704,34.8299965 47.8166658,33.8533396 47.99,32.6 L46.73,32.6 C46.6899998,33.0266688 46.5833342,33.4199982 46.41,33.78 C46.2366658,34.1400018 46.016668,34.4499987 45.75,34.71 C45.483332,34.9700013 45.1766684,35.1733326 44.83,35.32 C44.4833316,35.4666674 44.1166686,35.54 43.73,35.54 C43.129997,35.54 42.6033356,35.4133346 42.15,35.16 C41.6966644,34.9066654 41.3200015,34.5733354 41.02,34.16 C40.7199985,33.7466646 40.4933341,33.2766693 40.34,32.75 C40.1866659,32.2233307 40.11,31.6866694 40.11,31.14 C40.11,30.5933306 40.1866659,30.0566693 40.34,29.53 C40.4933341,29.0033307 40.7199985,28.5333354 41.02,28.12 C41.3200015,27.7066646 41.6966644,27.3733346 42.15,27.12 C42.6033356,26.8666654 43.129997,26.74 43.73,26.74 C44.5700042,26.74 45.223331,26.9599978 45.69,27.4 C46.156669,27.8400022 46.4766658,28.4466628 46.65,29.22 L46.65,29.22 Z M49.75,22.02 L49.75,36.3 L51.01,36.3 L51.01,32.38 L53.05,30.68 L57.13,36.3 L58.71,36.3 L54.01,29.8 L58.41,25.98 L56.73,25.98 L51.01,30.98 L51.01,22.02 L49.75,22.02 Z" id="Back-Copy" fill="#333333" sketch:type="MSShapeGroup"></path>
            <path d="M124.36,30.264 L124.36,23.256 L129.976,23.256 C131.112006,23.256 132.031996,23.5439971 132.736,24.12 C133.440004,24.6960029 133.792,25.5759941 133.792,26.76 C133.792,27.9440059 133.440004,28.8239971 132.736,29.4 C132.031996,29.9760029 131.112006,30.264 129.976,30.264 L124.36,30.264 Z M122.728,21.864 L122.728,39 L124.36,39 L124.36,31.656 L130.336,31.656 C131.104004,31.656 131.799997,31.5480011 132.424,31.332 C133.048003,31.1159989 133.583998,30.7960021 134.032,30.372 C134.480002,29.9479979 134.823999,29.432003 135.064,28.824 C135.304001,28.215997 135.424,27.5280038 135.424,26.76 C135.424,25.9919962 135.304001,25.304003 135.064,24.696 C134.823999,24.087997 134.480002,23.5720021 134.032,23.148 C133.583998,22.7239979 133.048003,22.4040011 132.424,22.188 C131.799997,21.9719989 131.104004,21.864 130.336,21.864 L122.728,21.864 Z M137.56,26.616 L137.56,39 L139.072,39 L139.072,32.4 C139.072,31.7439967 139.183999,31.1400028 139.408,30.588 C139.632001,30.0359972 139.947998,29.560002 140.356,29.16 C140.764002,28.759998 141.247997,28.4520011 141.808,28.236 C142.368003,28.0199989 142.991997,27.9279998 143.68,27.96 L143.68,26.448 C142.559994,26.3999998 141.596004,26.6479973 140.788,27.192 C139.979996,27.7360027 139.384002,28.511995 139,29.52 L138.952,29.52 L138.952,26.616 L137.56,26.616 Z M145.144,21.864 L145.144,24.288 L146.656,24.288 L146.656,21.864 L145.144,21.864 Z M145.144,26.616 L145.144,39 L146.656,39 L146.656,26.616 L145.144,26.616 Z M158.296,30.504 L159.808,30.504 C159.631999,29.0799929 159.084005,28.0160035 158.164,27.312 C157.243995,26.6079965 156.120007,26.256 154.792,26.256 C153.847995,26.256 153.012004,26.4319982 152.284,26.784 C151.555996,27.1360018 150.944002,27.607997 150.448,28.2 C149.951998,28.792003 149.576001,29.483996 149.32,30.276 C149.063999,31.068004 148.936,31.9119955 148.936,32.808 C148.936,33.7040045 149.063999,34.547996 149.32,35.34 C149.576001,36.132004 149.951998,36.823997 150.448,37.416 C150.944002,38.008003 151.555996,38.4759983 152.284,38.82 C153.012004,39.1640017 153.847995,39.336 154.792,39.336 C156.200007,39.336 157.351996,38.9160042 158.248,38.076 C159.144004,37.2359958 159.695999,36.0640075 159.904,34.56 L158.392,34.56 C158.344,35.0720026 158.216001,35.5439978 158.008,35.976 C157.799999,36.4080022 157.536002,36.7799984 157.216,37.092 C156.895998,37.4040016 156.528002,37.6479991 156.112,37.824 C155.695998,38.0000009 155.256002,38.088 154.792,38.088 C154.071996,38.088 153.440003,37.9360015 152.896,37.632 C152.351997,37.3279985 151.900002,36.9280025 151.54,36.432 C151.179998,35.9359975 150.908001,35.3720032 150.724,34.74 C150.539999,34.1079968 150.448,33.4640033 150.448,32.808 C150.448,32.1519967 150.539999,31.5080032 150.724,30.876 C150.908001,30.2439968 151.179998,29.6800025 151.54,29.184 C151.900002,28.6879975 152.351997,28.2880015 152.896,27.984 C153.440003,27.6799985 154.071996,27.528 154.792,27.528 C155.800005,27.528 156.583997,27.7919974 157.144,28.32 C157.704003,28.8480026 158.087999,29.5759954 158.296,30.504 L158.296,30.504 Z M170.92,31.944 L162.904,31.944 C162.968,31.3839972 163.099999,30.8360027 163.3,30.3 C163.500001,29.7639973 163.767998,29.292002 164.104,28.884 C164.440002,28.475998 164.847998,28.1480012 165.328,27.9 C165.808002,27.6519988 166.359997,27.528 166.984,27.528 C167.592003,27.528 168.135998,27.6519988 168.616,27.9 C169.096002,28.1480012 169.503998,28.475998 169.84,28.884 C170.176002,29.292002 170.435999,29.7599974 170.62,30.288 C170.804001,30.8160026 170.904,31.3679971 170.92,31.944 L170.92,31.944 Z M162.904,33.216 L172.432,33.216 C172.464,32.3519957 172.384001,31.5000042 172.192,30.66 C171.999999,29.8199958 171.684002,29.0760032 171.244,28.428 C170.803998,27.7799968 170.232004,27.256002 169.528,26.856 C168.823996,26.455998 167.976005,26.256 166.984,26.256 C166.007995,26.256 165.164004,26.4439981 164.452,26.82 C163.739996,27.1960019 163.160002,27.6919969 162.712,28.308 C162.263998,28.9240031 161.932001,29.6239961 161.716,30.408 C161.499999,31.1920039 161.392,31.9919959 161.392,32.808 C161.392,33.6880044 161.499999,34.523996 161.716,35.316 C161.932001,36.108004 162.263998,36.803997 162.712,37.404 C163.160002,38.004003 163.739996,38.4759983 164.452,38.82 C165.164004,39.1640017 166.007995,39.336 166.984,39.336 C168.552008,39.336 169.763996,38.9520038 170.62,38.184 C171.476004,37.4159962 172.063998,36.328007 172.384,34.92 L170.872,34.92 C170.631999,35.8800048 170.200003,36.6479971 169.576,37.224 C168.951997,37.8000029 168.088006,38.088 166.984,38.088 C166.263996,38.088 165.648003,37.9360015 165.136,37.632 C164.623997,37.3279985 164.200002,36.9440023 163.864,36.48 C163.527998,36.0159977 163.284001,35.4920029 163.132,34.908 C162.979999,34.3239971 162.904,33.7600027 162.904,33.216 L162.904,33.216 Z M181.144,26.616 L181.144,39 L182.656,39 L182.656,32.4 C182.656,31.7439967 182.767999,31.1400028 182.992,30.588 C183.216001,30.0359972 183.531998,29.560002 183.94,29.16 C184.348002,28.759998 184.831997,28.4520011 185.392,28.236 C185.952003,28.0199989 186.575997,27.9279998 187.264,27.96 L187.264,26.448 C186.143994,26.3999998 185.180004,26.6479973 184.372,27.192 C183.563996,27.7360027 182.968002,28.511995 182.584,29.52 L182.536,29.52 L182.536,26.616 L181.144,26.616 Z M188.56,30.408 L190.072,30.408 C190.104,29.399995 190.423997,28.6680023 191.032,28.212 C191.640003,27.7559977 192.423995,27.528 193.384,27.528 C193.832002,27.528 194.251998,27.5639996 194.644,27.636 C195.036002,27.7080004 195.379999,27.839999 195.676,28.032 C195.972001,28.224001 196.203999,28.4839984 196.372,28.812 C196.540001,29.1400016 196.624,29.5599974 196.624,30.072 C196.624,30.4080017 196.58,30.679999 196.492,30.888 C196.404,31.096001 196.280001,31.2599994 196.12,31.38 C195.959999,31.5000006 195.760001,31.5839998 195.52,31.632 C195.279999,31.6800002 195.000002,31.7199998 194.68,31.752 C193.863996,31.8480005 193.060004,31.9479995 192.268,32.052 C191.475996,32.1560005 190.764003,32.3359987 190.132,32.592 C189.499997,32.8480013 188.992002,33.2199976 188.608,33.708 C188.223998,34.1960024 188.032,34.8719957 188.032,35.736 C188.032,36.3600031 188.139999,36.8999977 188.356,37.356 C188.572001,37.8120023 188.867998,38.1879985 189.244,38.484 C189.620002,38.7800015 190.059997,38.9959993 190.564,39.132 C191.068003,39.2680007 191.607997,39.336 192.184,39.336 C192.792003,39.336 193.315998,39.2800006 193.756,39.168 C194.196002,39.0559994 194.587998,38.896001 194.932,38.688 C195.276002,38.479999 195.587999,38.2200016 195.868,37.908 C196.148001,37.5959984 196.423999,37.240002 196.696,36.84 L196.744,36.84 C196.744,37.1600016 196.764,37.4519987 196.804,37.716 C196.844,37.9800013 196.927999,38.207999 197.056,38.4 C197.184001,38.592001 197.363999,38.7399995 197.596,38.844 C197.828001,38.9480005 198.135998,39 198.52,39 C198.728001,39 198.899999,38.9920001 199.036,38.976 C199.172001,38.9599999 199.327999,38.9360002 199.504,38.904 L199.504,37.632 C199.359999,37.6960003 199.200001,37.728 199.024,37.728 C198.431997,37.728 198.136,37.424003 198.136,36.816 L198.136,30.24 C198.136,29.4079958 198.000001,28.7320026 197.728,28.212 C197.455999,27.6919974 197.104002,27.2880014 196.672,27 C196.239998,26.7119986 195.752003,26.5160005 195.208,26.412 C194.663997,26.3079995 194.120003,26.256 193.576,26.256 C192.855996,26.256 192.200003,26.3359992 191.608,26.496 C191.015997,26.6560008 190.500002,26.9039983 190.06,27.24 C189.619998,27.5760017 189.272001,28.0079974 189.016,28.536 C188.759999,29.0640026 188.608,29.6879964 188.56,30.408 L188.56,30.408 Z M196.624,32.232 L196.624,34.2 C196.624,34.808003 196.508001,35.3519976 196.276,35.832 C196.043999,36.3120024 195.732002,36.7199983 195.34,37.056 C194.947998,37.3920017 194.488003,37.6479991 193.96,37.824 C193.431997,38.0000009 192.880003,38.088 192.304,38.088 C191.951998,38.088 191.608002,38.0320006 191.272,37.92 C190.935998,37.8079994 190.640001,37.6440011 190.384,37.428 C190.127999,37.2119989 189.924001,36.9560015 189.772,36.66 C189.619999,36.3639985 189.544,36.0240019 189.544,35.64 C189.544,35.031997 189.723998,34.5640016 190.084,34.236 C190.444002,33.9079984 190.903997,33.6560009 191.464,33.48 C192.024003,33.3039991 192.643997,33.1720004 193.324,33.084 C194.004003,32.9959996 194.663997,32.8960006 195.304,32.784 C195.512001,32.7519998 195.751999,32.6960004 196.024,32.616 C196.296001,32.5359996 196.48,32.4080009 196.576,32.232 L196.624,32.232 Z M201.136,26.616 L201.136,39 L202.648,39 L202.648,31.776 C202.664,31.167997 202.763999,30.6040026 202.948,30.084 C203.132001,29.5639974 203.387998,29.1160019 203.716,28.74 C204.044002,28.3639981 204.443998,28.0680011 204.916,27.852 C205.388002,27.6359989 205.927997,27.528 206.536,27.528 C207.144003,27.528 207.651998,27.623999 208.06,27.816 C208.468002,28.008001 208.791999,28.2719983 209.032,28.608 C209.272001,28.9440017 209.44,29.3399977 209.536,29.796 C209.632,30.2520023 209.68,30.7439974 209.68,31.272 L209.68,39 L211.192,39 L211.192,31.032 C211.192,30.2959963 211.120001,29.632003 210.976,29.04 C210.831999,28.447997 210.584002,27.948002 210.232,27.54 C209.879998,27.131998 209.412003,26.8160011 208.828,26.592 C208.243997,26.3679989 207.520004,26.256 206.656,26.256 C205.775996,26.256 204.968004,26.4839977 204.232,26.94 C203.495996,27.3960023 202.984001,27.9999962 202.696,28.752 L202.648,28.752 L202.648,26.616 L201.136,26.616 Z M224.512,37.992 L224.512,26.616 L223,26.616 L223,28.752 L222.952,28.752 C222.807999,28.4159983 222.604001,28.0960015 222.34,27.792 C222.075999,27.4879985 221.776002,27.2200012 221.44,26.988 C221.103998,26.7559988 220.732002,26.5760006 220.324,26.448 C219.915998,26.3199994 219.480002,26.256 219.016,26.256 C218.119996,26.256 217.324003,26.4199984 216.628,26.748 C215.931997,27.0760016 215.348002,27.5239972 214.876,28.092 C214.403998,28.6600028 214.044001,29.3239962 213.796,30.084 C213.547999,30.8440038 213.424,31.6479958 213.424,32.496 C213.424,33.3760044 213.527999,34.2039961 213.736,34.98 C213.944001,35.7560039 214.275998,36.4319971 214.732,37.008 C215.188002,37.5840029 215.767996,38.0359984 216.472,38.364 C217.176004,38.6920016 218.023995,38.856 219.016,38.856 C219.928005,38.856 220.723997,38.6240023 221.404,38.16 C222.084003,37.6959977 222.599998,37.0800038 222.952,36.312 L223,36.312 L223,37.992 C223,39.4960075 222.688003,40.647996 222.064,41.448 C221.439997,42.248004 220.424007,42.648 219.016,42.648 C218.599998,42.648 218.192002,42.6040004 217.792,42.516 C217.391998,42.4279996 217.028002,42.288001 216.7,42.096 C216.371998,41.903999 216.092001,41.6520016 215.86,41.34 C215.627999,41.0279984 215.472,40.6400023 215.392,40.176 L213.88,40.176 C213.928,40.8320033 214.107998,41.3959976 214.42,41.868 C214.732002,42.3400024 215.123998,42.7279985 215.596,43.032 C216.068002,43.3360015 216.599997,43.5599993 217.192,43.704 C217.784003,43.8480007 218.391997,43.92 219.016,43.92 C220.024005,43.92 220.875997,43.7840014 221.572,43.512 C222.268003,43.2399986 222.831998,42.8480026 223.264,42.336 C223.696002,41.8239974 224.011999,41.2000037 224.212,40.464 C224.412001,39.7279963 224.512,38.9040046 224.512,37.992 L224.512,37.992 Z M219.016,37.584 C218.311996,37.584 217.704003,37.4440014 217.192,37.164 C216.679997,36.8839986 216.256002,36.5160023 215.92,36.06 C215.583998,35.6039977 215.336001,35.080003 215.176,34.488 C215.015999,33.895997 214.936,33.2880031 214.936,32.664 C214.936,32.0239968 215.011999,31.3960031 215.164,30.78 C215.316001,30.1639969 215.559998,29.6160024 215.896,29.136 C216.232002,28.6559976 216.655997,28.2680015 217.168,27.972 C217.680003,27.6759985 218.295996,27.528 219.016,27.528 C219.736004,27.528 220.347997,27.6799985 220.852,27.984 C221.356003,28.2880015 221.767998,28.6879975 222.088,29.184 C222.408002,29.6800025 222.639999,30.231997 222.784,30.84 C222.928001,31.448003 223,32.055997 223,32.664 C223,33.2880031 222.916001,33.895997 222.748,34.488 C222.579999,35.080003 222.328002,35.6039977 221.992,36.06 C221.655998,36.5160023 221.240002,36.8839986 220.744,37.164 C220.247998,37.4440014 219.672003,37.584 219.016,37.584 L219.016,37.584 Z M236.296,31.944 L228.28,31.944 C228.344,31.3839972 228.475999,30.8360027 228.676,30.3 C228.876001,29.7639973 229.143998,29.292002 229.48,28.884 C229.816002,28.475998 230.223998,28.1480012 230.704,27.9 C231.184002,27.6519988 231.735997,27.528 232.36,27.528 C232.968003,27.528 233.511998,27.6519988 233.992,27.9 C234.472002,28.1480012 234.879998,28.475998 235.216,28.884 C235.552002,29.292002 235.811999,29.7599974 235.996,30.288 C236.180001,30.8160026 236.28,31.3679971 236.296,31.944 L236.296,31.944 Z M228.28,33.216 L237.808,33.216 C237.84,32.3519957 237.760001,31.5000042 237.568,30.66 C237.375999,29.8199958 237.060002,29.0760032 236.62,28.428 C236.179998,27.7799968 235.608004,27.256002 234.904,26.856 C234.199996,26.455998 233.352005,26.256 232.36,26.256 C231.383995,26.256 230.540004,26.4439981 229.828,26.82 C229.115996,27.1960019 228.536002,27.6919969 228.088,28.308 C227.639998,28.9240031 227.308001,29.6239961 227.092,30.408 C226.875999,31.1920039 226.768,31.9919959 226.768,32.808 C226.768,33.6880044 226.875999,34.523996 227.092,35.316 C227.308001,36.108004 227.639998,36.803997 228.088,37.404 C228.536002,38.004003 229.115996,38.4759983 229.828,38.82 C230.540004,39.1640017 231.383995,39.336 232.36,39.336 C233.928008,39.336 235.139996,38.9520038 235.996,38.184 C236.852004,37.4159962 237.439998,36.328007 237.76,34.92 L236.248,34.92 C236.007999,35.8800048 235.576003,36.6479971 234.952,37.224 C234.327997,37.8000029 233.464006,38.088 232.36,38.088 C231.639996,38.088 231.024003,37.9360015 230.512,37.632 C229.999997,37.3279985 229.576002,36.9440023 229.24,36.48 C228.903998,36.0159977 228.660001,35.4920029 228.508,34.908 C228.355999,34.3239971 228.28,33.7600027 228.28,33.216 L228.28,33.216 Z" id="Price-range" fill="#333333" sketch:type="MSShapeGroup"></path>
            <path d="M145.548,142.032 L146.636,142.032 C146.561333,141.434664 146.382668,140.906669 146.1,140.448 C145.817332,139.989331 145.465335,139.602668 145.044,139.288 C144.622665,138.973332 144.153336,138.736001 143.636,138.576 C143.118664,138.415999 142.588003,138.336 142.044,138.336 C141.147996,138.336 140.361337,138.498665 139.684,138.824 C139.006663,139.149335 138.444002,139.586664 137.996,140.136 C137.547998,140.685336 137.212001,141.31733 136.988,142.032 C136.763999,142.74667 136.652,143.498663 136.652,144.288 C136.652,145.077337 136.763999,145.82933 136.988,146.544 C137.212001,147.25867 137.547998,147.887997 137.996,148.432 C138.444002,148.976003 139.006663,149.410665 139.684,149.736 C140.361337,150.061335 141.147996,150.224 142.044,150.224 C142.716003,150.224 143.326664,150.117334 143.876,149.904 C144.425336,149.690666 144.902665,149.386669 145.308,148.992 C145.713335,148.597331 146.043999,148.117336 146.3,147.552 C146.556001,146.986664 146.721333,146.352004 146.796,145.648 L145.708,145.648 C145.654666,146.160003 145.532001,146.637331 145.34,147.08 C145.147999,147.522669 144.897335,147.909332 144.588,148.24 C144.278665,148.570668 143.910669,148.831999 143.484,149.024 C143.057331,149.216001 142.577336,149.312 142.044,149.312 C141.286663,149.312 140.636003,149.168001 140.092,148.88 C139.547997,148.591999 139.102668,148.210669 138.756,147.736 C138.409332,147.261331 138.153334,146.72267 137.988,146.12 C137.822666,145.51733 137.74,144.90667 137.74,144.288 C137.74,143.658664 137.822666,143.045336 137.988,142.448 C138.153334,141.850664 138.409332,141.314669 138.756,140.84 C139.102668,140.365331 139.547997,139.984001 140.092,139.696 C140.636003,139.407999 141.286663,139.264 142.044,139.264 C142.460002,139.264 142.857331,139.325333 143.236,139.448 C143.614669,139.570667 143.961332,139.749332 144.276,139.984 C144.590668,140.218668 144.857332,140.509332 145.076,140.856 C145.294668,141.202668 145.452,141.594664 145.548,142.032 L145.548,142.032 Z M148.172,144.272 L149.18,144.272 C149.201333,143.599997 149.414665,143.112002 149.82,142.808 C150.225335,142.503998 150.747997,142.352 151.388,142.352 C151.686668,142.352 151.966665,142.376 152.228,142.424 C152.489335,142.472 152.718666,142.559999 152.916,142.688 C153.113334,142.816001 153.267999,142.989332 153.38,143.208 C153.492001,143.426668 153.548,143.706665 153.548,144.048 C153.548,144.272001 153.518667,144.453333 153.46,144.592 C153.401333,144.730667 153.318667,144.84 153.212,144.92 C153.105333,145 152.972001,145.056 152.812,145.088 C152.651999,145.12 152.465334,145.146667 152.252,145.168 C151.707997,145.232 151.172003,145.298666 150.644,145.368 C150.115997,145.437334 149.641335,145.557332 149.22,145.728 C148.798665,145.898668 148.460001,146.146665 148.204,146.472 C147.947999,146.797335 147.82,147.247997 147.82,147.824 C147.82,148.240002 147.891999,148.599998 148.036,148.904 C148.180001,149.208002 148.377332,149.458666 148.628,149.656 C148.878668,149.853334 149.171998,149.997333 149.508,150.088 C149.844002,150.178667 150.203998,150.224 150.588,150.224 C150.993335,150.224 151.342665,150.186667 151.636,150.112 C151.929335,150.037333 152.190666,149.930667 152.42,149.792 C152.649334,149.653333 152.857332,149.480001 153.044,149.272 C153.230668,149.063999 153.414666,148.826668 153.596,148.56 L153.628,148.56 C153.628,148.773334 153.641333,148.967999 153.668,149.144 C153.694667,149.320001 153.750666,149.471999 153.836,149.6 C153.921334,149.728001 154.041333,149.826666 154.196,149.896 C154.350667,149.965334 154.555999,150 154.812,150 C154.950667,150 155.065333,149.994667 155.156,149.984 C155.246667,149.973333 155.350666,149.957333 155.468,149.936 L155.468,149.088 C155.372,149.130667 155.265334,149.152 155.148,149.152 C154.753331,149.152 154.556,148.949335 154.556,148.544 L154.556,144.16 C154.556,143.605331 154.465334,143.154668 154.284,142.808 C154.102666,142.461332 153.868001,142.192001 153.58,142 C153.291999,141.807999 152.966668,141.677334 152.604,141.608 C152.241332,141.538666 151.878668,141.504 151.516,141.504 C151.035998,141.504 150.598669,141.557333 150.204,141.664 C149.809331,141.770667 149.465335,141.935999 149.172,142.16 C148.878665,142.384001 148.646668,142.671998 148.476,143.024 C148.305332,143.376002 148.204,143.791998 148.172,144.272 L148.172,144.272 Z M153.548,145.488 L153.548,146.8 C153.548,147.205335 153.470667,147.567998 153.316,147.888 C153.161333,148.208002 152.953335,148.479999 152.692,148.704 C152.430665,148.928001 152.124002,149.098666 151.772,149.216 C151.419998,149.333334 151.052002,149.392 150.668,149.392 C150.433332,149.392 150.204001,149.354667 149.98,149.28 C149.755999,149.205333 149.558668,149.096001 149.388,148.952 C149.217332,148.807999 149.081334,148.637334 148.98,148.44 C148.878666,148.242666 148.828,148.016001 148.828,147.76 C148.828,147.354665 148.947999,147.042668 149.188,146.824 C149.428001,146.605332 149.734665,146.437334 150.108,146.32 C150.481335,146.202666 150.894664,146.114667 151.348,146.056 C151.801336,145.997333 152.241331,145.930667 152.668,145.856 C152.806667,145.834667 152.966666,145.797334 153.148,145.744 C153.329334,145.690666 153.452,145.605334 153.516,145.488 L153.548,145.488 Z M161.516,144.16 L162.524,144.16 C162.502667,143.711998 162.412001,143.322668 162.252,142.992 C162.091999,142.661332 161.876001,142.384001 161.604,142.16 C161.331999,141.935999 161.017335,141.770667 160.66,141.664 C160.302665,141.557333 159.916002,141.504 159.5,141.504 C159.137332,141.504 158.772002,141.546666 158.404,141.632 C158.035998,141.717334 157.702668,141.850666 157.404,142.032 C157.105332,142.213334 156.862668,142.453332 156.676,142.752 C156.489332,143.050668 156.396,143.407998 156.396,143.824 C156.396,144.176002 156.454666,144.471999 156.572,144.712 C156.689334,144.952001 156.851999,145.154666 157.06,145.32 C157.268001,145.485334 157.510665,145.623999 157.788,145.736 C158.065335,145.848001 158.369332,145.946666 158.7,146.032 L159.996,146.32 C160.220001,146.373334 160.441332,146.437333 160.66,146.512 C160.878668,146.586667 161.073332,146.679999 161.244,146.792 C161.414668,146.904001 161.550666,147.042666 161.652,147.208 C161.753334,147.373334 161.804,147.578665 161.804,147.824 C161.804,148.112001 161.732001,148.354666 161.588,148.552 C161.443999,148.749334 161.260001,148.911999 161.036,149.04 C160.811999,149.168001 160.569335,149.258666 160.308,149.312 C160.046665,149.365334 159.793335,149.392 159.548,149.392 C158.875997,149.392 158.313336,149.218668 157.86,148.872 C157.406664,148.525332 157.158667,148.01067 157.116,147.328 L156.108,147.328 C156.193334,148.341338 156.53733,149.077331 157.14,149.536 C157.74267,149.994669 158.529328,150.224 159.5,150.224 C159.884002,150.224 160.273331,150.181334 160.668,150.096 C161.062669,150.010666 161.417332,149.869334 161.732,149.672 C162.046668,149.474666 162.305332,149.218668 162.508,148.904 C162.710668,148.589332 162.812,148.208002 162.812,147.76 C162.812,147.397332 162.742667,147.082668 162.604,146.816 C162.465333,146.549332 162.286668,146.325334 162.068,146.144 C161.849332,145.962666 161.598668,145.816001 161.316,145.704 C161.033332,145.591999 160.748001,145.514667 160.46,145.472 L159.116,145.168 C158.945332,145.125333 158.758668,145.069334 158.556,145 C158.353332,144.930666 158.166668,144.842667 157.996,144.736 C157.825332,144.629333 157.684001,144.498667 157.572,144.344 C157.459999,144.189333 157.404,144.000001 157.404,143.776 C157.404,143.509332 157.462666,143.285334 157.58,143.104 C157.697334,142.922666 157.851999,142.776001 158.044,142.664 C158.236001,142.551999 158.446666,142.472 158.676,142.424 C158.905334,142.376 159.131999,142.352 159.356,142.352 C159.644001,142.352 159.915999,142.386666 160.172,142.456 C160.428001,142.525334 160.654666,142.634666 160.852,142.784 C161.049334,142.933334 161.206666,143.122666 161.324,143.352 C161.441334,143.581334 161.505333,143.850665 161.516,144.16 L161.516,144.16 Z M164.252,138.576 L164.252,150 L165.26,150 L165.26,145.184 C165.270667,144.778665 165.337333,144.402668 165.46,144.056 C165.582667,143.709332 165.753332,143.410668 165.972,143.16 C166.190668,142.909332 166.457332,142.712001 166.772,142.568 C167.086668,142.423999 167.446665,142.352 167.852,142.352 C168.257335,142.352 168.595999,142.415999 168.868,142.544 C169.140001,142.672001 169.355999,142.847999 169.516,143.072 C169.676001,143.296001 169.788,143.559998 169.852,143.864 C169.916,144.168002 169.948,144.495998 169.948,144.848 L169.948,150 L170.956,150 L170.956,144.688 C170.956,144.197331 170.908,143.754669 170.812,143.36 C170.716,142.965331 170.550668,142.632001 170.316,142.36 C170.081332,142.087999 169.769335,141.877334 169.38,141.728 C168.990665,141.578666 168.508003,141.504 167.932,141.504 C167.34533,141.504 166.806669,141.655998 166.316,141.96 C165.825331,142.264002 165.484001,142.666664 165.292,143.168 L165.26,143.168 L165.26,138.576 L164.252,138.576 Z M180.892,139.424 C181.308002,139.424 181.665332,139.549332 181.964,139.8 C182.262668,140.050668 182.412,140.415998 182.412,140.896 C182.412,141.173335 182.358667,141.426666 182.252,141.656 C182.145333,141.885334 182.006668,142.093332 181.836,142.28 C181.665332,142.466668 181.476001,142.634666 181.268,142.784 C181.059999,142.933334 180.854668,143.071999 180.652,143.2 C180.523999,143.050666 180.385334,142.882668 180.236,142.696 C180.086666,142.509332 179.948001,142.317334 179.82,142.12 C179.691999,141.922666 179.585334,141.720001 179.5,141.512 C179.414666,141.303999 179.372,141.098668 179.372,140.896 C179.372,140.415998 179.521332,140.050668 179.82,139.8 C180.118668,139.549332 180.475998,139.424 180.892,139.424 L180.892,139.424 Z M183.788,148.512 L185.004,150 L186.268,150 L184.348,147.68 C184.614668,147.189331 184.793333,146.690669 184.884,146.184 C184.974667,145.677331 185.02,145.264002 185.02,144.944 L184.012,144.944 C184.012,145.381336 183.990667,145.741332 183.948,146.024 C183.905333,146.306668 183.814667,146.586665 183.676,146.864 L181.18,143.856 C181.468001,143.674666 181.745332,143.485334 182.012,143.288 C182.278668,143.090666 182.515999,142.874668 182.724,142.64 C182.932001,142.405332 183.099999,142.144001 183.228,141.856 C183.356001,141.567999 183.42,141.248002 183.42,140.896 C183.42,140.543998 183.353334,140.226668 183.22,139.944 C183.086666,139.661332 182.905334,139.418668 182.676,139.216 C182.446666,139.013332 182.180002,138.856001 181.876,138.744 C181.571998,138.631999 181.244002,138.576 180.892,138.576 C180.539998,138.576 180.212002,138.631999 179.908,138.744 C179.603998,138.856001 179.337334,139.013332 179.108,139.216 C178.878666,139.418668 178.697334,139.661332 178.564,139.944 C178.430666,140.226668 178.364,140.543998 178.364,140.896 C178.364,141.173335 178.409333,141.434665 178.5,141.68 C178.590667,141.925335 178.702666,142.159999 178.836,142.384 C178.969334,142.608001 179.118666,142.823999 179.284,143.032 C179.449334,143.240001 179.611999,143.445332 179.772,143.648 C179.451998,143.818668 179.126668,144.015999 178.796,144.24 C178.465332,144.464001 178.164001,144.714665 177.892,144.992 C177.619999,145.269335 177.398668,145.578665 177.228,145.92 C177.057332,146.261335 176.972,146.634665 176.972,147.04 C176.972,147.562669 177.059999,148.021331 177.236,148.416 C177.412001,148.810669 177.654665,149.141332 177.964,149.408 C178.273335,149.674668 178.638665,149.877333 179.06,150.016 C179.481335,150.154667 179.937331,150.224 180.428,150.224 C181.100003,150.224 181.723997,150.069335 182.3,149.76 C182.876003,149.450665 183.371998,149.034669 183.788,148.512 L183.788,148.512 Z M180.316,144.304 L183.164,147.76 C182.843998,148.218669 182.457336,148.605332 182.004,148.92 C181.550664,149.234668 181.036003,149.392 180.46,149.392 C180.139998,149.392 179.830668,149.338667 179.532,149.232 C179.233332,149.125333 178.969334,148.970668 178.74,148.768 C178.510666,148.565332 178.326667,148.325335 178.188,148.048 C178.049333,147.770665 177.98,147.466668 177.98,147.136 C177.98,146.794665 178.049333,146.482668 178.188,146.2 C178.326667,145.917332 178.507999,145.658668 178.732,145.424 C178.956001,145.189332 179.206665,144.981334 179.484,144.8 C179.761335,144.618666 180.038665,144.453334 180.316,144.304 L180.316,144.304 Z M191.724,138.576 L191.724,150 L199.212,150 L199.212,149.072 L192.812,149.072 L192.812,138.576 L191.724,138.576 Z M203.612,142.352 C204.092002,142.352 204.513332,142.453332 204.876,142.656 C205.238668,142.858668 205.539999,143.125332 205.78,143.456 C206.020001,143.786668 206.201333,144.162665 206.324,144.584 C206.446667,145.005335 206.508,145.434664 206.508,145.872 C206.508,146.309336 206.446667,146.738665 206.324,147.16 C206.201333,147.581335 206.020001,147.957332 205.78,148.288 C205.539999,148.618668 205.238668,148.885332 204.876,149.088 C204.513332,149.290668 204.092002,149.392 203.612,149.392 C203.131998,149.392 202.710668,149.290668 202.348,149.088 C201.985332,148.885332 201.684001,148.618668 201.444,148.288 C201.203999,147.957332 201.022667,147.581335 200.9,147.16 C200.777333,146.738665 200.716,146.309336 200.716,145.872 C200.716,145.434664 200.777333,145.005335 200.9,144.584 C201.022667,144.162665 201.203999,143.786668 201.444,143.456 C201.684001,143.125332 201.985332,142.858668 202.348,142.656 C202.710668,142.453332 203.131998,142.352 203.612,142.352 L203.612,142.352 Z M203.612,141.504 C202.982664,141.504 202.425336,141.621332 201.94,141.856 C201.454664,142.090668 201.046668,142.405331 200.716,142.8 C200.385332,143.194669 200.134668,143.655997 199.964,144.184 C199.793332,144.712003 199.708,145.274664 199.708,145.872 C199.708,146.469336 199.793332,147.031997 199.964,147.56 C200.134668,148.088003 200.385332,148.549331 200.716,148.944 C201.046668,149.338669 201.454664,149.650666 201.94,149.88 C202.425336,150.109334 202.982664,150.224 203.612,150.224 C204.241336,150.224 204.798664,150.109334 205.284,149.88 C205.769336,149.650666 206.177332,149.338669 206.508,148.944 C206.838668,148.549331 207.089332,148.088003 207.26,147.56 C207.430668,147.031997 207.516,146.469336 207.516,145.872 C207.516,145.274664 207.430668,144.712003 207.26,144.184 C207.089332,143.655997 206.838668,143.194669 206.508,142.8 C206.177332,142.405331 205.769336,142.090668 205.284,141.856 C204.798664,141.621332 204.241336,141.504 203.612,141.504 L203.612,141.504 Z M208.924,144.272 L209.932,144.272 C209.953333,143.599997 210.166665,143.112002 210.572,142.808 C210.977335,142.503998 211.499997,142.352 212.14,142.352 C212.438668,142.352 212.718665,142.376 212.98,142.424 C213.241335,142.472 213.470666,142.559999 213.668,142.688 C213.865334,142.816001 214.019999,142.989332 214.132,143.208 C214.244001,143.426668 214.3,143.706665 214.3,144.048 C214.3,144.272001 214.270667,144.453333 214.212,144.592 C214.153333,144.730667 214.070667,144.84 213.964,144.92 C213.857333,145 213.724001,145.056 213.564,145.088 C213.403999,145.12 213.217334,145.146667 213.004,145.168 C212.459997,145.232 211.924003,145.298666 211.396,145.368 C210.867997,145.437334 210.393335,145.557332 209.972,145.728 C209.550665,145.898668 209.212001,146.146665 208.956,146.472 C208.699999,146.797335 208.572,147.247997 208.572,147.824 C208.572,148.240002 208.643999,148.599998 208.788,148.904 C208.932001,149.208002 209.129332,149.458666 209.38,149.656 C209.630668,149.853334 209.923998,149.997333 210.26,150.088 C210.596002,150.178667 210.955998,150.224 211.34,150.224 C211.745335,150.224 212.094665,150.186667 212.388,150.112 C212.681335,150.037333 212.942666,149.930667 213.172,149.792 C213.401334,149.653333 213.609332,149.480001 213.796,149.272 C213.982668,149.063999 214.166666,148.826668 214.348,148.56 L214.38,148.56 C214.38,148.773334 214.393333,148.967999 214.42,149.144 C214.446667,149.320001 214.502666,149.471999 214.588,149.6 C214.673334,149.728001 214.793333,149.826666 214.948,149.896 C215.102667,149.965334 215.307999,150 215.564,150 C215.702667,150 215.817333,149.994667 215.908,149.984 C215.998667,149.973333 216.102666,149.957333 216.22,149.936 L216.22,149.088 C216.124,149.130667 216.017334,149.152 215.9,149.152 C215.505331,149.152 215.308,148.949335 215.308,148.544 L215.308,144.16 C215.308,143.605331 215.217334,143.154668 215.036,142.808 C214.854666,142.461332 214.620001,142.192001 214.332,142 C214.043999,141.807999 213.718668,141.677334 213.356,141.608 C212.993332,141.538666 212.630668,141.504 212.268,141.504 C211.787998,141.504 211.350669,141.557333 210.956,141.664 C210.561331,141.770667 210.217335,141.935999 209.924,142.16 C209.630665,142.384001 209.398668,142.671998 209.228,143.024 C209.057332,143.376002 208.956,143.791998 208.924,144.272 L208.924,144.272 Z M214.3,145.488 L214.3,146.8 C214.3,147.205335 214.222667,147.567998 214.068,147.888 C213.913333,148.208002 213.705335,148.479999 213.444,148.704 C213.182665,148.928001 212.876002,149.098666 212.524,149.216 C212.171998,149.333334 211.804002,149.392 211.42,149.392 C211.185332,149.392 210.956001,149.354667 210.732,149.28 C210.507999,149.205333 210.310668,149.096001 210.14,148.952 C209.969332,148.807999 209.833334,148.637334 209.732,148.44 C209.630666,148.242666 209.58,148.016001 209.58,147.76 C209.58,147.354665 209.699999,147.042668 209.94,146.824 C210.180001,146.605332 210.486665,146.437334 210.86,146.32 C211.233335,146.202666 211.646664,146.114667 212.1,146.056 C212.553336,145.997333 212.993331,145.930667 213.42,145.856 C213.558667,145.834667 213.718666,145.797334 213.9,145.744 C214.081334,145.690666 214.204,145.605334 214.268,145.488 L214.3,145.488 Z M217.308,141.744 L217.308,150 L218.316,150 L218.316,145.184 C218.326667,144.778665 218.393333,144.402668 218.516,144.056 C218.638667,143.709332 218.809332,143.410668 219.028,143.16 C219.246668,142.909332 219.513332,142.712001 219.828,142.568 C220.142668,142.423999 220.502665,142.352 220.908,142.352 C221.313335,142.352 221.651999,142.415999 221.924,142.544 C222.196001,142.672001 222.411999,142.847999 222.572,143.072 C222.732001,143.296001 222.844,143.559998 222.908,143.864 C222.972,144.168002 223.004,144.495998 223.004,144.848 L223.004,150 L224.012,150 L224.012,144.688 C224.012,144.197331 223.964,143.754669 223.868,143.36 C223.772,142.965331 223.606668,142.632001 223.372,142.36 C223.137332,142.087999 222.825335,141.877334 222.436,141.728 C222.046665,141.578666 221.564003,141.504 220.988,141.504 C220.40133,141.504 219.862669,141.655998 219.372,141.96 C218.881331,142.264002 218.540001,142.666664 218.348,143.168 L218.316,143.168 L218.316,141.744 L217.308,141.744 Z" id="Cash-&amp;-Loan" fill="#333333" sketch:type="MSShapeGroup"></path>
            <path d="M256.308,138.576 L256.308,150 L263.796,150 L263.796,149.072 L257.396,149.072 L257.396,138.576 L256.308,138.576 Z M268.196,142.352 C268.676002,142.352 269.097332,142.453332 269.46,142.656 C269.822668,142.858668 270.123999,143.125332 270.364,143.456 C270.604001,143.786668 270.785333,144.162665 270.908,144.584 C271.030667,145.005335 271.092,145.434664 271.092,145.872 C271.092,146.309336 271.030667,146.738665 270.908,147.16 C270.785333,147.581335 270.604001,147.957332 270.364,148.288 C270.123999,148.618668 269.822668,148.885332 269.46,149.088 C269.097332,149.290668 268.676002,149.392 268.196,149.392 C267.715998,149.392 267.294668,149.290668 266.932,149.088 C266.569332,148.885332 266.268001,148.618668 266.028,148.288 C265.787999,147.957332 265.606667,147.581335 265.484,147.16 C265.361333,146.738665 265.3,146.309336 265.3,145.872 C265.3,145.434664 265.361333,145.005335 265.484,144.584 C265.606667,144.162665 265.787999,143.786668 266.028,143.456 C266.268001,143.125332 266.569332,142.858668 266.932,142.656 C267.294668,142.453332 267.715998,142.352 268.196,142.352 L268.196,142.352 Z M268.196,141.504 C267.566664,141.504 267.009336,141.621332 266.524,141.856 C266.038664,142.090668 265.630668,142.405331 265.3,142.8 C264.969332,143.194669 264.718668,143.655997 264.548,144.184 C264.377332,144.712003 264.292,145.274664 264.292,145.872 C264.292,146.469336 264.377332,147.031997 264.548,147.56 C264.718668,148.088003 264.969332,148.549331 265.3,148.944 C265.630668,149.338669 266.038664,149.650666 266.524,149.88 C267.009336,150.109334 267.566664,150.224 268.196,150.224 C268.825336,150.224 269.382664,150.109334 269.868,149.88 C270.353336,149.650666 270.761332,149.338669 271.092,148.944 C271.422668,148.549331 271.673332,148.088003 271.844,147.56 C272.014668,147.031997 272.1,146.469336 272.1,145.872 C272.1,145.274664 272.014668,144.712003 271.844,144.184 C271.673332,143.655997 271.422668,143.194669 271.092,142.8 C270.761332,142.405331 270.353336,142.090668 269.868,141.856 C269.382664,141.621332 268.825336,141.504 268.196,141.504 L268.196,141.504 Z M273.508,144.272 L274.516,144.272 C274.537333,143.599997 274.750665,143.112002 275.156,142.808 C275.561335,142.503998 276.083997,142.352 276.724,142.352 C277.022668,142.352 277.302665,142.376 277.564,142.424 C277.825335,142.472 278.054666,142.559999 278.252,142.688 C278.449334,142.816001 278.603999,142.989332 278.716,143.208 C278.828001,143.426668 278.884,143.706665 278.884,144.048 C278.884,144.272001 278.854667,144.453333 278.796,144.592 C278.737333,144.730667 278.654667,144.84 278.548,144.92 C278.441333,145 278.308001,145.056 278.148,145.088 C277.987999,145.12 277.801334,145.146667 277.588,145.168 C277.043997,145.232 276.508003,145.298666 275.98,145.368 C275.451997,145.437334 274.977335,145.557332 274.556,145.728 C274.134665,145.898668 273.796001,146.146665 273.54,146.472 C273.283999,146.797335 273.156,147.247997 273.156,147.824 C273.156,148.240002 273.227999,148.599998 273.372,148.904 C273.516001,149.208002 273.713332,149.458666 273.964,149.656 C274.214668,149.853334 274.507998,149.997333 274.844,150.088 C275.180002,150.178667 275.539998,150.224 275.924,150.224 C276.329335,150.224 276.678665,150.186667 276.972,150.112 C277.265335,150.037333 277.526666,149.930667 277.756,149.792 C277.985334,149.653333 278.193332,149.480001 278.38,149.272 C278.566668,149.063999 278.750666,148.826668 278.932,148.56 L278.964,148.56 C278.964,148.773334 278.977333,148.967999 279.004,149.144 C279.030667,149.320001 279.086666,149.471999 279.172,149.6 C279.257334,149.728001 279.377333,149.826666 279.532,149.896 C279.686667,149.965334 279.891999,150 280.148,150 C280.286667,150 280.401333,149.994667 280.492,149.984 C280.582667,149.973333 280.686666,149.957333 280.804,149.936 L280.804,149.088 C280.708,149.130667 280.601334,149.152 280.484,149.152 C280.089331,149.152 279.892,148.949335 279.892,148.544 L279.892,144.16 C279.892,143.605331 279.801334,143.154668 279.62,142.808 C279.438666,142.461332 279.204001,142.192001 278.916,142 C278.627999,141.807999 278.302668,141.677334 277.94,141.608 C277.577332,141.538666 277.214668,141.504 276.852,141.504 C276.371998,141.504 275.934669,141.557333 275.54,141.664 C275.145331,141.770667 274.801335,141.935999 274.508,142.16 C274.214665,142.384001 273.982668,142.671998 273.812,143.024 C273.641332,143.376002 273.54,143.791998 273.508,144.272 L273.508,144.272 Z M278.884,145.488 L278.884,146.8 C278.884,147.205335 278.806667,147.567998 278.652,147.888 C278.497333,148.208002 278.289335,148.479999 278.028,148.704 C277.766665,148.928001 277.460002,149.098666 277.108,149.216 C276.755998,149.333334 276.388002,149.392 276.004,149.392 C275.769332,149.392 275.540001,149.354667 275.316,149.28 C275.091999,149.205333 274.894668,149.096001 274.724,148.952 C274.553332,148.807999 274.417334,148.637334 274.316,148.44 C274.214666,148.242666 274.164,148.016001 274.164,147.76 C274.164,147.354665 274.283999,147.042668 274.524,146.824 C274.764001,146.605332 275.070665,146.437334 275.444,146.32 C275.817335,146.202666 276.230664,146.114667 276.684,146.056 C277.137336,145.997333 277.577331,145.930667 278.004,145.856 C278.142667,145.834667 278.302666,145.797334 278.484,145.744 C278.665334,145.690666 278.788,145.605334 278.852,145.488 L278.884,145.488 Z M281.892,141.744 L281.892,150 L282.9,150 L282.9,145.184 C282.910667,144.778665 282.977333,144.402668 283.1,144.056 C283.222667,143.709332 283.393332,143.410668 283.612,143.16 C283.830668,142.909332 284.097332,142.712001 284.412,142.568 C284.726668,142.423999 285.086665,142.352 285.492,142.352 C285.897335,142.352 286.235999,142.415999 286.508,142.544 C286.780001,142.672001 286.995999,142.847999 287.156,143.072 C287.316001,143.296001 287.428,143.559998 287.492,143.864 C287.556,144.168002 287.588,144.495998 287.588,144.848 L287.588,150 L288.596,150 L288.596,144.688 C288.596,144.197331 288.548,143.754669 288.452,143.36 C288.356,142.965331 288.190668,142.632001 287.956,142.36 C287.721332,142.087999 287.409335,141.877334 287.02,141.728 C286.630665,141.578666 286.148003,141.504 285.572,141.504 C284.98533,141.504 284.446669,141.655998 283.956,141.96 C283.465331,142.264002 283.124001,142.666664 282.932,143.168 L282.9,143.168 L282.9,141.744 L281.892,141.744 Z M298.436,142.352 C298.916002,142.352 299.337332,142.453332 299.7,142.656 C300.062668,142.858668 300.363999,143.125332 300.604,143.456 C300.844001,143.786668 301.025333,144.162665 301.148,144.584 C301.270667,145.005335 301.332,145.434664 301.332,145.872 C301.332,146.309336 301.270667,146.738665 301.148,147.16 C301.025333,147.581335 300.844001,147.957332 300.604,148.288 C300.363999,148.618668 300.062668,148.885332 299.7,149.088 C299.337332,149.290668 298.916002,149.392 298.436,149.392 C297.955998,149.392 297.534668,149.290668 297.172,149.088 C296.809332,148.885332 296.508001,148.618668 296.268,148.288 C296.027999,147.957332 295.846667,147.581335 295.724,147.16 C295.601333,146.738665 295.54,146.309336 295.54,145.872 C295.54,145.434664 295.601333,145.005335 295.724,144.584 C295.846667,144.162665 296.027999,143.786668 296.268,143.456 C296.508001,143.125332 296.809332,142.858668 297.172,142.656 C297.534668,142.453332 297.955998,142.352 298.436,142.352 L298.436,142.352 Z M298.436,141.504 C297.806664,141.504 297.249336,141.621332 296.764,141.856 C296.278664,142.090668 295.870668,142.405331 295.54,142.8 C295.209332,143.194669 294.958668,143.655997 294.788,144.184 C294.617332,144.712003 294.532,145.274664 294.532,145.872 C294.532,146.469336 294.617332,147.031997 294.788,147.56 C294.958668,148.088003 295.209332,148.549331 295.54,148.944 C295.870668,149.338669 296.278664,149.650666 296.764,149.88 C297.249336,150.109334 297.806664,150.224 298.436,150.224 C299.065336,150.224 299.622664,150.109334 300.108,149.88 C300.593336,149.650666 301.001332,149.338669 301.332,148.944 C301.662668,148.549331 301.913332,148.088003 302.084,147.56 C302.254668,147.031997 302.34,146.469336 302.34,145.872 C302.34,145.274664 302.254668,144.712003 302.084,144.184 C301.913332,143.655997 301.662668,143.194669 301.332,142.8 C301.001332,142.405331 300.593336,142.090668 300.108,141.856 C299.622664,141.621332 299.065336,141.504 298.436,141.504 L298.436,141.504 Z M303.828,141.744 L303.828,150 L304.836,150 L304.836,145.184 C304.846667,144.778665 304.913333,144.402668 305.036,144.056 C305.158667,143.709332 305.329332,143.410668 305.548,143.16 C305.766668,142.909332 306.033332,142.712001 306.348,142.568 C306.662668,142.423999 307.022665,142.352 307.428,142.352 C307.833335,142.352 308.171999,142.415999 308.444,142.544 C308.716001,142.672001 308.931999,142.847999 309.092,143.072 C309.252001,143.296001 309.364,143.559998 309.428,143.864 C309.492,144.168002 309.524,144.495998 309.524,144.848 L309.524,150 L310.532,150 L310.532,144.688 C310.532,144.197331 310.484,143.754669 310.388,143.36 C310.292,142.965331 310.126668,142.632001 309.892,142.36 C309.657332,142.087999 309.345335,141.877334 308.956,141.728 C308.566665,141.578666 308.084003,141.504 307.508,141.504 C306.92133,141.504 306.382669,141.655998 305.892,141.96 C305.401331,142.264002 305.060001,142.666664 304.868,143.168 L304.836,143.168 L304.836,141.744 L303.828,141.744 Z M312.452,138.576 L312.452,150 L313.46,150 L313.46,138.576 L312.452,138.576 Z M314.468,141.744 L317.764,149.968 L317.412,150.896 C317.326666,151.088001 317.246667,151.263999 317.172,151.424 C317.097333,151.584001 317.006667,151.719999 316.9,151.832 C316.793333,151.944001 316.668001,152.032 316.524,152.096 C316.379999,152.16 316.196001,152.192 315.972,152.192 C315.854666,152.192 315.740001,152.184 315.628,152.168 C315.515999,152.152 315.401334,152.133333 315.284,152.112 L315.284,152.96 C315.369334,152.992 315.467999,153.010667 315.58,153.016 C315.692001,153.021333 315.849332,153.029333 316.052,153.04 C316.372002,153.04 316.635999,153.010667 316.844,152.952 C317.052001,152.893333 317.233333,152.797334 317.388,152.664 C317.542667,152.530666 317.683999,152.349334 317.812,152.12 C317.940001,151.890666 318.078666,151.600002 318.228,151.248 L321.812,141.744 L320.804,141.744 L318.26,148.784 L315.54,141.744 L314.468,141.744 Z" id="Loan-only" fill="#333333" sketch:type="MSShapeGroup"></path>
            <path d="M313,255.214286 L313,253.071429 C313,252.773808 313.104166,252.520834 313.3125,252.3125 C313.520834,252.104166 313.773808,252 314.071429,252 L318.714286,252 L318.714286,247.357143 C318.714286,247.059522 318.818451,246.806549 319.026786,246.598214 C319.23512,246.38988 319.488094,246.285714 319.785714,246.285714 L321.928571,246.285714 C322.226192,246.285714 322.479166,246.38988 322.6875,246.598214 C322.895834,246.806549 323,247.059522 323,247.357143 L323,252 L327.642857,252 C327.940478,252 328.193451,252.104166 328.401786,252.3125 C328.61012,252.520834 328.714286,252.773808 328.714286,253.071429 L328.714286,255.214286 C328.714286,255.511906 328.61012,255.76488 328.401786,255.973214 C328.193451,256.181549 327.940478,256.285714 327.642857,256.285714 L323,256.285714 L323,260.928571 C323,261.226192 322.895834,261.479166 322.6875,261.6875 C322.479166,261.895834 322.226192,262 321.928571,262 L319.785714,262 C319.488094,262 319.23512,261.895834 319.026786,261.6875 C318.818451,261.479166 318.714286,261.226192 318.714286,260.928571 L318.714286,256.285714 L314.071429,256.285714 C313.773808,256.285714 313.520834,256.181549 313.3125,255.973214 C313.104166,255.76488 313,255.511906 313,255.214286 L313,255.214286 Z" id="-copy" fill-opacity="0.571841033" fill="#333333" sketch:type="MSShapeGroup"></path>
            <path d="M32,254.25 L32,252.75 C32,252.541666 32.0729159,252.364584 32.21875,252.21875 C32.3645841,252.072916 32.5416656,252 32.75,252 L42.25,252 C42.4583344,252 42.6354159,252.072916 42.78125,252.21875 C42.9270841,252.364584 43,252.541666 43,252.75 L43,254.25 C43,254.458334 42.9270841,254.635416 42.78125,254.78125 C42.6354159,254.927084 42.4583344,255 42.25,255 L32.75,255 C32.5416656,255 32.3645841,254.927084 32.21875,254.78125 C32.0729159,254.635416 32,254.458334 32,254.25 L32,254.25 Z" id="" fill-opacity="0.571841033" fill="#333333" sketch:type="MSShapeGroup"></path>
            <path d="M33,345.25 L33,343.75 C33,343.541666 33.0729159,343.364584 33.21875,343.21875 C33.3645841,343.072916 33.5416656,343 33.75,343 L43.25,343 C43.4583344,343 43.6354159,343.072916 43.78125,343.21875 C43.9270841,343.364584 44,343.541666 44,343.75 L44,345.25 C44,345.458334 43.9270841,345.635416 43.78125,345.78125 C43.6354159,345.927084 43.4583344,346 43.25,346 L33.75,346 C33.5416656,346 33.3645841,345.927084 33.21875,345.78125 C33.0729159,345.635416 33,345.458334 33,345.25 L33,345.25 Z" id="" fill-opacity="0.571841033" fill="#333333" sketch:type="MSShapeGroup"></path>
            <path d="M314,345.214286 L314,343.071429 C314,342.773808 314.104166,342.520834 314.3125,342.3125 C314.520834,342.104166 314.773808,342 315.071429,342 L319.714286,342 L319.714286,337.357143 C319.714286,337.059522 319.818451,336.806549 320.026786,336.598214 C320.23512,336.38988 320.488094,336.285714 320.785714,336.285714 L322.928571,336.285714 C323.226192,336.285714 323.479166,336.38988 323.6875,336.598214 C323.895834,336.806549 324,337.059522 324,337.357143 L324,342 L328.642857,342 C328.940478,342 329.193451,342.104166 329.401786,342.3125 C329.61012,342.520834 329.714286,342.773808 329.714286,343.071429 L329.714286,345.214286 C329.714286,345.511906 329.61012,345.76488 329.401786,345.973214 C329.193451,346.181549 328.940478,346.285714 328.642857,346.285714 L324,346.285714 L324,350.928571 C324,351.226192 323.895834,351.479166 323.6875,351.6875 C323.479166,351.895834 323.226192,352 322.928571,352 L320.785714,352 C320.488094,352 320.23512,351.895834 320.026786,351.6875 C319.818451,351.479166 319.714286,351.226192 319.714286,350.928571 L319.714286,346.285714 L315.071429,346.285714 C314.773808,346.285714 314.520834,346.181549 314.3125,345.973214 C314.104166,345.76488 314,345.511906 314,345.214286 L314,345.214286 Z" id="" fill-opacity="0.571841033" fill="#333333" sketch:type="MSShapeGroup"></path>
            <path d="M133.42,245.72 L133.42,260 L134.78,260 L134.78,247.92 L134.82,247.92 L143.14,260 L144.66,260 L144.66,245.72 L143.3,245.72 L143.3,257.8 L143.26,257.8 L134.94,245.72 L133.42,245.72 Z M151.64,250.44 C152.240003,250.44 152.766664,250.566665 153.22,250.82 C153.673336,251.073335 154.049999,251.406665 154.35,251.82 C154.650002,252.233335 154.876666,252.703331 155.03,253.23 C155.183334,253.756669 155.26,254.293331 155.26,254.84 C155.26,255.386669 155.183334,255.923331 155.03,256.45 C154.876666,256.976669 154.650002,257.446665 154.35,257.86 C154.049999,258.273335 153.673336,258.606665 153.22,258.86 C152.766664,259.113335 152.240003,259.24 151.64,259.24 C151.039997,259.24 150.513336,259.113335 150.06,258.86 C149.606664,258.606665 149.230002,258.273335 148.93,257.86 C148.629998,257.446665 148.403334,256.976669 148.25,256.45 C148.096666,255.923331 148.02,255.386669 148.02,254.84 C148.02,254.293331 148.096666,253.756669 148.25,253.23 C148.403334,252.703331 148.629998,252.233335 148.93,251.82 C149.230002,251.406665 149.606664,251.073335 150.06,250.82 C150.513336,250.566665 151.039997,250.44 151.64,250.44 L151.64,250.44 Z M151.64,249.38 C150.853329,249.38 150.15667,249.526665 149.55,249.82 C148.94333,250.113335 148.433335,250.506664 148.02,251 C147.606665,251.493336 147.293334,252.069997 147.08,252.73 C146.866666,253.390003 146.76,254.09333 146.76,254.84 C146.76,255.58667 146.866666,256.289997 147.08,256.95 C147.293334,257.610003 147.606665,258.186664 148.02,258.68 C148.433335,259.173336 148.94333,259.563332 149.55,259.85 C150.15667,260.136668 150.853329,260.28 151.64,260.28 C152.426671,260.28 153.12333,260.136668 153.73,259.85 C154.33667,259.563332 154.846665,259.173336 155.26,258.68 C155.673335,258.186664 155.986666,257.610003 156.2,256.95 C156.413334,256.289997 156.52,255.58667 156.52,254.84 C156.52,254.09333 156.413334,253.390003 156.2,252.73 C155.986666,252.069997 155.673335,251.493336 155.26,251 C154.846665,250.506664 154.33667,250.113335 153.73,249.82 C153.12333,249.526665 152.426671,249.38 151.64,249.38 L151.64,249.38 Z M163.96,249.68 L163.96,260 L165.22,260 L165.22,254.24 C165.22,253.693331 165.279999,253.190002 165.4,252.73 C165.520001,252.269998 165.703332,251.870002 165.95,251.53 C166.196668,251.189998 166.516665,250.923334 166.91,250.73 C167.303335,250.536666 167.766664,250.44 168.3,250.44 C168.700002,250.44 169.039999,250.506666 169.32,250.64 C169.600001,250.773334 169.823332,250.956665 169.99,251.19 C170.156668,251.423335 170.276666,251.696665 170.35,252.01 C170.423334,252.323335 170.46,252.653332 170.46,253 L170.46,260 L171.72,260 L171.72,254.16 C171.72,253.679998 171.763333,253.216669 171.85,252.77 C171.936667,252.323331 172.086666,251.926668 172.3,251.58 C172.513334,251.233332 172.799998,250.956668 173.16,250.75 C173.520002,250.543332 173.973331,250.44 174.52,250.44 C175.426671,250.44 176.059998,250.663331 176.42,251.11 C176.780002,251.556669 176.96,252.206662 176.96,253.06 L176.96,260 L178.22,260 L178.22,253 C178.22,250.586655 177.080011,249.38 174.8,249.38 C174.119997,249.38 173.480003,249.546665 172.88,249.88 C172.279997,250.213335 171.826668,250.719997 171.52,251.4 C171.333332,250.719997 170.963336,250.213335 170.41,249.88 C169.856664,249.546665 169.240003,249.38 168.56,249.38 C167.719996,249.38 167.030003,249.559998 166.49,249.92 C165.949997,250.280002 165.513335,250.779997 165.18,251.42 L165.12,251.42 L165.12,249.68 L163.96,249.68 Z M180.64,245.72 L180.64,247.74 L181.9,247.74 L181.9,245.72 L180.64,245.72 Z M180.64,249.68 L180.64,260 L181.9,260 L181.9,249.68 L180.64,249.68 Z M184.3,249.68 L184.3,260 L185.56,260 L185.56,253.98 C185.573333,253.473331 185.656666,253.003335 185.81,252.57 C185.963334,252.136664 186.176665,251.763335 186.45,251.45 C186.723335,251.136665 187.056665,250.890001 187.45,250.71 C187.843335,250.529999 188.293331,250.44 188.8,250.44 C189.306669,250.44 189.729998,250.519999 190.07,250.68 C190.410002,250.840001 190.679999,251.059999 190.88,251.34 C191.080001,251.620001 191.22,251.949998 191.3,252.33 C191.38,252.710002 191.42,253.119998 191.42,253.56 L191.42,260 L192.68,260 L192.68,253.36 C192.68,252.746664 192.620001,252.193336 192.5,251.7 C192.379999,251.206664 192.173335,250.790002 191.88,250.45 C191.586665,250.109998 191.196669,249.846668 190.71,249.66 C190.223331,249.473332 189.620004,249.38 188.9,249.38 C188.166663,249.38 187.493336,249.569998 186.88,249.95 C186.266664,250.330002 185.840001,250.83333 185.6,251.46 L185.56,251.46 L185.56,249.68 L184.3,249.68 Z M195.08,245.72 L195.08,247.74 L196.34,247.74 L196.34,245.72 L195.08,245.72 Z M195.08,249.68 L195.08,260 L196.34,260 L196.34,249.68 L195.08,249.68 Z M198.76,249.68 L198.76,260 L200.02,260 L200.02,254.24 C200.02,253.693331 200.079999,253.190002 200.2,252.73 C200.320001,252.269998 200.503332,251.870002 200.75,251.53 C200.996668,251.189998 201.316665,250.923334 201.71,250.73 C202.103335,250.536666 202.566664,250.44 203.1,250.44 C203.500002,250.44 203.839999,250.506666 204.12,250.64 C204.400001,250.773334 204.623333,250.956665 204.79,251.19 C204.956668,251.423335 205.076666,251.696665 205.15,252.01 C205.223334,252.323335 205.26,252.653332 205.26,253 L205.26,260 L206.52,260 L206.52,254.16 C206.52,253.679998 206.563333,253.216669 206.65,252.77 C206.736667,252.323331 206.886666,251.926668 207.1,251.58 C207.313334,251.233332 207.599998,250.956668 207.96,250.75 C208.320002,250.543332 208.773331,250.44 209.32,250.44 C210.226671,250.44 210.859998,250.663331 211.22,251.11 C211.580002,251.556669 211.76,252.206662 211.76,253.06 L211.76,260 L213.02,260 L213.02,253 C213.02,250.586655 211.880011,249.38 209.6,249.38 C208.919997,249.38 208.280003,249.546665 207.68,249.88 C207.079997,250.213335 206.626668,250.719997 206.32,251.4 C206.133332,250.719997 205.763336,250.213335 205.21,249.88 C204.656664,249.546665 204.040003,249.38 203.36,249.38 C202.519996,249.38 201.830003,249.559998 201.29,249.92 C200.749997,250.280002 200.313335,250.779997 199.98,251.42 L199.92,251.42 L199.92,249.68 L198.76,249.68 Z M223.78,260 L223.78,249.68 L222.52,249.68 L222.52,255.1 C222.52,255.620003 222.460001,256.129998 222.34,256.63 C222.219999,257.130002 222.033335,257.573331 221.78,257.96 C221.526665,258.346669 221.206669,258.656665 220.82,258.89 C220.433331,259.123334 219.966669,259.24 219.42,259.24 C218.419995,259.24 217.716669,259.000002 217.31,258.52 C216.903331,258.039998 216.686667,257.333338 216.66,256.4 L216.66,249.68 L215.4,249.68 L215.4,256.38 C215.4,256.993336 215.466666,257.539998 215.6,258.02 C215.733334,258.500002 215.943332,258.906665 216.23,259.24 C216.516668,259.573335 216.889998,259.829999 217.35,260.01 C217.810002,260.190001 218.366663,260.28 219.02,260.28 C219.793337,260.28 220.496664,260.096669 221.13,259.73 C221.763336,259.363332 222.246665,258.833337 222.58,258.14 L222.62,258.14 L222.62,260 L223.78,260 Z M226.16,249.68 L226.16,260 L227.42,260 L227.42,254.24 C227.42,253.693331 227.479999,253.190002 227.6,252.73 C227.720001,252.269998 227.903332,251.870002 228.15,251.53 C228.396668,251.189998 228.716665,250.923334 229.11,250.73 C229.503335,250.536666 229.966664,250.44 230.5,250.44 C230.900002,250.44 231.239999,250.506666 231.52,250.64 C231.800001,250.773334 232.023332,250.956665 232.19,251.19 C232.356668,251.423335 232.476666,251.696665 232.55,252.01 C232.623334,252.323335 232.66,252.653332 232.66,253 L232.66,260 L233.92,260 L233.92,254.16 C233.92,253.679998 233.963333,253.216669 234.05,252.77 C234.136667,252.323331 234.286666,251.926668 234.5,251.58 C234.713334,251.233332 234.999998,250.956668 235.36,250.75 C235.720002,250.543332 236.173331,250.44 236.72,250.44 C237.626671,250.44 238.259998,250.663331 238.62,251.11 C238.980002,251.556669 239.16,252.206662 239.16,253.06 L239.16,260 L240.42,260 L240.42,253 C240.42,250.586655 239.280011,249.38 237,249.38 C236.319997,249.38 235.680003,249.546665 235.08,249.88 C234.479997,250.213335 234.026668,250.719997 233.72,251.4 C233.533332,250.719997 233.163336,250.213335 232.61,249.88 C232.056664,249.546665 231.440003,249.38 230.76,249.38 C229.919996,249.38 229.230003,249.559998 228.69,249.92 C228.149997,250.280002 227.713335,250.779997 227.38,251.42 L227.32,251.42 L227.32,249.68 L226.16,249.68 Z" id="No-minimum" fill="#333333" sketch:type="MSShapeGroup"></path>
            <path d="M159.92,343.76 L159.92,344.4 L161.54,344.4 C161.700001,344.666668 161.833333,345.006665 161.94,345.42 C162.046667,345.833335 162.1,346.193332 162.1,346.5 C162.1,346.900002 162.040001,347.273332 161.92,347.62 C161.799999,347.966668 161.636668,348.289999 161.43,348.59 C161.223332,348.890002 160.983335,349.176665 160.71,349.45 C160.436665,349.723335 160.153335,349.979999 159.86,350.22 L160.58,351.28 C160.780001,351.159999 160.959999,351.050001 161.12,350.95 C161.280001,350.85 161.439999,350.766667 161.6,350.7 C161.760001,350.633333 161.933332,350.58 162.12,350.54 C162.306668,350.5 162.526665,350.48 162.78,350.48 C163.180002,350.48 163.539998,350.52 163.86,350.6 C164.180002,350.68 164.493332,350.773333 164.8,350.88 C165.106668,350.986667 165.426665,351.08 165.76,351.16 C166.093335,351.24 166.479998,351.28 166.92,351.28 C167.520003,351.28 168.046664,351.176668 168.5,350.97 C168.953336,350.763332 169.399998,350.466669 169.84,350.08 L169.2,349.12 C168.919999,349.426668 168.573335,349.689999 168.16,349.91 C167.746665,350.130001 167.326669,350.24 166.9,350.24 C166.566665,350.24 166.266668,350.196667 166,350.11 C165.733332,350.023333 165.460001,349.926667 165.18,349.82 C164.913332,349.713333 164.616668,349.62 164.29,349.54 C163.963332,349.46 163.580002,349.42 163.14,349.42 C162.793332,349.42 162.456668,349.483333 162.13,349.61 C161.803332,349.736667 161.493335,349.873333 161.2,350.02 L161.16,349.98 C161.440001,349.766666 161.709999,349.526668 161.97,349.26 C162.230001,348.993332 162.463332,348.706668 162.67,348.4 C162.876668,348.093332 163.043333,347.766668 163.17,347.42 C163.296667,347.073332 163.36,346.713335 163.36,346.34 C163.36,346.059999 163.316667,345.726669 163.23,345.34 C163.143333,344.953331 163.026667,344.640001 162.88,344.4 L165.72,344.4 L165.72,343.76 L162.52,343.76 C162.399999,343.466665 162.270001,343.203335 162.13,342.97 C161.989999,342.736666 161.863334,342.503335 161.75,342.27 C161.636666,342.036666 161.54,341.790001 161.46,341.53 C161.38,341.269999 161.34,340.966668 161.34,340.62 C161.34,340.086664 161.433332,339.623335 161.62,339.23 C161.806668,338.836665 162.053332,338.510001 162.36,338.25 C162.666668,337.989999 163.019998,337.796667 163.42,337.67 C163.820002,337.543333 164.226665,337.48 164.64,337.48 C165.760006,337.48 166.603331,337.82333 167.17,338.51 C167.73667,339.19667 168.02,340.079995 168.02,341.16 L169.28,341.16 C169.306667,339.666659 168.913337,338.503338 168.1,337.67 C167.286663,336.836663 166.133341,336.42 164.64,336.42 C164.066664,336.42 163.506669,336.499999 162.96,336.66 C162.413331,336.820001 161.926669,337.069998 161.5,337.41 C161.073331,337.750002 160.730001,338.176664 160.47,338.69 C160.209999,339.203336 160.08,339.819996 160.08,340.54 C160.08,341.140003 160.186666,341.703331 160.4,342.23 C160.613334,342.756669 160.873332,343.266664 161.18,343.76 L159.92,343.76 Z M180.52,340.54 L181.78,340.54 C181.633333,339.299994 181.193337,338.380003 180.46,337.78 C179.726663,337.179997 178.73334,336.88 177.48,336.88 C176.719996,336.88 176.066669,337.013332 175.52,337.28 C174.973331,337.546668 174.516669,337.893331 174.15,338.32 C173.783332,338.746669 173.490001,339.223331 173.27,339.75 C173.049999,340.276669 172.880001,340.796664 172.76,341.31 C172.639999,341.823336 172.563334,342.306664 172.53,342.76 C172.496667,343.213336 172.48,343.579999 172.48,343.86 C172.48,345.23334 172.576666,346.389995 172.77,347.33 C172.963334,348.270005 173.259998,349.03333 173.66,349.62 C174.060002,350.20667 174.566664,350.629999 175.18,350.89 C175.793336,351.150001 176.526662,351.28 177.38,351.28 C178.073337,351.28 178.709997,351.163335 179.29,350.93 C179.870003,350.696666 180.369998,350.370002 180.79,349.95 C181.210002,349.529998 181.536666,349.030003 181.77,348.45 C182.003335,347.869997 182.12,347.240003 182.12,346.56 C182.12,345.879997 182.010001,345.253336 181.79,344.68 C181.569999,344.106664 181.260002,343.613335 180.86,343.2 C180.459998,342.786665 179.97667,342.463335 179.41,342.23 C178.843331,341.996666 178.20667,341.88 177.5,341.88 C176.699996,341.88 175.963337,342.093331 175.29,342.52 C174.616663,342.946669 174.113335,343.506663 173.78,344.2 L173.74,344.2 C173.74,343.559997 173.786666,342.87667 173.88,342.15 C173.973334,341.42333 174.159999,340.74667 174.44,340.12 C174.720001,339.49333 175.113331,338.973335 175.62,338.56 C176.126669,338.146665 176.786663,337.94 177.6,337.94 C178.413337,337.94 179.076664,338.179998 179.59,338.66 C180.103336,339.140002 180.413333,339.766663 180.52,340.54 L180.52,340.54 Z M177.48,342.94 C178.013336,342.94 178.489998,343.036666 178.91,343.23 C179.330002,343.423334 179.683332,343.686665 179.97,344.02 C180.256668,344.353335 180.476666,344.746664 180.63,345.2 C180.783334,345.653336 180.86,346.133331 180.86,346.64 C180.86,347.120002 180.780001,347.579998 180.62,348.02 C180.459999,348.460002 180.230002,348.843332 179.93,349.17 C179.629998,349.496668 179.276669,349.756666 178.87,349.95 C178.463331,350.143334 178.006669,350.24 177.5,350.24 C176.886664,350.24 176.360002,350.146668 175.92,349.96 C175.479998,349.773332 175.116668,349.516668 174.83,349.19 C174.543332,348.863332 174.333334,348.480002 174.2,348.04 C174.066666,347.599998 174,347.133336 174,346.64 C174,346.119997 174.076666,345.636669 174.23,345.19 C174.383334,344.743331 174.609998,344.353335 174.91,344.02 C175.210002,343.686665 175.576664,343.423334 176.01,343.23 C176.443335,343.036666 176.933331,342.94 177.48,342.94 L177.48,342.94 Z M188.36,336.88 C187.346662,336.88 186.520003,337.103331 185.88,337.55 C185.239997,337.996669 184.743335,338.566663 184.39,339.26 C184.036665,339.953337 183.796667,340.726662 183.67,341.58 C183.543333,342.433338 183.48,343.273329 183.48,344.1 C183.48,344.913337 183.543333,345.746662 183.67,346.6 C183.796667,347.453338 184.036665,348.226663 184.39,348.92 C184.743335,349.613337 185.239997,350.179998 185.88,350.62 C186.520003,351.060002 187.346662,351.28 188.36,351.28 C189.386672,351.28 190.216664,351.060002 190.85,350.62 C191.483337,350.179998 191.976665,349.613337 192.33,348.92 C192.683335,348.226663 192.923333,347.453338 193.05,346.6 C193.176667,345.746662 193.24,344.906671 193.24,344.08 C193.24,343.266663 193.176667,342.433338 193.05,341.58 C192.923333,340.726662 192.683335,339.953337 192.33,339.26 C191.976665,338.566663 191.483337,337.996669 190.85,337.55 C190.216664,337.103331 189.386672,336.88 188.36,336.88 L188.36,336.88 Z M188.36,337.94 C189.160004,337.94 189.799998,338.146665 190.28,338.56 C190.760002,338.973335 191.123332,339.486664 191.37,340.1 C191.616668,340.713336 191.78,341.379996 191.86,342.1 C191.94,342.820004 191.98,343.479997 191.98,344.08 C191.98,344.693336 191.94,345.356663 191.86,346.07 C191.78,346.783337 191.616668,347.449997 191.37,348.07 C191.123332,348.690003 190.760002,349.206665 190.28,349.62 C189.799998,350.033335 189.160004,350.24 188.36,350.24 C187.559996,350.24 186.920002,350.033335 186.44,349.62 C185.959998,349.206665 185.596668,348.690003 185.35,348.07 C185.103332,347.449997 184.94,346.783337 184.86,346.07 C184.78,345.356663 184.74,344.693336 184.74,344.08 C184.74,343.479997 184.78,342.820004 184.86,342.1 C184.94,341.379996 185.103332,340.713336 185.35,340.1 C185.596668,339.486664 185.959998,338.973335 186.44,338.56 C186.920002,338.146665 187.559996,337.94 188.36,337.94 L188.36,337.94 Z M199.48,336.88 C198.466662,336.88 197.640003,337.103331 197,337.55 C196.359997,337.996669 195.863335,338.566663 195.51,339.26 C195.156665,339.953337 194.916667,340.726662 194.79,341.58 C194.663333,342.433338 194.6,343.273329 194.6,344.1 C194.6,344.913337 194.663333,345.746662 194.79,346.6 C194.916667,347.453338 195.156665,348.226663 195.51,348.92 C195.863335,349.613337 196.359997,350.179998 197,350.62 C197.640003,351.060002 198.466662,351.28 199.48,351.28 C200.506672,351.28 201.336663,351.060002 201.97,350.62 C202.603336,350.179998 203.096665,349.613337 203.45,348.92 C203.803335,348.226663 204.043333,347.453338 204.17,346.6 C204.296667,345.746662 204.36,344.906671 204.36,344.08 C204.36,343.266663 204.296667,342.433338 204.17,341.58 C204.043333,340.726662 203.803335,339.953337 203.45,339.26 C203.096665,338.566663 202.603336,337.996669 201.97,337.55 C201.336663,337.103331 200.506672,336.88 199.48,336.88 L199.48,336.88 Z M199.48,337.94 C200.280004,337.94 200.919998,338.146665 201.4,338.56 C201.880002,338.973335 202.243332,339.486664 202.49,340.1 C202.736668,340.713336 202.9,341.379996 202.98,342.1 C203.06,342.820004 203.1,343.479997 203.1,344.08 C203.1,344.693336 203.06,345.356663 202.98,346.07 C202.9,346.783337 202.736668,347.449997 202.49,348.07 C202.243332,348.690003 201.880002,349.206665 201.4,349.62 C200.919998,350.033335 200.280004,350.24 199.48,350.24 C198.679996,350.24 198.040002,350.033335 197.56,349.62 C197.079998,349.206665 196.716668,348.690003 196.47,348.07 C196.223332,347.449997 196.06,346.783337 195.98,346.07 C195.9,345.356663 195.86,344.693336 195.86,344.08 C195.86,343.479997 195.9,342.820004 195.98,342.1 C196.06,341.379996 196.223332,340.713336 196.47,340.1 C196.716668,339.486664 197.079998,338.973335 197.56,338.56 C198.040002,338.146665 198.679996,337.94 199.48,337.94 L199.48,337.94 Z" id="-600" fill="#333333" sketch:type="MSShapeGroup"></path>
            <path d="M138.83,457.4 L141.69,450.08 L144.45,457.4 L138.83,457.4 Z M140.99,448.72 L135.25,463 L136.69,463 L138.41,458.56 L144.91,458.56 L146.65,463 L148.11,463 L142.51,448.72 L140.99,448.72 Z M149.17,452.68 L149.17,466.8 L150.43,466.8 L150.43,461.04 L150.47,461.04 C150.603334,461.413335 150.793332,461.739999 151.04,462.02 C151.286668,462.300001 151.569998,462.533332 151.89,462.72 C152.210002,462.906668 152.556665,463.046666 152.93,463.14 C153.303335,463.233334 153.676665,463.28 154.05,463.28 C154.836671,463.28 155.519997,463.136668 156.1,462.85 C156.680003,462.563332 157.163331,462.170003 157.55,461.67 C157.936669,461.169998 158.223332,460.590003 158.41,459.93 C158.596668,459.269997 158.69,458.573337 158.69,457.84 C158.69,457.106663 158.596668,456.410003 158.41,455.75 C158.223332,455.089997 157.936669,454.510002 157.55,454.01 C157.163331,453.509997 156.680003,453.113335 156.1,452.82 C155.519997,452.526665 154.836671,452.38 154.05,452.38 C153.209996,452.38 152.460003,452.576665 151.8,452.97 C151.139997,453.363335 150.663335,453.919996 150.37,454.64 L150.33,454.64 L150.33,452.68 L149.17,452.68 Z M157.43,457.84 C157.43,458.373336 157.366667,458.903331 157.24,459.43 C157.113333,459.956669 156.913335,460.426665 156.64,460.84 C156.366665,461.253335 156.016669,461.589999 155.59,461.85 C155.163331,462.110001 154.650003,462.24 154.05,462.24 C153.38333,462.24 152.820002,462.110001 152.36,461.85 C151.899998,461.589999 151.526668,461.253335 151.24,460.84 C150.953332,460.426665 150.746667,459.956669 150.62,459.43 C150.493333,458.903331 150.43,458.373336 150.43,457.84 C150.43,457.25333 150.486666,456.693336 150.6,456.16 C150.713334,455.626664 150.909999,455.160002 151.19,454.76 C151.470001,454.359998 151.843331,454.040001 152.31,453.8 C152.776669,453.559999 153.356663,453.44 154.05,453.44 C154.650003,453.44 155.163331,453.569999 155.59,453.83 C156.016669,454.090001 156.366665,454.426665 156.64,454.84 C156.913335,455.253335 157.113333,455.723331 157.24,456.25 C157.366667,456.776669 157.43,457.306664 157.43,457.84 L157.43,457.84 Z M160.65,452.68 L160.65,466.8 L161.91,466.8 L161.91,461.04 L161.95,461.04 C162.083334,461.413335 162.273332,461.739999 162.52,462.02 C162.766668,462.300001 163.049998,462.533332 163.37,462.72 C163.690002,462.906668 164.036665,463.046666 164.41,463.14 C164.783335,463.233334 165.156665,463.28 165.53,463.28 C166.316671,463.28 166.999997,463.136668 167.58,462.85 C168.160003,462.563332 168.643331,462.170003 169.03,461.67 C169.416669,461.169998 169.703332,460.590003 169.89,459.93 C170.076668,459.269997 170.17,458.573337 170.17,457.84 C170.17,457.106663 170.076668,456.410003 169.89,455.75 C169.703332,455.089997 169.416669,454.510002 169.03,454.01 C168.643331,453.509997 168.160003,453.113335 167.58,452.82 C166.999997,452.526665 166.316671,452.38 165.53,452.38 C164.689996,452.38 163.940003,452.576665 163.28,452.97 C162.619997,453.363335 162.143335,453.919996 161.85,454.64 L161.81,454.64 L161.81,452.68 L160.65,452.68 Z M168.91,457.84 C168.91,458.373336 168.846667,458.903331 168.72,459.43 C168.593333,459.956669 168.393335,460.426665 168.12,460.84 C167.846665,461.253335 167.496669,461.589999 167.07,461.85 C166.643331,462.110001 166.130003,462.24 165.53,462.24 C164.86333,462.24 164.300002,462.110001 163.84,461.85 C163.379998,461.589999 163.006668,461.253335 162.72,460.84 C162.433332,460.426665 162.226667,459.956669 162.1,459.43 C161.973333,458.903331 161.91,458.373336 161.91,457.84 C161.91,457.25333 161.966666,456.693336 162.08,456.16 C162.193334,455.626664 162.389999,455.160002 162.67,454.76 C162.950001,454.359998 163.323331,454.040001 163.79,453.8 C164.256669,453.559999 164.836663,453.44 165.53,453.44 C166.130003,453.44 166.643331,453.569999 167.07,453.83 C167.496669,454.090001 167.846665,454.426665 168.12,454.84 C168.393335,455.253335 168.593333,455.723331 168.72,456.25 C168.846667,456.776669 168.91,457.306664 168.91,457.84 L168.91,457.84 Z M172.15,448.72 L172.15,463 L173.41,463 L173.41,448.72 L172.15,448.72 Z M174.67,452.68 L178.79,462.96 L178.35,464.12 C178.243333,464.360001 178.143334,464.579999 178.05,464.78 C177.956666,464.980001 177.843334,465.149999 177.71,465.29 C177.576666,465.430001 177.420001,465.54 177.24,465.62 C177.059999,465.7 176.830001,465.74 176.55,465.74 C176.403333,465.74 176.260001,465.73 176.12,465.71 C175.979999,465.69 175.836667,465.666667 175.69,465.64 L175.69,466.7 C175.796667,466.74 175.919999,466.763333 176.06,466.77 C176.200001,466.776667 176.396665,466.786667 176.65,466.8 C177.050002,466.8 177.379999,466.763334 177.64,466.69 C177.900001,466.616666 178.126666,466.496668 178.32,466.33 C178.513334,466.163333 178.689999,465.936668 178.85,465.65 C179.010001,465.363332 179.183332,465.000002 179.37,464.56 L183.85,452.68 L182.59,452.68 L179.41,461.48 L176.01,452.68 L174.67,452.68 Z M195.85,448.72 L195.85,450.74 L197.11,450.74 L197.11,448.72 L195.85,448.72 Z M191.33,453.74 L191.33,463 L192.59,463 L192.59,453.74 L194.63,453.74 L194.63,452.68 L192.59,452.68 L192.59,451.78 C192.59,451.499999 192.596667,451.240001 192.61,451 C192.623333,450.759999 192.673333,450.550001 192.76,450.37 C192.846667,450.189999 192.983332,450.046667 193.17,449.94 C193.356668,449.833333 193.623332,449.78 193.97,449.78 C194.116667,449.78 194.263333,449.79 194.41,449.81 C194.556667,449.83 194.716666,449.853333 194.89,449.88 L194.89,448.8 C194.689999,448.773333 194.510001,448.753333 194.35,448.74 C194.189999,448.726667 194.016668,448.72 193.83,448.72 C193.323331,448.72 192.906668,448.793333 192.58,448.94 C192.253332,449.086667 191.996668,449.293332 191.81,449.56 C191.623332,449.826668 191.496667,450.146665 191.43,450.52 C191.363333,450.893335 191.33,451.299998 191.33,451.74 L191.33,452.68 L189.57,452.68 L189.57,453.74 L191.33,453.74 Z M195.85,452.68 L195.85,463 L197.11,463 L197.11,452.68 L195.85,452.68 Z M199.55,448.72 L199.55,463 L200.81,463 L200.81,448.72 L199.55,448.72 Z M205.23,452.68 L205.23,449.58 L203.97,449.58 L203.97,452.68 L202.17,452.68 L202.17,453.74 L203.97,453.74 L203.97,460.8 C203.956667,461.680004 204.116665,462.283332 204.45,462.61 C204.783335,462.936668 205.369996,463.1 206.21,463.1 C206.396668,463.1 206.583332,463.093333 206.77,463.08 C206.956668,463.066667 207.143332,463.06 207.33,463.06 L207.33,462 C206.969998,462.04 206.610002,462.06 206.25,462.06 C205.796664,462.033333 205.513334,461.903335 205.4,461.67 C205.286666,461.436666 205.23,461.113335 205.23,460.7 L205.23,453.74 L207.33,453.74 L207.33,452.68 L205.23,452.68 Z M216.57,457.12 L209.89,457.12 C209.943334,456.653331 210.053333,456.196669 210.22,455.75 C210.386668,455.303331 210.609999,454.910002 210.89,454.57 C211.170001,454.229998 211.509998,453.956668 211.91,453.75 C212.310002,453.543332 212.769997,453.44 213.29,453.44 C213.796669,453.44 214.249998,453.543332 214.65,453.75 C215.050002,453.956668 215.389999,454.229998 215.67,454.57 C215.950001,454.910002 216.166666,455.299998 216.32,455.74 C216.473334,456.180002 216.556667,456.639998 216.57,457.12 L216.57,457.12 Z M209.89,458.18 L217.83,458.18 C217.856667,457.459996 217.790001,456.750003 217.63,456.05 C217.469999,455.349996 217.206669,454.730003 216.84,454.19 C216.473332,453.649997 215.99667,453.213335 215.41,452.88 C214.82333,452.546665 214.116671,452.38 213.29,452.38 C212.476663,452.38 211.773336,452.536665 211.18,452.85 C210.586664,453.163335 210.103335,453.576664 209.73,454.09 C209.356665,454.603336 209.080001,455.186663 208.9,455.84 C208.719999,456.493337 208.63,457.159997 208.63,457.84 C208.63,458.573337 208.719999,459.269997 208.9,459.93 C209.080001,460.590003 209.356665,461.169998 209.73,461.67 C210.103335,462.170003 210.586664,462.563332 211.18,462.85 C211.773336,463.136668 212.476663,463.28 213.29,463.28 C214.596673,463.28 215.606663,462.960003 216.32,462.32 C217.033337,461.679997 217.523332,460.773339 217.79,459.6 L216.53,459.6 C216.329999,460.400004 215.970003,461.039998 215.45,461.52 C214.929997,462.000002 214.210005,462.24 213.29,462.24 C212.689997,462.24 212.176669,462.113335 211.75,461.86 C211.323331,461.606665 210.970001,461.286669 210.69,460.9 C210.409999,460.513331 210.206667,460.076669 210.08,459.59 C209.953333,459.103331 209.89,458.633336 209.89,458.18 L209.89,458.18 Z M219.53,452.68 L219.53,463 L220.79,463 L220.79,457.5 C220.79,456.953331 220.883332,456.450002 221.07,455.99 C221.256668,455.529998 221.519998,455.133335 221.86,454.8 C222.200002,454.466665 222.603331,454.210001 223.07,454.03 C223.536669,453.849999 224.056664,453.773333 224.63,453.8 L224.63,452.54 C223.696662,452.5 222.893337,452.706664 222.22,453.16 C221.546663,453.613336 221.050002,454.259996 220.73,455.1 L220.69,455.1 L220.69,452.68 L219.53,452.68 Z" id="Apply-filter" fill="#333333" sketch:type="MSShapeGroup"></path>
        </g>
    </g>
</svg>