<?xml version="1.0" encoding="UTF-8" standalone="no"?>
<svg width="1024px" height="768px" viewBox="0 0 1024 768" version="1.1" xmlns="http://www.w3.org/2000/svg" xmlns:xlink="http://www.w3.org/1999/xlink" xmlns:sketch="http://www.bohemiancoding.com/sketch/ns">
    <!-- Generator: Sketch 3.3.3 (12081) - http://www.bohemiancoding.com/sketch -->
    <title>hero</title>
    <desc>Created with Sketch.</desc>
    <defs>
        <filter x="-50%" y="-50%" width="200%" height="200%" filterUnits="objectBoundingBox" id="filter-1">
            <feOffset dx="0" dy="2" in="SourceAlpha" result="shadowOffsetOuter1"></feOffset>
            <feGaussianBlur stdDeviation="2" in="shadowOffsetOuter1" result="shadowBlurOuter1"></feGaussianBlur>
            <feColorMatrix values="0 0 0 0 0   0 0 0 0 0   0 0 0 0 0  0 0 0 0.35 0" in="shadowBlurOuter1" type="matrix" result="shadowMatrixOuter1"></feColorMatrix>
            <feMerge>
                <feMergeNode in="shadowMatrixOuter1"></feMergeNode>
                <feMergeNode in="SourceGraphic"></feMergeNode>
            </feMerge>
        </filter>
    </defs>
    <g id="Income-calculator" stroke="none" stroke-width="1" fill="none" fill-rule="evenodd" sketch:type="MSPage">
        <g id="hero" sketch:type="MSArtboardGroup">
            <rect id="Rectangle-4" fill="#FFFFFF" sketch:type="MSShapeGroup" x="0" y="0" width="1024" height="768"></rect>
            <g id="Rectangle-1-Copy-+-Attend-interview" sketch:type="MSLayerGroup" transform="translate(60.000000, 131.000000)">
                <rect id="Rectangle-1-Copy" fill="#29ABE1" sketch:type="MSShapeGroup" x="0" y="0" width="250" height="200"></rect>
                <path d="M96.0751953,86 L92.9462891,86 L89.4130859,77.140625 L79.6923828,77.140625 L76.0009766,86 L73.1533203,86 L83.6650391,60.7578125 L85.8271484,60.1601562 L96.0751953,86 Z M88.4814453,74.7675781 L84.6318359,65.1171875 L80.6416016,74.7675781 L88.4814453,74.7675781 Z M107.922852,67.7539062 L107.202148,69.9160156 L102.772461,69.9160156 L102.772461,80.5683594 C102.772461,81.9043036 102.895507,82.8124976 103.141602,83.2929688 C103.387697,83.7734399 103.87402,84.0136719 104.600586,84.0136719 C105.385746,84.0136719 106.200191,83.849611 107.043945,83.5214844 L107.729492,85.71875 C106.393548,86.1992212 105.075202,86.4394531 103.774414,86.4394531 C101.184557,86.4394531 99.8896484,84.7812666 99.8896484,81.4648438 L99.8896484,69.9160156 L96.2509766,69.9160156 L97.0419922,67.7539062 L99.8896484,67.7539062 L99.8896484,63.1835938 L102.772461,62.3398438 L102.772461,67.7539062 L107.922852,67.7539062 Z M118.469727,67.7539062 L117.749023,69.9160156 L113.319336,69.9160156 L113.319336,80.5683594 C113.319336,81.9043036 113.442382,82.8124976 113.688477,83.2929688 C113.934572,83.7734399 114.420895,84.0136719 115.147461,84.0136719 C115.932621,84.0136719 116.747066,83.849611 117.59082,83.5214844 L118.276367,85.71875 C116.940423,86.1992212 115.622077,86.4394531 114.321289,86.4394531 C111.731432,86.4394531 110.436523,84.7812666 110.436523,81.4648438 L110.436523,69.9160156 L106.797852,69.9160156 L107.588867,67.7539062 L110.436523,67.7539062 L110.436523,63.1835938 L113.319336,62.3398438 L113.319336,67.7539062 L118.469727,67.7539062 Z M135.520508,77.1757812 L123.426758,77.1757812 C123.426758,79.2851668 123.936518,80.9580016 124.956055,82.1943359 C125.975591,83.4306702 127.375968,84.0488281 129.157227,84.0488281 C130.633796,84.0488281 132.168937,83.5332083 133.762695,82.5019531 L135.02832,84.6640625 C133.188467,85.8476622 131.120129,86.4394531 128.823242,86.4394531 C126.163073,86.4394531 124.077156,85.6074302 122.56543,83.9433594 C121.053703,82.2792886 120.297852,80.0820449 120.297852,77.3515625 C120.297852,74.3515475 121.077141,71.9287202 122.635742,70.0830078 C124.194344,68.2372955 126.233386,67.3144531 128.75293,67.3144531 C130.838878,67.3144531 132.488275,67.9765559 133.701172,69.3007812 C134.914069,70.6250066 135.520508,72.3886609 135.520508,74.5917969 L135.520508,77.1757812 Z M132.637695,74.9785156 L132.637695,73.8710938 C132.637695,72.6757753 132.25684,71.6679729 131.495117,70.8476562 C130.733395,70.0273396 129.772467,69.6171875 128.612305,69.6171875 C127.252923,69.6171875 126.119145,70.1005811 125.210938,71.0673828 C124.30273,72.0341845 123.743165,73.3378824 123.532227,74.9785156 L132.637695,74.9785156 Z M154.750977,86 L151.868164,86 L151.868164,74.4863281 C151.868164,72.7636633 151.595706,71.5449254 151.050781,70.8300781 C150.505857,70.1152308 149.565436,69.7578125 148.229492,69.7578125 C146.963861,69.7578125 145.645515,70.285151 144.274414,71.3398438 C142.903313,72.3945365 142.217773,73.5253846 142.217773,74.7324219 L142.217773,86 L139.334961,86 L139.334961,68.140625 L142.217773,67.3144531 L142.217773,70.3378906 C144.233409,68.3222555 146.418934,67.3144531 148.774414,67.3144531 C150.8838,67.3144531 152.407222,67.8476509 153.344727,68.9140625 C154.282231,69.9804741 154.750977,71.6445199 154.750977,73.90625 L154.750977,86 Z M175.668945,85.5957031 L172.961914,86.4394531 C172.504881,85.712887 172.217774,84.9570352 172.100586,84.171875 C170.471672,85.6836013 168.672861,86.4394531 166.704102,86.4394531 C164.278308,86.4394531 162.333015,85.5927819 160.868164,83.8994141 C159.403313,82.2060462 158.670898,79.9648577 158.670898,77.1757812 C158.670898,74.2343603 159.473625,71.8554778 161.079102,70.0390625 C162.684578,68.2226472 164.629871,67.3144531 166.915039,67.3144531 C168.87208,67.3144531 170.477533,67.8535102 171.731445,68.9316406 L171.731445,59.4394531 L174.614258,58.5957031 L174.614258,81.7109375 C174.614258,83.3867271 174.965817,84.6816361 175.668945,85.5957031 L175.668945,85.5957031 Z M171.731445,80.4980469 L171.731445,71.7089844 C170.465814,70.384759 168.930673,69.7226562 167.125977,69.7226562 C165.485343,69.7226562 164.199223,70.37597 163.267578,71.6826172 C162.335933,72.9892643 161.870117,74.7851448 161.870117,77.0703125 C161.870117,79.2265733 162.341792,80.9169861 163.285156,82.1416016 C164.22852,83.3662171 165.508781,83.9785156 167.125977,83.9785156 C168.239263,83.9785156 169.285151,83.5918007 170.263672,82.8183594 C171.242192,82.044918 171.731445,81.2714882 171.731445,80.4980469 L171.731445,80.4980469 Z M57.6582031,107.302734 C58.1386743,107.302734 58.5517561,107.475584 58.8974609,107.821289 C59.2431658,108.166994 59.4160156,108.580076 59.4160156,109.060547 C59.4160156,109.552737 59.2402361,109.977537 58.8886719,110.334961 C58.5371076,110.692385 58.1269555,110.871094 57.6582031,110.871094 C57.1660132,110.871094 56.7412127,110.692385 56.3837891,110.334961 C56.0263654,109.977537 55.8476562,109.552737 55.8476562,109.060547 C55.8476562,108.580076 56.0263654,108.166994 56.3837891,107.821289 C56.7412127,107.475584 57.1660132,107.302734 57.6582031,107.302734 L57.6582031,107.302734 Z M59.0820312,132 L56.2167969,132 L56.2167969,114.140625 L59.0820312,113.314453 L59.0820312,132 Z M79.7890625,132 L76.90625,132 L76.90625,120.486328 C76.90625,118.763663 76.6337918,117.544925 76.0888672,116.830078 C75.5439426,116.115231 74.6035223,115.757812 73.2675781,115.757812 C72.0019468,115.757812 70.6836006,116.285151 69.3125,117.339844 C67.9413994,118.394537 67.2558594,119.525385 67.2558594,120.732422 L67.2558594,132 L64.3730469,132 L64.3730469,114.140625 L67.2558594,113.314453 L67.2558594,116.337891 C69.2714945,114.322256 71.4570195,113.314453 73.8125,113.314453 C75.9218855,113.314453 77.4453078,113.847651 78.3828125,114.914062 C79.3203172,115.980474 79.7890625,117.64452 79.7890625,119.90625 L79.7890625,132 Z M93.9394531,113.753906 L93.21875,115.916016 L88.7890625,115.916016 L88.7890625,126.568359 C88.7890625,127.904304 88.9121081,128.812498 89.1582031,129.292969 C89.4042981,129.77344 89.8906214,130.013672 90.6171875,130.013672 C91.4023477,130.013672 92.2167927,129.849611 93.0605469,129.521484 L93.7460938,131.71875 C92.4101496,132.199221 91.0918034,132.439453 89.7910156,132.439453 C87.2011589,132.439453 85.90625,130.781267 85.90625,127.464844 L85.90625,115.916016 L82.2675781,115.916016 L83.0585938,113.753906 L85.90625,113.753906 L85.90625,109.183594 L88.7890625,108.339844 L88.7890625,113.753906 L93.9394531,113.753906 Z M110.990234,123.175781 L98.8964844,123.175781 C98.8964844,125.285167 99.4062449,126.958002 100.425781,128.194336 C101.445318,129.43067 102.845694,130.048828 104.626953,130.048828 C106.103523,130.048828 107.638664,129.533208 109.232422,128.501953 L110.498047,130.664062 C108.658194,131.847662 106.589855,132.439453 104.292969,132.439453 C101.632799,132.439453 99.5468826,131.60743 98.0351562,129.943359 C96.5234299,128.279289 95.7675781,126.082045 95.7675781,123.351562 C95.7675781,120.351547 96.5468672,117.92872 98.1054688,116.083008 C99.6640703,114.237295 101.703112,113.314453 104.222656,113.314453 C106.308604,113.314453 107.958002,113.976556 109.170898,115.300781 C110.383795,116.625007 110.990234,118.388661 110.990234,120.591797 L110.990234,123.175781 Z M108.107422,120.978516 L108.107422,119.871094 C108.107422,118.675775 107.726566,117.667973 106.964844,116.847656 C106.203121,116.02734 105.242193,115.617188 104.082031,115.617188 C102.722649,115.617188 101.588872,116.100581 100.680664,117.067383 C99.7724564,118.034185 99.2128917,119.337882 99.0019531,120.978516 L108.107422,120.978516 Z M124.613281,113.490234 L124.033203,116.267578 C123.681639,116.126952 123.189456,116.056641 122.556641,116.056641 C121.443354,116.056641 120.353521,116.627924 119.287109,117.770508 C118.220698,118.913092 117.6875,120.175774 117.6875,121.558594 L117.6875,132 L114.804688,132 L114.804688,114.140625 L117.335938,113.314453 L117.335938,116.8125 C119.046884,114.480457 120.845694,113.314453 122.732422,113.314453 C123.482426,113.314453 124.109372,113.373046 124.613281,113.490234 L124.613281,113.490234 Z M142.138672,113.753906 L134.931641,131.753906 L132.628906,132.439453 L125.035156,113.753906 L128.058594,113.753906 L133.789062,127.816406 L139.431641,113.753906 L142.138672,113.753906 Z M146.427734,107.302734 C146.908206,107.302734 147.321287,107.475584 147.666992,107.821289 C148.012697,108.166994 148.185547,108.580076 148.185547,109.060547 C148.185547,109.552737 148.009767,109.977537 147.658203,110.334961 C147.306639,110.692385 146.896487,110.871094 146.427734,110.871094 C145.935544,110.871094 145.510744,110.692385 145.15332,110.334961 C144.795897,109.977537 144.617188,109.552737 144.617188,109.060547 C144.617188,108.580076 144.795897,108.166994 145.15332,107.821289 C145.510744,107.475584 145.935544,107.302734 146.427734,107.302734 L146.427734,107.302734 Z M147.851562,132 L144.986328,132 L144.986328,114.140625 L147.851562,113.314453 L147.851562,132 Z M167.292969,123.175781 L155.199219,123.175781 C155.199219,125.285167 155.708979,126.958002 156.728516,128.194336 C157.748052,129.43067 159.148429,130.048828 160.929688,130.048828 C162.406257,130.048828 163.941398,129.533208 165.535156,128.501953 L166.800781,130.664062 C164.960928,131.847662 162.89259,132.439453 160.595703,132.439453 C157.935534,132.439453 155.849617,131.60743 154.337891,129.943359 C152.826164,128.279289 152.070312,126.082045 152.070312,123.351562 C152.070312,120.351547 152.849602,117.92872 154.408203,116.083008 C155.966805,114.237295 158.005847,113.314453 160.525391,113.314453 C162.611339,113.314453 164.260736,113.976556 165.473633,115.300781 C166.68653,116.625007 167.292969,118.388661 167.292969,120.591797 L167.292969,123.175781 Z M164.410156,120.978516 L164.410156,119.871094 C164.410156,118.675775 164.029301,117.667973 163.267578,116.847656 C162.505856,116.02734 161.544928,115.617188 160.384766,115.617188 C159.025384,115.617188 157.891606,116.100581 156.983398,117.067383 C156.075191,118.034185 155.515626,119.337882 155.304688,120.978516 L164.410156,120.978516 Z M196.314453,113.753906 L189.265625,131.894531 L187.419922,132.439453 L182.427734,119.255859 L177.417969,131.859375 L175.396484,132.439453 L168.734375,113.753906 L171.617188,113.753906 L176.486328,127.5 L181.513672,114.720703 L183.429688,114.175781 L188.316406,127.359375 L193.607422,113.753906 L196.314453,113.753906 Z" id="Attend-interview" fill="#FFFFFF" sketch:type="MSShapeGroup"></path>
            </g>
            <rect id="Rectangle-1-Copy-2" fill="#29ABE1" sketch:type="MSShapeGroup" x="386.5" y="439.043203" width="250" height="200"></rect>
            <g id="Rectangle-1-Copy-+-Necessary" sketch:type="MSLayerGroup" transform="translate(386.000000, 130.000000)">
                <path d="M0,100.810726 L125,0.810725647 L250,100.810726 L125,200.810726 L0,100.810726 L0,100.810726 Z" id="Rectangle-1-Copy" fill="#29ABE1" sketch:type="MSShapeGroup"></path>
                <path d="M87.203125,77.8125 L85.4804688,78.2929688 L76.328125,64.1015625 L76.328125,78 L74.4882812,78 L74.4882812,61.3476562 L76.5273438,60.7734375 L85.3515625,74.4023438 L85.3515625,61.0546875 L87.203125,61.0546875 L87.203125,77.8125 Z M100.164062,72.1171875 L92.1015625,72.1171875 C92.1015625,73.5234445 92.4414029,74.6386678 93.1210938,75.4628906 C93.8007846,76.2871135 94.7343691,76.6992188 95.921875,76.6992188 C96.9062549,76.6992188 97.9296822,76.3554722 98.9921875,75.6679688 L99.8359375,77.109375 C98.6093689,77.8984414 97.2304764,78.2929688 95.6992188,78.2929688 C93.9257724,78.2929688 92.5351613,77.7382868 91.5273438,76.6289062 C90.5195262,75.5195257 90.015625,74.0546966 90.015625,72.234375 C90.015625,70.234365 90.5351511,68.6191468 91.5742188,67.3886719 C92.6132864,66.158197 93.9726479,65.5429688 95.6523438,65.5429688 C97.0429757,65.5429688 98.1425741,65.9843706 98.9511719,66.8671875 C99.7597697,67.7500044 100.164062,68.9257739 100.164062,70.3945312 L100.164062,72.1171875 Z M98.2421875,70.6523438 L98.2421875,69.9140625 C98.2421875,69.1171835 97.9882838,68.4453152 97.4804688,67.8984375 C96.9726537,67.3515598 96.3320351,67.078125 95.5585938,67.078125 C94.6523392,67.078125 93.8964874,67.4003874 93.2910156,68.0449219 C92.6855438,68.6894563 92.3125007,69.5585883 92.171875,70.6523438 L98.2421875,70.6523438 Z M111.707031,77.109375 C110.496088,77.8984414 109.121101,78.2929688 107.582031,78.2929688 C105.894523,78.2929688 104.541021,77.7617241 103.521484,76.6992188 C102.501948,75.6367134 101.992188,74.1679781 101.992188,72.2929688 C101.992188,70.0742077 102.54101,68.394537 103.638672,67.2539062 C104.736334,66.1132755 106.226553,65.5429688 108.109375,65.5429688 C109.343756,65.5429688 110.503901,65.7929662 111.589844,66.2929688 L110.898438,67.8046875 C109.898433,67.3515602 108.953129,67.125 108.0625,67.125 C106.749993,67.125 105.765628,67.5390584 105.109375,68.3671875 C104.453122,69.1953166 104.125,70.4374917 104.125,72.09375 C104.125,73.5390697 104.437497,74.6679647 105.0625,75.4804688 C105.687503,76.2929728 106.574213,76.6992188 107.722656,76.6992188 C108.761724,76.6992188 109.812495,76.3554722 110.875,75.6679688 L111.707031,77.109375 Z M123.847656,72.1171875 L115.785156,72.1171875 C115.785156,73.5234445 116.124997,74.6386678 116.804688,75.4628906 C117.484378,76.2871135 118.417963,76.6992188 119.605469,76.6992188 C120.589849,76.6992188 121.613276,76.3554722 122.675781,75.6679688 L123.519531,77.109375 C122.292963,77.8984414 120.91407,78.2929688 119.382812,78.2929688 C117.609366,78.2929688 116.218755,77.7382868 115.210938,76.6289062 C114.20312,75.5195257 113.699219,74.0546966 113.699219,72.234375 C113.699219,70.234365 114.218745,68.6191468 115.257812,67.3886719 C116.29688,66.158197 117.656242,65.5429688 119.335938,65.5429688 C120.726569,65.5429688 121.826168,65.9843706 122.634766,66.8671875 C123.443363,67.7500044 123.847656,68.9257739 123.847656,70.3945312 L123.847656,72.1171875 Z M121.925781,70.6523438 L121.925781,69.9140625 C121.925781,69.1171835 121.671878,68.4453152 121.164062,67.8984375 C120.656247,67.3515598 120.015629,67.078125 119.242188,67.078125 C118.335933,67.078125 117.580081,67.4003874 116.974609,68.0449219 C116.369138,68.6894563 115.996094,69.5585883 115.855469,70.6523438 L121.925781,70.6523438 Z M133.1875,67.7578125 C132.218745,67.3203103 131.26563,67.1015625 130.328125,67.1015625 C128.734367,67.1015625 127.9375,67.5976513 127.9375,68.5898438 C127.9375,69.042971 128.148435,69.4296859 128.570312,69.75 C128.99219,70.0703141 129.769526,70.4531228 130.902344,70.8984375 C132.136725,71.3750024 133.013669,71.9199188 133.533203,72.5332031 C134.052737,73.1464874 134.3125,73.9140579 134.3125,74.8359375 C134.3125,75.9843807 133.886723,76.8476534 133.035156,77.4257812 C132.183589,78.0039091 131.066413,78.2929688 129.683594,78.2929688 C128.277337,78.2929688 126.9336,78.0664085 125.652344,77.6132812 L126.25,75.9140625 C127.460944,76.4062525 128.636713,76.6523438 129.777344,76.6523438 C130.50391,76.6523438 131.097654,76.5019546 131.558594,76.2011719 C132.019534,75.9003891 132.25,75.4843777 132.25,74.953125 C132.25,74.0468705 131.515632,73.3007842 130.046875,72.7148438 C128.390617,72.066403 127.287112,71.4648465 126.736328,70.9101562 C126.185544,70.355466 125.910156,69.6406294 125.910156,68.765625 C125.910156,67.7890576 126.326168,67.0078154 127.158203,66.421875 C127.990239,65.8359346 129.097649,65.5429688 130.480469,65.5429688 C131.605474,65.5429688 132.746088,65.7734352 133.902344,66.234375 L133.1875,67.7578125 Z M143.839844,67.7578125 C142.871089,67.3203103 141.917973,67.1015625 140.980469,67.1015625 C139.386711,67.1015625 138.589844,67.5976513 138.589844,68.5898438 C138.589844,69.042971 138.800779,69.4296859 139.222656,69.75 C139.644533,70.0703141 140.421869,70.4531228 141.554688,70.8984375 C142.789069,71.3750024 143.666013,71.9199188 144.185547,72.5332031 C144.705081,73.1464874 144.964844,73.9140579 144.964844,74.8359375 C144.964844,75.9843807 144.539067,76.8476534 143.6875,77.4257812 C142.835933,78.0039091 141.718757,78.2929688 140.335938,78.2929688 C138.92968,78.2929688 137.585944,78.0664085 136.304688,77.6132812 L136.902344,75.9140625 C138.113287,76.4062525 139.289057,76.6523438 140.429688,76.6523438 C141.156254,76.6523438 141.749998,76.5019546 142.210938,76.2011719 C142.671877,75.9003891 142.902344,75.4843777 142.902344,74.953125 C142.902344,74.0468705 142.167976,73.3007842 140.699219,72.7148438 C139.04296,72.066403 137.939456,71.4648465 137.388672,70.9101562 C136.837888,70.355466 136.5625,69.6406294 136.5625,68.765625 C136.5625,67.7890576 136.978511,67.0078154 137.810547,66.421875 C138.642582,65.8359346 139.749993,65.5429688 141.132812,65.5429688 C142.257818,65.5429688 143.398432,65.7734352 144.554688,66.234375 L143.839844,67.7578125 Z M157.128906,77.7890625 L155.40625,78.2929688 C155.093748,77.8164039 154.871094,77.2460971 154.738281,76.5820312 C153.417962,77.722662 152.08985,78.2929688 150.753906,78.2929688 C149.589838,78.2929688 148.669925,77.9843781 147.994141,77.3671875 C147.318356,76.7499969 146.980469,75.937505 146.980469,74.9296875 C146.980469,74.2109339 147.148436,73.5703153 147.484375,73.0078125 C147.820314,72.4453097 148.326168,71.9746113 149.001953,71.5957031 C149.677738,71.216795 150.531245,70.9375009 151.5625,70.7578125 L154.539062,70.21875 L154.539062,69.84375 C154.539062,68.8984328 154.36133,68.2128928 154.005859,67.7871094 C153.650389,67.361326 152.996099,67.1484375 152.042969,67.1484375 C150.871088,67.1484375 149.664069,67.5820269 148.421875,68.4492188 L147.53125,67.03125 C148.125003,66.5859353 148.849605,66.2265639 149.705078,65.953125 C150.560551,65.6796861 151.394527,65.5429688 152.207031,65.5429688 C153.707039,65.5429688 154.791012,65.8867153 155.458984,66.5742188 C156.126956,67.2617222 156.460938,68.3085867 156.460938,69.7148438 L156.460938,75.140625 C156.460938,76.1171924 156.683592,76.9999961 157.128906,77.7890625 L157.128906,77.7890625 Z M154.539062,75.046875 L154.539062,71.6367188 C153.062493,71.9414078 152.126955,72.1367183 151.732422,72.2226562 C151.337889,72.3085942 150.902346,72.4687488 150.425781,72.703125 C149.949216,72.9375012 149.591798,73.2324201 149.353516,73.5878906 C149.115233,73.9433612 148.996094,74.367185 148.996094,74.859375 C148.996094,75.4609405 149.177733,75.9355451 149.541016,76.2832031 C149.904299,76.6308611 150.425778,76.8046875 151.105469,76.8046875 C152.066411,76.8046875 153.210931,76.2187559 154.539062,75.046875 L154.539062,75.046875 Z M166.445312,65.6601562 L166.058594,67.5117188 C165.824218,67.4179683 165.496096,67.3710938 165.074219,67.3710938 C164.332028,67.3710938 163.605472,67.7519493 162.894531,68.5136719 C162.18359,69.2753944 161.828125,70.1171829 161.828125,71.0390625 L161.828125,78 L159.90625,78 L159.90625,66.09375 L161.59375,65.5429688 L161.59375,67.875 C162.734381,66.3203047 163.933587,65.5429688 165.191406,65.5429688 C165.691409,65.5429688 166.109373,65.5820309 166.445312,65.6601562 L166.445312,65.6601562 Z M178.222656,65.8359375 L173.300781,77.5664062 C172.660153,79.0820388 171.902348,80.3359325 171.027344,81.328125 C170.152339,82.3203175 169.253911,82.9726547 168.332031,83.2851562 L167.40625,81.984375 C169.234384,81.2812465 170.687495,79.5703261 171.765625,76.8515625 L166.925781,65.8359375 L168.964844,65.8359375 L172.75,74.4960938 L176.429688,65.8359375 L178.222656,65.8359375 Z M90.7363281,102.117188 L82.6738281,102.117188 C82.6738281,103.523445 83.0136685,104.638668 83.6933594,105.462891 C84.3730503,106.287113 85.3066347,106.699219 86.4941406,106.699219 C87.4785205,106.699219 88.5019478,106.355472 89.5644531,105.667969 L90.4082031,107.109375 C89.1816345,107.898441 87.802742,108.292969 86.2714844,108.292969 C84.498038,108.292969 83.1074269,107.738287 82.0996094,106.628906 C81.0917918,105.519526 80.5878906,104.054697 80.5878906,102.234375 C80.5878906,100.234365 81.1074167,98.6191468 82.1464844,97.3886719 C83.1855521,96.158197 84.5449135,95.5429688 86.2246094,95.5429688 C87.6152413,95.5429688 88.7148397,95.9843706 89.5234375,96.8671875 C90.3320353,97.7500044 90.7363281,98.9257739 90.7363281,100.394531 L90.7363281,102.117188 Z M88.8144531,100.652344 L88.8144531,99.9140625 C88.8144531,99.1171835 88.5605494,98.4453152 88.0527344,97.8984375 C87.5449193,97.3515598 86.9043007,97.078125 86.1308594,97.078125 C85.2246048,97.078125 84.468753,97.4003874 83.8632812,98.0449219 C83.2578095,98.6894563 82.8847663,99.5585883 82.7441406,100.652344 L88.8144531,100.652344 Z M103.052734,95.8359375 L98.2480469,107.835938 L96.7128906,108.292969 L91.6503906,95.8359375 L93.6660156,95.8359375 L97.4863281,105.210938 L101.248047,95.8359375 L103.052734,95.8359375 Z M105.912109,91.5351562 C106.232423,91.5351562 106.507811,91.6503895 106.738281,91.8808594 C106.968751,92.1113293 107.083984,92.3867171 107.083984,92.7070312 C107.083984,93.0351579 106.966798,93.3183582 106.732422,93.5566406 C106.498046,93.7949231 106.224611,93.9140625 105.912109,93.9140625 C105.583983,93.9140625 105.300782,93.7949231 105.0625,93.5566406 C104.824218,93.3183582 104.705078,93.0351579 104.705078,92.7070312 C104.705078,92.3867171 104.824218,92.1113293 105.0625,91.8808594 C105.300782,91.6503895 105.583983,91.5351562 105.912109,91.5351562 L105.912109,91.5351562 Z M106.861328,108 L104.951172,108 L104.951172,96.09375 L106.861328,95.5429688 L106.861328,108 Z M121.005859,107.730469 L119.201172,108.292969 C118.896483,107.808591 118.705079,107.30469 118.626953,106.78125 C117.54101,107.789068 116.341803,108.292969 115.029297,108.292969 C113.412101,108.292969 112.115239,107.728521 111.138672,106.599609 C110.162104,105.470697 109.673828,103.976572 109.673828,102.117188 C109.673828,100.15624 110.208979,98.5703186 111.279297,97.359375 C112.349615,96.1484314 113.646477,95.5429688 115.169922,95.5429688 C116.474616,95.5429688 117.544918,95.9023402 118.380859,96.6210938 L118.380859,90.2929688 L120.302734,89.7304688 L120.302734,105.140625 C120.302734,106.257818 120.537107,107.121091 121.005859,107.730469 L121.005859,107.730469 Z M118.380859,104.332031 L118.380859,98.4726562 C117.537105,97.5898393 116.513678,97.1484375 115.310547,97.1484375 C114.216791,97.1484375 113.359378,97.58398 112.738281,98.4550781 C112.117184,99.3261762 111.806641,100.52343 111.806641,102.046875 C111.806641,103.484382 112.121091,104.611324 112.75,105.427734 C113.378909,106.244145 114.232416,106.652344 115.310547,106.652344 C116.052738,106.652344 116.749997,106.394534 117.402344,105.878906 C118.054691,105.363279 118.380859,104.847659 118.380859,104.332031 L118.380859,104.332031 Z M133.310547,102.117188 L125.248047,102.117188 C125.248047,103.523445 125.587887,104.638668 126.267578,105.462891 C126.947269,106.287113 127.880853,106.699219 129.068359,106.699219 C130.052739,106.699219 131.076167,106.355472 132.138672,105.667969 L132.982422,107.109375 C131.755853,107.898441 130.376961,108.292969 128.845703,108.292969 C127.072257,108.292969 125.681646,107.738287 124.673828,106.628906 C123.666011,105.519526 123.162109,104.054697 123.162109,102.234375 C123.162109,100.234365 123.681635,98.6191468 124.720703,97.3886719 C125.759771,96.158197 127.119132,95.5429688 128.798828,95.5429688 C130.18946,95.5429688 131.289058,95.9843706 132.097656,96.8671875 C132.906254,97.7500044 133.310547,98.9257739 133.310547,100.394531 L133.310547,102.117188 Z M131.388672,100.652344 L131.388672,99.9140625 C131.388672,99.1171835 131.134768,98.4453152 130.626953,97.8984375 C130.119138,97.3515598 129.478519,97.078125 128.705078,97.078125 C127.798824,97.078125 127.042972,97.4003874 126.4375,98.0449219 C125.832028,98.6894563 125.458985,99.5585883 125.318359,100.652344 L131.388672,100.652344 Z M146.130859,108 L144.208984,108 L144.208984,100.324219 C144.208984,99.1757755 144.027346,98.3632836 143.664062,97.8867188 C143.300779,97.4101539 142.673833,97.171875 141.783203,97.171875 C140.939449,97.171875 140.060551,97.523434 139.146484,98.2265625 C138.232417,98.929691 137.775391,99.6835897 137.775391,100.488281 L137.775391,108 L135.853516,108 L135.853516,96.09375 L137.775391,95.5429688 L137.775391,97.5585938 C139.119147,96.214837 140.576164,95.5429688 142.146484,95.5429688 C143.552741,95.5429688 144.568356,95.8984339 145.193359,96.609375 C145.818363,97.3203161 146.130859,98.42968 146.130859,99.9375 L146.130859,108 Z M158.458984,107.109375 C157.248041,107.898441 155.873055,108.292969 154.333984,108.292969 C152.646476,108.292969 151.292974,107.761724 150.273438,106.699219 C149.253901,105.636713 148.744141,104.167978 148.744141,102.292969 C148.744141,100.074208 149.292963,98.394537 150.390625,97.2539062 C151.488287,96.1132755 152.978506,95.5429688 154.861328,95.5429688 C156.095709,95.5429688 157.255854,95.7929663 158.341797,96.2929688 L157.650391,97.8046875 C156.650386,97.3515602 155.705083,97.125 154.814453,97.125 C153.501947,97.125 152.517581,97.5390584 151.861328,98.3671875 C151.205075,99.1953166 150.876953,100.437492 150.876953,102.09375 C150.876953,103.53907 151.18945,104.667965 151.814453,105.480469 C152.439456,106.292973 153.326166,106.699219 154.474609,106.699219 C155.513677,106.699219 156.564448,106.355472 157.626953,105.667969 L158.458984,107.109375 Z M170.599609,102.117188 L162.537109,102.117188 C162.537109,103.523445 162.87695,104.638668 163.556641,105.462891 C164.236332,106.287113 165.169916,106.699219 166.357422,106.699219 C167.341802,106.699219 168.365229,106.355472 169.427734,105.667969 L170.271484,107.109375 C169.044916,107.898441 167.666023,108.292969 166.134766,108.292969 C164.361319,108.292969 162.970708,107.738287 161.962891,106.628906 C160.955073,105.519526 160.451172,104.054697 160.451172,102.234375 C160.451172,100.234365 160.970698,98.6191468 162.009766,97.3886719 C163.048833,96.158197 164.408195,95.5429688 166.087891,95.5429688 C167.478523,95.5429688 168.578121,95.9843706 169.386719,96.8671875 C170.195317,97.7500044 170.599609,98.9257739 170.599609,100.394531 L170.599609,102.117188 Z M168.677734,100.652344 L168.677734,99.9140625 C168.677734,99.1171835 168.423831,98.4453152 167.916016,97.8984375 C167.408201,97.3515598 166.767582,97.078125 165.994141,97.078125 C165.087886,97.078125 164.332034,97.4003874 163.726562,98.0449219 C163.121091,98.6894563 162.748048,99.5585883 162.607422,100.652344 L168.677734,100.652344 Z M86.828125,137.789062 L85.1054688,138.292969 C84.7929672,137.816404 84.5703132,137.246097 84.4375,136.582031 C83.1171809,137.722662 81.7890692,138.292969 80.453125,138.292969 C79.2890567,138.292969 78.369144,137.984378 77.6933594,137.367188 C77.0175747,136.749997 76.6796875,135.937505 76.6796875,134.929688 C76.6796875,134.210934 76.8476546,133.570315 77.1835938,133.007812 C77.5195329,132.44531 78.0253872,131.974611 78.7011719,131.595703 C79.3769565,131.216795 80.2304636,130.937501 81.2617188,130.757812 L84.2382812,130.21875 L84.2382812,129.84375 C84.2382812,128.898433 84.0605487,128.212893 83.7050781,127.787109 C83.3496076,127.361326 82.6953173,127.148438 81.7421875,127.148438 C80.5703066,127.148438 79.3632875,127.582027 78.1210938,128.449219 L77.2304688,127.03125 C77.8242217,126.585935 78.5488238,126.226564 79.4042969,125.953125 C80.2597699,125.679686 81.0937459,125.542969 81.90625,125.542969 C83.4062575,125.542969 84.490231,125.886715 85.1582031,126.574219 C85.8261752,127.261722 86.1601562,128.308587 86.1601562,129.714844 L86.1601562,135.140625 C86.1601562,136.117192 86.3828103,136.999996 86.828125,137.789062 L86.828125,137.789062 Z M84.2382812,135.046875 L84.2382812,131.636719 C82.7617114,131.941408 81.8261738,132.136718 81.4316406,132.222656 C81.0371074,132.308594 80.6015649,132.468749 80.125,132.703125 C79.6484351,132.937501 79.2910168,133.23242 79.0527344,133.587891 C78.8144519,133.943361 78.6953125,134.367185 78.6953125,134.859375 C78.6953125,135.460941 78.8769513,135.935545 79.2402344,136.283203 C79.6035174,136.630861 80.1249966,136.804688 80.8046875,136.804688 C81.7656298,136.804688 82.9101496,136.218756 84.2382812,135.046875 L84.2382812,135.046875 Z M98.8046875,125.835938 L94,137.835938 L92.4648438,138.292969 L87.4023438,125.835938 L89.4179688,125.835938 L93.2382812,135.210938 L97,125.835938 L98.8046875,125.835938 Z M109.621094,137.789062 L107.898438,138.292969 C107.585936,137.816404 107.363282,137.246097 107.230469,136.582031 C105.91015,137.722662 104.582038,138.292969 103.246094,138.292969 C102.082025,138.292969 101.162113,137.984378 100.486328,137.367188 C99.8105435,136.749997 99.4726562,135.937505 99.4726562,134.929688 C99.4726562,134.210934 99.6406233,133.570315 99.9765625,133.007812 C100.312502,132.44531 100.818356,131.974611 101.494141,131.595703 C102.169925,131.216795 103.023432,130.937501 104.054688,130.757812 L107.03125,130.21875 L107.03125,129.84375 C107.03125,128.898433 106.853517,128.212893 106.498047,127.787109 C106.142576,127.361326 105.488286,127.148438 104.535156,127.148438 C103.363275,127.148438 102.156256,127.582027 100.914062,128.449219 L100.023438,127.03125 C100.61719,126.585935 101.341793,126.226564 102.197266,125.953125 C103.052739,125.679686 103.886715,125.542969 104.699219,125.542969 C106.199226,125.542969 107.2832,125.886715 107.951172,126.574219 C108.619144,127.261722 108.953125,128.308587 108.953125,129.714844 L108.953125,135.140625 C108.953125,136.117192 109.175779,136.999996 109.621094,137.789062 L109.621094,137.789062 Z M107.03125,135.046875 L107.03125,131.636719 C105.55468,131.941408 104.619143,132.136718 104.224609,132.222656 C103.830076,132.308594 103.394534,132.468749 102.917969,132.703125 C102.441404,132.937501 102.083986,133.23242 101.845703,133.587891 C101.607421,133.943361 101.488281,134.367185 101.488281,134.859375 C101.488281,135.460941 101.66992,135.935545 102.033203,136.283203 C102.396486,136.630861 102.917965,136.804688 103.597656,136.804688 C104.558599,136.804688 105.703118,136.218756 107.03125,135.046875 L107.03125,135.046875 Z M113.441406,121.535156 C113.76172,121.535156 114.037108,121.650389 114.267578,121.880859 C114.498048,122.111329 114.613281,122.386717 114.613281,122.707031 C114.613281,123.035158 114.496095,123.318358 114.261719,123.556641 C114.027343,123.794923 113.753908,123.914062 113.441406,123.914062 C113.11328,123.914062 112.830079,123.794923 112.591797,123.556641 C112.353514,123.318358 112.234375,123.035158 112.234375,122.707031 C112.234375,122.386717 112.353514,122.111329 112.591797,121.880859 C112.830079,121.650389 113.11328,121.535156 113.441406,121.535156 L113.441406,121.535156 Z M114.390625,138 L112.480469,138 L112.480469,126.09375 L114.390625,125.542969 L114.390625,138 Z M119.910156,138 L118,138 L118,120.292969 L119.910156,119.730469 L119.910156,138 Z M132.871094,137.789062 L131.148438,138.292969 C130.835936,137.816404 130.613282,137.246097 130.480469,136.582031 C129.16015,137.722662 127.832038,138.292969 126.496094,138.292969 C125.332025,138.292969 124.412113,137.984378 123.736328,137.367188 C123.060543,136.749997 122.722656,135.937505 122.722656,134.929688 C122.722656,134.210934 122.890623,133.570315 123.226562,133.007812 C123.562502,132.44531 124.068356,131.974611 124.744141,131.595703 C125.419925,131.216795 126.273432,130.937501 127.304688,130.757812 L130.28125,130.21875 L130.28125,129.84375 C130.28125,128.898433 130.103517,128.212893 129.748047,127.787109 C129.392576,127.361326 128.738286,127.148438 127.785156,127.148438 C126.613275,127.148438 125.406256,127.582027 124.164062,128.449219 L123.273438,127.03125 C123.86719,126.585935 124.591793,126.226564 125.447266,125.953125 C126.302739,125.679686 127.136715,125.542969 127.949219,125.542969 C129.449226,125.542969 130.5332,125.886715 131.201172,126.574219 C131.869144,127.261722 132.203125,128.308587 132.203125,129.714844 L132.203125,135.140625 C132.203125,136.117192 132.425779,136.999996 132.871094,137.789062 L132.871094,137.789062 Z M130.28125,135.046875 L130.28125,131.636719 C128.80468,131.941408 127.869143,132.136718 127.474609,132.222656 C127.080076,132.308594 126.644534,132.468749 126.167969,132.703125 C125.691404,132.937501 125.333986,133.23242 125.095703,133.587891 C124.857421,133.943361 124.738281,134.367185 124.738281,134.859375 C124.738281,135.460941 124.91992,135.935545 125.283203,136.283203 C125.646486,136.630861 126.167965,136.804688 126.847656,136.804688 C127.808599,136.804688 128.953118,136.218756 130.28125,135.046875 L130.28125,135.046875 Z M137.570312,126.914062 C138.671881,125.999995 139.898431,125.542969 141.25,125.542969 C142.835945,125.542969 144.072261,126.089838 144.958984,127.183594 C145.845708,128.277349 146.289062,129.785147 146.289062,131.707031 C146.289062,133.667979 145.742193,135.230463 144.648438,136.394531 C143.554682,137.5586 142.132821,138.140625 140.382812,138.140625 C140.031248,138.140625 139.701173,138.126953 139.392578,138.099609 C139.083983,138.072265 138.757814,138.015625 138.414062,137.929688 L137.382812,137.660156 L135.648438,138 L135.648438,120.292969 L137.570312,119.730469 L137.570312,126.914062 Z M137.570312,135.984375 C138.468754,136.367189 139.261715,136.558594 139.949219,136.558594 C141.316413,136.558594 142.357418,136.167973 143.072266,135.386719 C143.787113,134.605465 144.144531,133.460945 144.144531,131.953125 C144.144531,128.749984 143.097667,127.148438 141.003906,127.148438 C140.394528,127.148438 139.7793,127.296874 139.158203,127.59375 C138.537106,127.890626 138.007815,128.28906 137.570312,128.789062 L137.570312,135.984375 Z M151.011719,138 L149.101562,138 L149.101562,120.292969 L151.011719,119.730469 L151.011719,138 Z M163.972656,132.117188 L155.910156,132.117188 C155.910156,133.523445 156.249997,134.638668 156.929688,135.462891 C157.609378,136.287113 158.542963,136.699219 159.730469,136.699219 C160.714849,136.699219 161.738276,136.355472 162.800781,135.667969 L163.644531,137.109375 C162.417963,137.898441 161.03907,138.292969 159.507812,138.292969 C157.734366,138.292969 156.343755,137.738287 155.335938,136.628906 C154.32812,135.519526 153.824219,134.054697 153.824219,132.234375 C153.824219,130.234365 154.343745,128.619147 155.382812,127.388672 C156.42188,126.158197 157.781242,125.542969 159.460938,125.542969 C160.851569,125.542969 161.951168,125.984371 162.759766,126.867188 C163.568363,127.750004 163.972656,128.925774 163.972656,130.394531 L163.972656,132.117188 Z M162.050781,130.652344 L162.050781,129.914062 C162.050781,129.117184 161.796878,128.445315 161.289062,127.898438 C160.781247,127.35156 160.140629,127.078125 159.367188,127.078125 C158.460933,127.078125 157.705081,127.400387 157.099609,128.044922 C156.494138,128.689456 156.121094,129.558588 155.980469,130.652344 L162.050781,130.652344 Z M165.085938,121.945312 C166.460944,121.164059 167.949211,120.773438 169.550781,120.773438 C170.964851,120.773438 172.101558,121.175777 172.960938,121.980469 C173.820317,122.78516 174.25,123.886712 174.25,125.285156 C174.25,126.761726 173.832035,127.968745 172.996094,128.90625 C172.160152,129.843755 170.94532,130.417968 169.351562,130.628906 L169.351562,133.300781 L167.429688,133.851562 L167.429688,129.023438 L168.320312,129.023438 C169.562506,129.023438 170.521481,128.699222 171.197266,128.050781 C171.87305,127.402341 172.210938,126.503912 172.210938,125.355469 C172.210938,124.441402 171.953128,123.7168 171.4375,123.181641 C170.921872,122.646482 170.234379,122.378906 169.375,122.378906 C168.234369,122.378906 167.042975,122.722653 165.800781,123.410156 L165.085938,121.945312 Z M168.566406,135.410156 C168.957033,135.410156 169.292967,135.55078 169.574219,135.832031 C169.85547,136.113283 169.996094,136.453123 169.996094,136.851562 C169.996094,137.242189 169.85547,137.580077 169.574219,137.865234 C169.292967,138.150392 168.957033,138.292969 168.566406,138.292969 C168.167967,138.292969 167.828126,138.150392 167.546875,137.865234 C167.265624,137.580077 167.125,137.242189 167.125,136.851562 C167.125,136.453123 167.265624,136.113283 167.546875,135.832031 C167.828126,135.55078 168.167967,135.410156 168.566406,135.410156 L168.566406,135.410156 Z" id="Necessary" fill="#FFFFFF" sketch:type="MSShapeGroup"></path>
            </g>
            <g id="Rectangle-1-Copy-+-Decision-in-Principl" sketch:type="MSLayerGroup" transform="translate(713.000000, 131.000000)">
                <rect id="Rectangle-1-Copy" fill="#29ABE1" sketch:type="MSShapeGroup" x="0.5" y="0" width="250" height="200"></rect>
                <path d="M43.3037109,60.5820312 C45.1787203,60.4414055 47.7802568,60.3710938 51.1083984,60.3710938 C55.1865438,60.3710938 58.3300671,61.4081928 60.5390625,63.4824219 C62.7480579,65.556651 63.8525391,68.5273244 63.8525391,72.3945312 C63.8525391,77.1406487 62.6543089,80.6298717 60.2578125,82.8623047 C57.8613161,85.0947377 54.0674088,86.2109375 48.8759766,86.2109375 C46.1337754,86.2109375 44.2763721,86.1406257 43.3037109,86 L43.3037109,60.5820312 Z M46.4677734,83.6972656 C47.0185574,83.8144537 48.0146412,83.8730469 49.4560547,83.8730469 C56.7334348,83.8730469 60.3720703,80.2168334 60.3720703,72.9042969 C60.3720703,69.4472483 59.5546957,66.8837974 57.9199219,65.2138672 C56.2851481,63.543937 53.7978683,62.7089844 50.4580078,62.7089844 C49.0751884,62.7089844 47.7451236,62.7675775 46.4677734,62.8847656 L46.4677734,83.6972656 Z M82.2041016,77.1757812 L70.1103516,77.1757812 C70.1103516,79.2851668 70.6201121,80.9580016 71.6396484,82.1943359 C72.6591848,83.4306702 74.0595614,84.0488281 75.8408203,84.0488281 C77.3173902,84.0488281 78.8525311,83.5332083 80.4462891,82.5019531 L81.7119141,84.6640625 C79.8720611,85.8476622 77.8037224,86.4394531 75.5068359,86.4394531 C72.8466664,86.4394531 70.7607497,85.6074302 69.2490234,83.9433594 C67.7372971,82.2792886 66.9814453,80.0820449 66.9814453,77.3515625 C66.9814453,74.3515475 67.7607344,71.9287202 69.3193359,70.0830078 C70.8779375,68.2372955 72.9169796,67.3144531 75.4365234,67.3144531 C77.5224714,67.3144531 79.1718689,67.9765559 80.3847656,69.3007812 C81.5976623,70.6250066 82.2041016,72.3886609 82.2041016,74.5917969 L82.2041016,77.1757812 Z M79.3212891,74.9785156 L79.3212891,73.8710938 C79.3212891,72.6757753 78.9404335,71.6679729 78.1787109,70.8476562 C77.4169884,70.0273396 76.4560605,69.6171875 75.2958984,69.6171875 C73.9365166,69.6171875 72.8027389,70.1005811 71.8945312,71.0673828 C70.9863236,72.0341845 70.4267589,73.3378824 70.2158203,74.9785156 L79.3212891,74.9785156 Z M99.5185547,84.6640625 C97.7021394,85.8476622 95.63966,86.4394531 93.3310547,86.4394531 C90.799792,86.4394531 88.7695389,85.6425861 87.2402344,84.0488281 C85.7109299,82.4550702 84.9462891,80.2519672 84.9462891,77.4394531 C84.9462891,74.1113115 85.769523,71.5918054 87.4160156,69.8808594 C89.0625082,68.1699133 91.2978374,67.3144531 94.1220703,67.3144531 C95.9736421,67.3144531 97.713859,67.6894494 99.3427734,68.4394531 L98.3056641,70.7070312 C96.8056566,70.0273404 95.387702,69.6875 94.0517578,69.6875 C92.082998,69.6875 90.6064502,70.3085875 89.6220703,71.5507812 C88.6376904,72.792975 88.1455078,74.6562376 88.1455078,77.140625 C88.1455078,79.3086046 88.6142531,81.001947 89.5517578,82.2207031 C90.4892625,83.4394592 91.8193273,84.0488281 93.5419922,84.0488281 C95.1005937,84.0488281 96.6767498,83.5332083 98.2705078,82.5019531 L99.5185547,84.6640625 Z M105.143555,61.3027344 C105.624026,61.3027344 106.037108,61.4755842 106.382812,61.8212891 C106.728517,62.1669939 106.901367,62.5800757 106.901367,63.0605469 C106.901367,63.5527368 106.725588,63.9775373 106.374023,64.3349609 C106.022459,64.6923846 105.612307,64.8710938 105.143555,64.8710938 C104.651365,64.8710938 104.226564,64.6923846 103.869141,64.3349609 C103.511717,63.9775373 103.333008,63.5527368 103.333008,63.0605469 C103.333008,62.5800757 103.511717,62.1669939 103.869141,61.8212891 C104.226564,61.4755842 104.651365,61.3027344 105.143555,61.3027344 L105.143555,61.3027344 Z M106.567383,86 L103.702148,86 L103.702148,68.140625 L106.567383,67.3144531 L106.567383,86 Z M122.053711,70.6367188 C120.600579,69.9804655 119.170905,69.6523438 117.764648,69.6523438 C115.374011,69.6523438 114.178711,70.3964769 114.178711,71.8847656 C114.178711,72.5644565 114.495114,73.1445288 115.12793,73.625 C115.760745,74.1054712 116.926749,74.6796842 118.625977,75.3476562 C120.477548,76.0625036 121.792965,76.8798782 122.572266,77.7998047 C123.351566,78.7197312 123.741211,79.8710868 123.741211,81.2539062 C123.741211,82.9765711 123.102545,84.27148 121.825195,85.1386719 C120.547845,86.0058637 118.872081,86.4394531 116.797852,86.4394531 C114.688466,86.4394531 112.672861,86.0996128 110.750977,85.4199219 L111.647461,82.8710938 C113.463876,83.6093787 115.227531,83.9785156 116.938477,83.9785156 C118.028326,83.9785156 118.918942,83.7529319 119.610352,83.3017578 C120.301761,82.8505837 120.647461,82.2265665 120.647461,81.4296875 C120.647461,80.0703057 119.545909,78.9511763 117.342773,78.0722656 C114.858386,77.0996045 113.203129,76.1972698 112.376953,75.3652344 C111.550777,74.533199 111.137695,73.4609441 111.137695,72.1484375 C111.137695,70.6835864 111.761713,69.5117231 113.009766,68.6328125 C114.257819,67.7539019 115.918935,67.3144531 117.993164,67.3144531 C119.680673,67.3144531 121.391593,67.6601528 123.125977,68.3515625 L122.053711,70.6367188 Z M129.401367,61.3027344 C129.881838,61.3027344 130.29492,61.4755842 130.640625,61.8212891 C130.98633,62.1669939 131.15918,62.5800757 131.15918,63.0605469 C131.15918,63.5527368 130.9834,63.9775373 130.631836,64.3349609 C130.280272,64.6923846 129.87012,64.8710938 129.401367,64.8710938 C128.909177,64.8710938 128.484377,64.6923846 128.126953,64.3349609 C127.769529,63.9775373 127.59082,63.5527368 127.59082,63.0605469 C127.59082,62.5800757 127.769529,62.1669939 128.126953,61.8212891 C128.484377,61.4755842 128.909177,61.3027344 129.401367,61.3027344 L129.401367,61.3027344 Z M130.825195,86 L127.959961,86 L127.959961,68.140625 L130.825195,67.3144531 L130.825195,86 Z M143.604492,67.3144531 C146.252943,67.3144531 148.33886,68.1201091 149.862305,69.7314453 C151.38575,71.3427815 152.147461,73.6074073 152.147461,76.5253906 C152.147461,79.4902492 151.347664,81.88378 149.748047,83.7060547 C148.14843,85.5283294 146.100598,86.4394531 143.604492,86.4394531 C140.96776,86.4394531 138.881844,85.6396564 137.34668,84.0400391 C135.811516,82.4404217 135.043945,80.1757959 135.043945,77.2460938 C135.043945,74.2343599 135.849601,71.8261809 137.460938,70.0214844 C139.072274,68.2167879 141.120105,67.3144531 143.604492,67.3144531 L143.604492,67.3144531 Z M143.569336,84.0488281 C145.268563,84.0488281 146.589839,83.4130923 147.533203,82.1416016 C148.476567,80.8701108 148.948242,79.1211049 148.948242,76.8945312 C148.948242,74.7617081 148.491216,73.0273504 147.577148,71.6914062 C146.663081,70.3554621 145.338876,69.6875 143.604492,69.6875 C141.916984,69.6875 140.601567,70.3290951 139.658203,71.6123047 C138.714839,72.8955142 138.243164,74.6562388 138.243164,76.8945312 C138.243164,79.0625108 138.717769,80.7968685 139.666992,82.0976562 C140.616216,83.398444 141.916984,84.0488281 143.569336,84.0488281 L143.569336,84.0488281 Z M171.65918,86 L168.776367,86 L168.776367,74.4863281 C168.776367,72.7636633 168.503909,71.5449254 167.958984,70.8300781 C167.41406,70.1152308 166.473639,69.7578125 165.137695,69.7578125 C163.872064,69.7578125 162.553718,70.285151 161.182617,71.3398438 C159.811517,72.3945365 159.125977,73.5253846 159.125977,74.7324219 L159.125977,86 L156.243164,86 L156.243164,68.140625 L159.125977,67.3144531 L159.125977,70.3378906 C161.141612,68.3222555 163.327137,67.3144531 165.682617,67.3144531 C167.792003,67.3144531 169.315425,67.8476509 170.25293,68.9140625 C171.190434,69.9804741 171.65918,71.6445199 171.65918,73.90625 L171.65918,86 Z M187.040039,61.3027344 C187.52051,61.3027344 187.933592,61.4755842 188.279297,61.8212891 C188.625002,62.1669939 188.797852,62.5800757 188.797852,63.0605469 C188.797852,63.5527368 188.622072,63.9775373 188.270508,64.3349609 C187.918944,64.6923846 187.508791,64.8710938 187.040039,64.8710938 C186.547849,64.8710938 186.123049,64.6923846 185.765625,64.3349609 C185.408201,63.9775373 185.229492,63.5527368 185.229492,63.0605469 C185.229492,62.5800757 185.408201,62.1669939 185.765625,61.8212891 C186.123049,61.4755842 186.547849,61.3027344 187.040039,61.3027344 L187.040039,61.3027344 Z M188.463867,86 L185.598633,86 L185.598633,68.140625 L188.463867,67.3144531 L188.463867,86 Z M209.170898,86 L206.288086,86 L206.288086,74.4863281 C206.288086,72.7636633 206.015628,71.5449254 205.470703,70.8300781 C204.925779,70.1152308 203.985358,69.7578125 202.649414,69.7578125 C201.383783,69.7578125 200.065437,70.285151 198.694336,71.3398438 C197.323235,72.3945365 196.637695,73.5253846 196.637695,74.7324219 L196.637695,86 L193.754883,86 L193.754883,68.140625 L196.637695,67.3144531 L196.637695,70.3378906 C198.65333,68.3222555 200.838855,67.3144531 203.194336,67.3144531 C205.303721,67.3144531 206.827144,67.8476509 207.764648,68.9140625 C208.702153,69.9804741 209.170898,71.6445199 209.170898,73.90625 L209.170898,86 Z M61.9453125,106.582031 C62.7890667,106.511718 63.7089794,106.458985 64.7050781,106.423828 C65.7011769,106.388672 66.7734318,106.371094 67.921875,106.371094 C71.2734543,106.371094 73.7900307,106.91601 75.4716797,108.005859 C77.1533287,109.095709 77.9941406,110.724599 77.9941406,112.892578 C77.9941406,115.576185 76.8925891,117.647454 74.6894531,119.106445 C72.4863171,120.565437 69.2929897,121.347656 65.109375,121.453125 L65.109375,132 L61.9453125,132 L61.9453125,106.582031 Z M65.109375,119.115234 C68.0976712,119.009765 70.4296791,118.441411 72.1054688,117.410156 C73.7812584,116.378901 74.6191406,114.955087 74.6191406,113.138672 C74.6191406,111.662102 74.0771539,110.554691 72.9931641,109.816406 C71.9091743,109.078121 70.2890733,108.708984 68.1328125,108.708984 C67.2304642,108.708984 66.2226618,108.755859 65.109375,108.849609 L65.109375,119.115234 Z M91.6523438,113.490234 L91.0722656,116.267578 C90.7207014,116.126952 90.2285188,116.056641 89.5957031,116.056641 C88.4824163,116.056641 87.3925835,116.627924 86.3261719,117.770508 C85.2597603,118.913092 84.7265625,120.175774 84.7265625,121.558594 L84.7265625,132 L81.84375,132 L81.84375,114.140625 L84.375,113.314453 L84.375,116.8125 C86.0859461,114.480457 87.8847562,113.314453 89.7714844,113.314453 C90.5214881,113.314453 91.148435,113.373046 91.6523438,113.490234 L91.6523438,113.490234 Z M96.0820312,107.302734 C96.5625024,107.302734 96.9755842,107.475584 97.3212891,107.821289 C97.6669939,108.166994 97.8398438,108.580076 97.8398438,109.060547 C97.8398438,109.552737 97.6640643,109.977537 97.3125,110.334961 C96.9609357,110.692385 96.5507836,110.871094 96.0820312,110.871094 C95.5898413,110.871094 95.1650408,110.692385 94.8076172,110.334961 C94.4501935,109.977537 94.2714844,109.552737 94.2714844,109.060547 C94.2714844,108.580076 94.4501935,108.166994 94.8076172,107.821289 C95.1650408,107.475584 95.5898413,107.302734 96.0820312,107.302734 L96.0820312,107.302734 Z M97.5058594,132 L94.640625,132 L94.640625,114.140625 L97.5058594,113.314453 L97.5058594,132 Z M118.212891,132 L115.330078,132 L115.330078,120.486328 C115.330078,118.763663 115.05762,117.544925 114.512695,116.830078 C113.967771,116.115231 113.02735,115.757812 111.691406,115.757812 C110.425775,115.757812 109.107429,116.285151 107.736328,117.339844 C106.365228,118.394537 105.679688,119.525385 105.679688,120.732422 L105.679688,132 L102.796875,132 L102.796875,114.140625 L105.679688,113.314453 L105.679688,116.337891 C107.695323,114.322256 109.880848,113.314453 112.236328,113.314453 C114.345714,113.314453 115.869136,113.847651 116.806641,114.914062 C117.744145,115.980474 118.212891,117.64452 118.212891,119.90625 L118.212891,132 Z M136.705078,130.664062 C134.888663,131.847662 132.826183,132.439453 130.517578,132.439453 C127.986315,132.439453 125.956062,131.642586 124.426758,130.048828 C122.897453,128.45507 122.132812,126.251967 122.132812,123.439453 C122.132812,120.111311 122.956046,117.591805 124.602539,115.880859 C126.249032,114.169913 128.484361,113.314453 131.308594,113.314453 C133.160166,113.314453 134.900382,113.689449 136.529297,114.439453 L135.492188,116.707031 C133.99218,116.02734 132.574225,115.6875 131.238281,115.6875 C129.269521,115.6875 127.792974,116.308588 126.808594,117.550781 C125.824214,118.792975 125.332031,120.656238 125.332031,123.140625 C125.332031,125.308605 125.800777,127.001947 126.738281,128.220703 C127.675786,129.439459 129.005851,130.048828 130.728516,130.048828 C132.287117,130.048828 133.863273,129.533208 135.457031,128.501953 L136.705078,130.664062 Z M142.330078,107.302734 C142.810549,107.302734 143.223631,107.475584 143.569336,107.821289 C143.915041,108.166994 144.087891,108.580076 144.087891,109.060547 C144.087891,109.552737 143.912111,109.977537 143.560547,110.334961 C143.208983,110.692385 142.79883,110.871094 142.330078,110.871094 C141.837888,110.871094 141.413088,110.692385 141.055664,110.334961 C140.69824,109.977537 140.519531,109.552737 140.519531,109.060547 C140.519531,108.580076 140.69824,108.166994 141.055664,107.821289 C141.413088,107.475584 141.837888,107.302734 142.330078,107.302734 L142.330078,107.302734 Z M143.753906,132 L140.888672,132 L140.888672,114.140625 L143.753906,113.314453 L143.753906,132 Z M151.751953,115.582031 C153.380868,114.070305 155.179678,113.314453 157.148438,113.314453 C159.574231,113.314453 161.519524,114.155265 162.984375,115.836914 C164.449226,117.518563 165.181641,119.759752 165.181641,122.560547 C165.181641,125.537124 164.384774,127.927725 162.791016,129.732422 C161.197258,131.537118 159.222668,132.439453 156.867188,132.439453 C154.863271,132.439453 153.281256,131.859381 152.121094,130.699219 L152.121094,139.083984 L149.238281,139.927734 L149.238281,118.095703 C149.238281,116.373038 148.886722,115.054692 148.183594,114.140625 L150.890625,113.314453 C151.324221,113.982425 151.611327,114.738277 151.751953,115.582031 L151.751953,115.582031 Z M152.121094,118.253906 L152.121094,125.953125 C152.121094,127.171881 152.513668,128.153317 153.298828,128.897461 C154.083988,129.641605 155.226555,130.013672 156.726562,130.013672 C158.414071,130.013672 159.71191,129.34278 160.620117,128.000977 C161.528325,126.659173 161.982422,124.833996 161.982422,122.525391 C161.982422,120.36913 161.490239,118.702154 160.505859,117.524414 C159.521479,116.346674 158.296882,115.757812 156.832031,115.757812 C155.226554,115.757812 153.656258,116.589835 152.121094,118.253906 L152.121094,118.253906 Z M172.265625,132 L169.400391,132 L169.400391,105.439453 L172.265625,104.595703 L172.265625,132 Z M191.707031,123.175781 L179.613281,123.175781 C179.613281,125.285167 180.123042,126.958002 181.142578,128.194336 C182.162114,129.43067 183.562491,130.048828 185.34375,130.048828 C186.82032,130.048828 188.355461,129.533208 189.949219,128.501953 L191.214844,130.664062 C189.374991,131.847662 187.306652,132.439453 185.009766,132.439453 C182.349596,132.439453 180.263679,131.60743 178.751953,129.943359 C177.240227,128.279289 176.484375,126.082045 176.484375,123.351562 C176.484375,120.351547 177.263664,117.92872 178.822266,116.083008 C180.380867,114.237295 182.419909,113.314453 184.939453,113.314453 C187.025401,113.314453 188.674799,113.976556 189.887695,115.300781 C191.100592,116.625007 191.707031,118.388661 191.707031,120.591797 L191.707031,123.175781 Z M188.824219,120.978516 L188.824219,119.871094 C188.824219,118.675775 188.443363,117.667973 187.681641,116.847656 C186.919918,116.02734 185.95899,115.617188 184.798828,115.617188 C183.439446,115.617188 182.305669,116.100581 181.397461,117.067383 C180.489253,118.034185 179.929689,119.337882 179.71875,120.978516 L188.824219,120.978516 Z" id="Decision-in-Principl" fill="#FFFFFF" sketch:type="MSShapeGroup"></path>
            </g>
            <g id="Rectangle-5-+-No-Copy" sketch:type="MSLayerGroup" transform="translate(655.500000, 215.500000)" font-size="24" font-family="Expert Sans" fill="#29ABE1" font-weight="normal">
                <text id="Yes" sketch:type="MSTextLayer">
                    <tspan x="0" y="24">Yes</tspan>
                </text>
            </g>
            <g id="Rectangle-5-+-No-Copy-2" sketch:type="MSLayerGroup" transform="translate(497.000000, 366.000000)" font-size="24" font-family="Expert Sans" fill="#29ABE1" font-weight="normal">
                <text id="No" sketch:type="MSTextLayer">
                    <tspan x="0" y="24">No</tspan>
                </text>
            </g>
            <path d="M442.039062,507.043203 L438.875,507.043203 L438.875,481.625234 L442.039062,481.625234 L442.039062,507.043203 Z M463.132812,507.043203 L460.25,507.043203 L460.25,495.529531 C460.25,493.806866 459.977542,492.588128 459.432617,491.873281 C458.887693,491.158434 457.947272,490.801015 456.611328,490.801015 C455.345697,490.801015 454.027351,491.328354 452.65625,492.383047 C451.285149,493.437739 450.599609,494.568587 450.599609,495.775625 L450.599609,507.043203 L447.716797,507.043203 L447.716797,489.183828 L450.599609,488.357656 L450.599609,491.381093 C452.615244,489.365458 454.800769,488.357656 457.15625,488.357656 C459.265636,488.357656 460.789058,488.890854 461.726562,489.957265 C462.664067,491.023677 463.132812,492.687723 463.132812,494.949453 L463.132812,507.043203 Z M477.089844,499.414297 L467.878906,499.414297 L467.878906,496.426015 L477.089844,496.426015 L477.089844,499.414297 Z M484.912109,490.414297 C486.564461,489.043196 488.404287,488.357656 490.431641,488.357656 C492.810559,488.357656 494.665032,489.17796 495.995117,490.818593 C497.325202,492.459227 497.990234,494.720923 497.990234,497.60375 C497.990234,500.545171 497.16993,502.888897 495.529297,504.635 C493.888664,506.381102 491.755873,507.25414 489.130859,507.25414 C488.603513,507.25414 488.108401,507.233633 487.645508,507.192617 C487.182615,507.151601 486.693362,507.066641 486.177734,506.937734 L484.630859,506.533437 L482.029297,507.043203 L482.029297,480.482656 L484.912109,479.638906 L484.912109,490.414297 Z M484.912109,504.019765 C486.259772,504.593987 487.449214,504.881093 488.480469,504.881093 C490.53126,504.881093 492.092768,504.295162 493.165039,503.123281 C494.23731,501.9514 494.773438,500.23462 494.773438,497.97289 C494.773438,493.168179 493.203141,490.765859 490.0625,490.765859 C489.148433,490.765859 488.225591,490.988513 487.293945,491.433828 C486.3623,491.879142 485.568363,492.476793 484.912109,493.226797 L484.912109,504.019765 Z M511.894531,488.533437 L511.314453,491.310781 C510.962889,491.170155 510.470706,491.099843 509.837891,491.099843 C508.724604,491.099843 507.634771,491.671127 506.568359,492.813711 C505.501948,493.956294 504.96875,495.218977 504.96875,496.601797 L504.96875,507.043203 L502.085938,507.043203 L502.085938,489.183828 L504.617188,488.357656 L504.617188,491.855703 C506.328134,489.52366 508.126944,488.357656 510.013672,488.357656 C510.763676,488.357656 511.390622,488.416249 511.894531,488.533437 L511.894531,488.533437 Z M528.259766,506.726797 L525.675781,507.482656 C525.207029,506.767809 524.873048,505.912348 524.673828,504.91625 C522.693349,506.627196 520.701182,507.482656 518.697266,507.482656 C516.951163,507.482656 515.571294,507.01977 514.557617,506.093984 C513.54394,505.168198 513.037109,503.94946 513.037109,502.437734 C513.037109,501.359604 513.28906,500.398676 513.792969,499.554922 C514.296878,498.711167 515.055659,498.00512 516.069336,497.436757 C517.083013,496.868395 518.363274,496.449454 519.910156,496.179922 L524.375,495.371328 L524.375,494.808828 C524.375,493.390852 524.108401,492.362542 523.575195,491.723867 C523.04199,491.085192 522.060554,490.765859 520.630859,490.765859 C518.873038,490.765859 517.062509,491.416243 515.199219,492.717031 L513.863281,490.590078 C514.753911,489.922106 515.840814,489.383049 517.124023,488.97289 C518.407233,488.562732 519.658197,488.357656 520.876953,488.357656 C523.126964,488.357656 524.752925,488.873276 525.754883,489.904531 C526.756841,490.935786 527.257812,492.506083 527.257812,494.615468 L527.257812,502.75414 C527.257812,504.218991 527.591794,505.543197 528.259766,506.726797 L528.259766,506.726797 Z M524.375,502.613515 L524.375,497.498281 C522.160145,497.955314 520.756839,498.24828 520.165039,498.377187 C519.573239,498.506094 518.919925,498.746326 518.205078,499.09789 C517.490231,499.449455 516.954103,499.891833 516.59668,500.425039 C516.239256,500.958244 516.060547,501.59398 516.060547,502.332265 C516.060547,503.234614 516.333005,503.94652 516.87793,504.468007 C517.422854,504.989494 518.205073,505.250234 519.224609,505.250234 C520.666023,505.250234 522.382803,504.371337 524.375,502.613515 L524.375,502.613515 Z M547.841797,507.043203 L544.958984,507.043203 L544.958984,495.529531 C544.958984,493.806866 544.686526,492.588128 544.141602,491.873281 C543.596677,491.158434 542.656257,490.801015 541.320312,490.801015 C540.054681,490.801015 538.736335,491.328354 537.365234,492.383047 C535.994134,493.437739 535.308594,494.568587 535.308594,495.775625 L535.308594,507.043203 L532.425781,507.043203 L532.425781,489.183828 L535.308594,488.357656 L535.308594,491.381093 C537.324229,489.365458 539.509754,488.357656 541.865234,488.357656 C543.97462,488.357656 545.498042,488.890854 546.435547,489.957265 C547.373052,491.023677 547.841797,492.687723 547.841797,494.949453 L547.841797,507.043203 Z M566.333984,505.707265 C564.517569,506.890865 562.45509,507.482656 560.146484,507.482656 C557.615222,507.482656 555.584969,506.685789 554.055664,505.092031 C552.52636,503.498273 551.761719,501.29517 551.761719,498.482656 C551.761719,495.154514 552.584953,492.635008 554.231445,490.924062 C555.877938,489.213116 558.113267,488.357656 560.9375,488.357656 C562.789072,488.357656 564.529289,488.732652 566.158203,489.482656 L565.121094,491.750234 C563.621086,491.070543 562.203132,490.730703 560.867188,490.730703 C558.898428,490.730703 557.42188,491.35179 556.4375,492.593984 C555.45312,493.836178 554.960938,495.69944 554.960938,498.183828 C554.960938,500.351807 555.429683,502.04515 556.367188,503.263906 C557.304692,504.482662 558.634757,505.092031 560.357422,505.092031 C561.916023,505.092031 563.49218,504.576411 565.085938,503.545156 L566.333984,505.707265 Z M585.810547,507.043203 L582.927734,507.043203 L582.927734,495.494375 C582.927734,493.806866 582.658206,492.602777 582.119141,491.88207 C581.580075,491.161363 580.636725,490.801015 579.289062,490.801015 C577.261709,490.801015 575.257822,492.002175 573.277344,494.404531 L573.277344,507.043203 L570.394531,507.043203 L570.394531,480.482656 L573.277344,479.638906 L573.277344,491.345937 C575.37501,489.35374 577.548817,488.357656 579.798828,488.357656 C581.896495,488.357656 583.422847,488.882065 584.37793,489.930898 C585.333013,490.979731 585.810547,492.652566 585.810547,494.949453 L585.810547,507.043203 Z M450.801758,526.148672 L450.081055,528.381093 C449.131831,528.064686 448.293949,527.906484 447.567383,527.906484 C446.254876,527.906484 445.337893,528.293199 444.816406,529.06664 C444.294919,529.840082 444.03418,531.099835 444.03418,532.845937 L444.03418,534.797109 L448.674805,534.797109 L447.954102,536.959218 L444.03418,536.959218 L444.03418,553.043203 L441.151367,553.043203 L441.151367,536.959218 L437.706055,536.959218 L438.49707,534.797109 L441.151367,534.797109 L441.151367,532.951406 C441.151367,528.076382 443.131816,525.638906 447.092773,525.638906 C448.487312,525.638906 449.723627,525.808826 450.801758,526.148672 L450.801758,526.148672 Z M458.09668,534.357656 C460.74513,534.357656 462.831047,535.163312 464.354492,536.774648 C465.877937,538.385984 466.639648,540.65061 466.639648,543.568593 C466.639648,546.533452 465.839852,548.926983 464.240234,550.749257 C462.640617,552.571532 460.592786,553.482656 458.09668,553.482656 C455.459948,553.482656 453.374031,552.682859 451.838867,551.083242 C450.303703,549.483624 449.536133,547.218999 449.536133,544.289297 C449.536133,541.277563 450.341789,538.869384 451.953125,537.064687 C453.564461,535.259991 455.612292,534.357656 458.09668,534.357656 L458.09668,534.357656 Z M458.061523,551.092031 C459.760751,551.092031 461.082027,550.456295 462.025391,549.184804 C462.968755,547.913314 463.44043,546.164308 463.44043,543.937734 C463.44043,541.804911 462.983403,540.070553 462.069336,538.734609 C461.155269,537.398665 459.831063,536.730703 458.09668,536.730703 C456.409171,536.730703 455.093755,537.372298 454.150391,538.655507 C453.207027,539.938717 452.735352,541.699442 452.735352,543.937734 C452.735352,546.105714 453.209956,547.840071 454.15918,549.140859 C455.108403,550.441647 456.409171,551.092031 458.061523,551.092031 L458.061523,551.092031 Z M473.723633,553.043203 L470.858398,553.043203 L470.858398,526.482656 L473.723633,525.638906 L473.723633,553.043203 Z M482.00293,553.043203 L479.137695,553.043203 L479.137695,526.482656 L482.00293,525.638906 L482.00293,553.043203 Z M494.782227,534.357656 C497.430677,534.357656 499.516594,535.163312 501.040039,536.774648 C502.563484,538.385984 503.325195,540.65061 503.325195,543.568593 C503.325195,546.533452 502.525399,548.926983 500.925781,550.749257 C499.326164,552.571532 497.278333,553.482656 494.782227,553.482656 C492.145495,553.482656 490.059578,552.682859 488.524414,551.083242 C486.98925,549.483624 486.22168,547.218999 486.22168,544.289297 C486.22168,541.277563 487.027336,538.869384 488.638672,537.064687 C490.250008,535.259991 492.297839,534.357656 494.782227,534.357656 L494.782227,534.357656 Z M494.74707,551.092031 C496.446298,551.092031 497.767573,550.456295 498.710938,549.184804 C499.654302,547.913314 500.125977,546.164308 500.125977,543.937734 C500.125977,541.804911 499.66895,540.070553 498.754883,538.734609 C497.840816,537.398665 496.51661,536.730703 494.782227,536.730703 C493.094718,536.730703 491.779302,537.372298 490.835938,538.655507 C489.892573,539.938717 489.420898,541.699442 489.420898,543.937734 C489.420898,546.105714 489.895503,547.840071 490.844727,549.140859 C491.79395,550.441647 493.094718,551.092031 494.74707,551.092031 L494.74707,551.092031 Z M531.977539,534.797109 L524.928711,552.937734 L523.083008,553.482656 L518.09082,540.299062 L513.081055,552.902578 L511.05957,553.482656 L504.397461,534.797109 L507.280273,534.797109 L512.149414,548.543203 L517.176758,535.763906 L519.092773,535.218984 L523.979492,548.402578 L529.270508,534.797109 L531.977539,534.797109 Z M543.702148,545.414297 L534.491211,545.414297 L534.491211,542.426015 L543.702148,542.426015 L543.702148,545.414297 Z M564.918945,552.69164 L562.141602,553.482656 C561.719724,552.779527 561.385743,551.73071 561.139648,550.336172 C559.041982,552.433838 556.856457,553.482656 554.583008,553.482656 C552.415028,553.482656 550.85352,552.961177 549.898438,551.918203 C548.943355,550.875229 548.46582,549.187746 548.46582,546.855703 L548.46582,535.183828 L551.348633,534.357656 L551.348633,546.310781 C551.348633,547.986571 551.609372,549.19066 552.130859,549.923086 C552.652346,550.655511 553.604485,551.021718 554.987305,551.021718 C556.288092,551.021718 557.615228,550.49145 558.96875,549.430898 C560.322272,548.370346 560.999023,547.22485 560.999023,545.994375 L560.999023,535.183828 L563.881836,534.357656 L563.881836,548.437734 C563.881836,549.996336 564.227536,551.41429 564.918945,552.69164 L564.918945,552.69164 Z M571.756836,536.625234 C573.38575,535.113508 575.18456,534.357656 577.15332,534.357656 C579.579114,534.357656 581.524407,535.198468 582.989258,536.880117 C584.454109,538.561766 585.186523,540.802954 585.186523,543.60375 C585.186523,546.580327 584.389656,548.970928 582.795898,550.775625 C581.20214,552.580321 579.227551,553.482656 576.87207,553.482656 C574.868154,553.482656 573.286139,552.902584 572.125977,551.742422 L572.125977,560.127187 L569.243164,560.970937 L569.243164,539.138906 C569.243164,537.416241 568.891605,536.097895 568.188477,535.183828 L570.895508,534.357656 C571.329104,535.025628 571.61621,535.78148 571.756836,536.625234 L571.756836,536.625234 Z M572.125977,539.297109 L572.125977,546.996328 C572.125977,548.215084 572.518551,549.196519 573.303711,549.940664 C574.088871,550.684808 575.231438,551.056875 576.731445,551.056875 C578.418954,551.056875 579.716792,550.385983 580.625,549.044179 C581.533208,547.702376 581.987305,545.877199 581.987305,543.568593 C581.987305,541.412333 581.495122,539.745357 580.510742,538.567617 C579.526362,537.389877 578.301765,536.801015 576.836914,536.801015 C575.231437,536.801015 573.66114,537.633038 572.125977,539.297109 L572.125977,539.297109 Z M459.916016,580.533437 L459.335938,583.310781 C458.984373,583.170155 458.492191,583.099843 457.859375,583.099843 C456.746088,583.099843 455.656255,583.671127 454.589844,584.813711 C453.523432,585.956294 452.990234,587.218977 452.990234,588.601797 L452.990234,599.043203 L450.107422,599.043203 L450.107422,581.183828 L452.638672,580.357656 L452.638672,583.855703 C454.349618,581.52366 456.148428,580.357656 458.035156,580.357656 C458.78516,580.357656 459.412107,580.416249 459.916016,580.533437 L459.916016,580.533437 Z M476.28125,590.218984 L464.1875,590.218984 C464.1875,592.32837 464.697261,594.001204 465.716797,595.237539 C466.736333,596.473873 468.13671,597.092031 469.917969,597.092031 C471.394539,597.092031 472.92968,596.576411 474.523438,595.545156 L475.789062,597.707265 C473.94921,598.890865 471.880871,599.482656 469.583984,599.482656 C466.923815,599.482656 464.837898,598.650633 463.326172,596.986562 C461.814446,595.322491 461.058594,593.125248 461.058594,590.394765 C461.058594,587.39475 461.837883,584.971923 463.396484,583.126211 C464.955086,581.280498 466.994128,580.357656 469.513672,580.357656 C471.59962,580.357656 473.249017,581.019759 474.461914,582.343984 C475.674811,583.668209 476.28125,585.431864 476.28125,587.635 L476.28125,590.218984 Z M473.398438,588.021718 L473.398438,586.914297 C473.398438,585.718978 473.017582,584.711176 472.255859,583.890859 C471.494137,583.070542 470.533209,582.66039 469.373047,582.66039 C468.013665,582.66039 466.879887,583.143784 465.97168,584.110586 C465.063472,585.077387 464.503907,586.381085 464.292969,588.021718 L473.398438,588.021718 Z M494.966797,606.179922 L492.083984,606.970937 L492.083984,597.531484 C490.54882,598.832272 488.873056,599.482656 487.056641,599.482656 C484.60741,599.482656 482.656257,598.633055 481.203125,596.933828 C479.749993,595.234601 479.023438,593.019779 479.023438,590.289297 C479.023438,588.215067 479.389645,586.430906 480.12207,584.936757 C480.854496,583.442609 481.903313,582.305902 483.268555,581.526601 C484.633796,580.7473 486.183585,580.357656 487.917969,580.357656 C489.511727,580.357656 490.988274,580.6682 492.347656,581.289297 L494.966797,580.797109 L494.966797,606.179922 Z M492.083984,593.34789 L492.083984,583.820547 C490.771478,583.09398 489.46485,582.730703 488.164062,582.730703 C486.242178,582.730703 484.771489,583.35179 483.751953,584.593984 C482.732417,585.836178 482.222656,587.652566 482.222656,590.043203 C482.222656,592.258058 482.694331,593.974837 483.637695,595.193593 C484.581059,596.412349 485.896476,597.021718 487.583984,597.021718 C488.61524,597.021718 489.623042,596.646722 490.607422,595.896718 C491.591802,595.146715 492.083984,594.297114 492.083984,593.34789 L492.083984,593.34789 Z M516.429688,598.69164 L513.652344,599.482656 C513.230467,598.779527 512.896486,597.73071 512.650391,596.336172 C510.552724,598.433838 508.367199,599.482656 506.09375,599.482656 C503.92577,599.482656 502.364263,598.961177 501.40918,597.918203 C500.454097,596.875229 499.976562,595.187746 499.976562,592.855703 L499.976562,581.183828 L502.859375,580.357656 L502.859375,592.310781 C502.859375,593.986571 503.120115,595.19066 503.641602,595.923086 C504.163089,596.655511 505.115227,597.021718 506.498047,597.021718 C507.798835,597.021718 509.12597,596.49145 510.479492,595.430898 C511.833015,594.370346 512.509766,593.22485 512.509766,591.994375 L512.509766,581.183828 L515.392578,580.357656 L515.392578,594.437734 C515.392578,595.996336 515.738278,597.41429 516.429688,598.69164 L516.429688,598.69164 Z M522.125,574.345937 C522.605471,574.345937 523.018553,574.518787 523.364258,574.864492 C523.709963,575.210197 523.882812,575.623278 523.882812,576.10375 C523.882812,576.59594 523.707033,577.02074 523.355469,577.378164 C523.003904,577.735587 522.593752,577.914297 522.125,577.914297 C521.63281,577.914297 521.20801,577.735587 520.850586,577.378164 C520.493162,577.02074 520.314453,576.59594 520.314453,576.10375 C520.314453,575.623278 520.493162,575.210197 520.850586,574.864492 C521.20801,574.518787 521.63281,574.345937 522.125,574.345937 L522.125,574.345937 Z M523.548828,599.043203 L520.683594,599.043203 L520.683594,581.183828 L523.548828,580.357656 L523.548828,599.043203 Z M538.648438,580.533437 L538.068359,583.310781 C537.716795,583.170155 537.224613,583.099843 536.591797,583.099843 C535.47851,583.099843 534.388677,583.671127 533.322266,584.813711 C532.255854,585.956294 531.722656,587.218977 531.722656,588.601797 L531.722656,599.043203 L528.839844,599.043203 L528.839844,581.183828 L531.371094,580.357656 L531.371094,583.855703 C533.08204,581.52366 534.88085,580.357656 536.767578,580.357656 C537.517582,580.357656 538.144529,580.416249 538.648438,580.533437 L538.648438,580.533437 Z M555.013672,590.218984 L542.919922,590.218984 C542.919922,592.32837 543.429682,594.001204 544.449219,595.237539 C545.468755,596.473873 546.869132,597.092031 548.650391,597.092031 C550.126961,597.092031 551.662101,596.576411 553.255859,595.545156 L554.521484,597.707265 C552.681631,598.890865 550.613293,599.482656 548.316406,599.482656 C545.656237,599.482656 543.57032,598.650633 542.058594,596.986562 C540.546867,595.322491 539.791016,593.125248 539.791016,590.394765 C539.791016,587.39475 540.570305,584.971923 542.128906,583.126211 C543.687508,581.280498 545.72655,580.357656 548.246094,580.357656 C550.332042,580.357656 551.981439,581.019759 553.194336,582.343984 C554.407233,583.668209 555.013672,585.431864 555.013672,587.635 L555.013672,590.218984 Z M552.130859,588.021718 L552.130859,586.914297 C552.130859,585.718978 551.750004,584.711176 550.988281,583.890859 C550.226559,583.070542 549.265631,582.66039 548.105469,582.66039 C546.746087,582.66039 545.612309,583.143784 544.704102,584.110586 C543.795894,585.077387 543.236329,586.381085 543.025391,588.021718 L552.130859,588.021718 Z M574.753906,598.638906 L572.046875,599.482656 C571.589841,598.75609 571.302735,598.000238 571.185547,597.215078 C569.556632,598.726804 567.757822,599.482656 565.789062,599.482656 C563.363269,599.482656 561.417976,598.635985 559.953125,596.942617 C558.488274,595.249249 557.755859,593.00806 557.755859,590.218984 C557.755859,587.277563 558.558586,584.898681 560.164062,583.082265 C561.769539,581.26585 563.714832,580.357656 566,580.357656 C567.957041,580.357656 569.562494,580.896713 570.816406,581.974843 L570.816406,572.482656 L573.699219,571.638906 L573.699219,594.75414 C573.699219,596.42993 574.050778,597.724839 574.753906,598.638906 L574.753906,598.638906 Z M570.816406,593.54125 L570.816406,584.752187 C569.550775,583.427962 568.015634,582.765859 566.210938,582.765859 C564.570304,582.765859 563.284184,583.419173 562.352539,584.72582 C561.420894,586.032467 560.955078,587.828348 560.955078,590.113515 C560.955078,592.269776 561.426753,593.960189 562.370117,595.184804 C563.313481,596.40942 564.593742,597.021718 566.210938,597.021718 C567.324224,597.021718 568.370112,596.635004 569.348633,595.861562 C570.327153,595.088121 570.816406,594.314691 570.816406,593.54125 L570.816406,593.54125 Z" id="In-branch-follow-up" fill="#FFFFFF" sketch:type="MSShapeGroup"></path>
            <path d="M350,657.5 L672,421.5" id="Line" stroke="#FF0000" stroke-width="5" stroke-linecap="square" filter="url(#filter-1)" sketch:type="MSShapeGroup"></path>
        </g>
    </g>
</svg>