<?xml version="1.0" encoding="utf-8"?>
<!-- Generator: Adobe Illustrator 19.1.0, SVG Export Plug-In . SVG Version: 6.00 Build 0)  -->
<svg version="1.1" id="Layer_1" xmlns="http://www.w3.org/2000/svg" xmlns:xlink="http://www.w3.org/1999/xlink" x="0px" y="0px"
	 viewBox="0 0 1024 768" style="enable-background:new 0 0 1024 768;" xml:space="preserve">
<style type="text/css">
	.st0{fill:#FFFFFF;}
	.st1{fill:#00ADEE;}
	.st2{fill:#37B34A;}
	.st3{fill:#231F20;}
	.st4{font-family:'ExpertSans-ExtraLight';}
	.st5{font-size:60px;}
	.st6{fill:none;stroke:#404041;stroke-miterlimit:10;}
	.st7{font-family:'ExpertSans-Light';}
	.st8{font-size:21px;}
	.st9{opacity:0.3;}
</style>
<rect class="st0" width="1024" height="768"/>
<g>
	<rect x="599.7" y="131.1" class="st1" width="384" height="122.2"/>
	<g>
		<rect x="599.7" y="269.7" class="st1" width="233.5" height="15.1"/>
		<rect x="599.7" y="286.9" class="st1" width="99.5" height="15.1"/>
		<rect x="599.7" y="310.5" class="st1" width="233.5" height="7.4"/>
		<rect x="599.7" y="323.8" class="st1" width="240.8" height="7.4"/>
		<rect x="599.7" y="337.1" class="st1" width="233.5" height="7.4"/>
		<rect x="599.7" y="350.4" class="st1" width="161.8" height="7.4"/>
	</g>
	<g>
		<rect x="599.8" y="487.6" class="st1" width="61.1" height="72.8"/>
		<rect x="664.3" y="491.3" class="st1" width="142.5" height="11.6"/>
		<rect x="664.3" y="510.2" class="st1" width="298.7" height="7.4"/>
		<rect x="664.3" y="523.5" class="st1" width="308.2" height="7.4"/>
		<rect x="664.3" y="536.8" class="st1" width="298.7" height="7.4"/>
		<rect x="664.3" y="550.1" class="st1" width="207" height="7.4"/>
	</g>
	<g>
		<rect x="599.8" y="585.2" class="st1" width="142.5" height="11.6"/>
		<rect x="599.8" y="604.2" class="st1" width="173.1" height="7.4"/>
		<rect x="599.8" y="617.5" class="st1" width="178.5" height="7.4"/>
		<rect x="599.8" y="630.8" class="st1" width="173.1" height="7.4"/>
		<rect x="599.8" y="644.1" class="st1" width="123.7" height="7.4"/>
		<rect x="793.5" y="585.2" class="st1" width="91.2" height="11.6"/>
		<rect x="793.5" y="604.2" class="st1" width="170.8" height="7.4"/>
		<rect x="793.5" y="617.5" class="st1" width="176.2" height="7.4"/>
		<rect x="793.5" y="630.8" class="st1" width="136.5" height="7.4"/>
	</g>
	<g>
		<rect x="599.8" y="681.5" class="st1" width="93.4" height="19.5"/>
		<rect x="890.4" y="681.5" class="st1" width="84.6" height="19.5"/>
		<rect x="793.5" y="681.5" class="st1" width="75.2" height="19.5"/>
		<rect x="696.6" y="685.5" class="st1" width="72" height="4.1"/>
		<rect x="696.6" y="692.9" class="st1" width="69.8" height="4.1"/>
	</g>
	<g>
		<rect x="599.7" y="78.8" class="st1" width="125.8" height="30.6"/>
		<rect x="761.5" y="97.6" class="st1" width="50.4" height="11.7"/>
		<rect x="825.8" y="97.6" class="st1" width="50.4" height="11.7"/>
		<rect x="890.4" y="97.6" class="st1" width="50.4" height="11.7"/>
	</g>
	<rect x="858.1" y="266.4" class="st1" width="125.6" height="57.4"/>
	<g>
		<rect x="599.7" y="381.4" class="st1" width="62" height="72.8"/>
		<rect x="665.2" y="385.1" class="st1" width="82.1" height="11.6"/>
		<rect x="665.2" y="404.1" class="st1" width="109.4" height="7.4"/>
		<rect x="665.2" y="417.4" class="st1" width="112.8" height="7.4"/>
		<rect x="665.2" y="430.7" class="st1" width="109.4" height="7.4"/>
		<rect x="665.2" y="444" class="st1" width="75.8" height="7.4"/>
	</g>
	<g>
		<rect x="793.1" y="381.4" class="st1" width="60.2" height="72.8"/>
		<rect x="856.7" y="385.1" class="st1" width="108" height="11.6"/>
		<rect x="856.7" y="404.1" class="st1" width="109.4" height="7.4"/>
		<rect x="856.7" y="417.4" class="st1" width="112.8" height="7.4"/>
		<rect x="856.7" y="430.7" class="st1" width="109.4" height="7.4"/>
		<rect x="856.7" y="444" class="st1" width="56.4" height="7.4"/>
		<rect x="921.3" y="461.8" class="st2" width="47.6" height="7.4"/>
	</g>
</g>
<text transform="matrix(1 0 0 1 516.6953 412.1299)" class="st3 st4 st5">=</text>
<g>
	<line class="st6" x1="42.3" y1="414.2" x2="42.3" y2="698.5"/>
	<line class="st6" x1="55.9" y1="414.2" x2="55.9" y2="698.5"/>
	<line class="st6" x1="70.3" y1="414.2" x2="70.3" y2="698.5"/>
	<line class="st6" x1="84.7" y1="414.2" x2="84.7" y2="698.5"/>
	<line class="st6" x1="99" y1="414.2" x2="99" y2="698.5"/>
	<line class="st6" x1="113.4" y1="414.2" x2="113.4" y2="698.5"/>
	<line class="st6" x1="127.8" y1="414.2" x2="127.8" y2="698.5"/>
	<line class="st6" x1="142.1" y1="414.2" x2="142.1" y2="698.5"/>
	<line class="st6" x1="156.5" y1="414.2" x2="156.5" y2="698.5"/>
	<line class="st6" x1="170.9" y1="414.2" x2="170.9" y2="698.5"/>
	<line class="st6" x1="185.2" y1="414.2" x2="185.2" y2="698.5"/>
	<line class="st6" x1="199.6" y1="414.2" x2="199.6" y2="698.5"/>
	<line class="st6" x1="213.2" y1="415" x2="213.2" y2="698.5"/>
</g>
<text transform="matrix(1 0 0 1 42.3291 405.8359)" class="st3 st7 st8">Fluid grid</text>
<g>
	<g>
		<g class="st9">
			<rect x="298.9" y="82.5" class="st1" width="170.1" height="20.7"/>
			<path class="st1" d="M468.5,83v19.7H299.4V83H468.5 M469.5,82H298.4v21.7h171.1V82L469.5,82z"/>
		</g>
		<g class="st9">
			<rect x="298.9" y="108.8" class="st1" width="170.1" height="104"/>
			<path class="st1" d="M468.5,109.3v103H299.4v-103H468.5 M469.5,108.3H298.4v105h171.1V108.3L469.5,108.3z"/>
		</g>
		<g class="st9">
			<rect x="298.9" y="219.8" class="st1" width="170.1" height="42.4"/>
			<path class="st1" d="M468.5,220.3v41.4H299.4v-41.4H468.5 M469.5,219.3H298.4v43.4h171.1V219.3L469.5,219.3z"/>
		</g>
		<g class="st9">
			<rect x="298.9" y="269.3" class="st1" width="170.1" height="34.8"/>
			<path class="st1" d="M468.5,269.8v33.8H299.4v-33.8H468.5 M469.5,268.8H298.4v35.8h171.1V268.8L469.5,268.8z"/>
		</g>
		<g class="st9">
			<rect x="298.9" y="311" class="st1" width="170.1" height="34.2"/>
			<path class="st1" d="M468.5,311.5v33.2H299.4v-33.2H468.5 M469.5,310.5H298.4v35.2h171.1V310.5L469.5,310.5z"/>
		</g>
		<g class="st9">
			<rect x="298.9" y="352.1" class="st1" width="170.1" height="15.5"/>
			<path class="st1" d="M468.5,352.6v14.5H299.4v-14.5H468.5 M469.5,351.6H298.4v16.5h171.1V351.6L469.5,351.6z"/>
		</g>
	</g>
	<text transform="matrix(1 0 0 1 298.2075 71.7832)" class="st3 st7 st8">Rows</text>
</g>
<g class="st9">
	<rect x="298.6" y="504.5" class="st1" width="111.6" height="42.4"/>
	<path class="st1" d="M409.8,505v41.4H299.1V505H409.8 M410.8,504H298.1v43.4h112.6V504L410.8,504z"/>
</g>
<g class="st9">
	<rect x="298.6" y="553.8" class="st1" width="82.8" height="34.8"/>
	<path class="st1" d="M380.9,554.3v33.8h-81.8v-33.8H380.9 M381.9,553.3h-83.8v35.8h83.8V553.3L381.9,553.3z"/>
</g>
<g class="st9">
	<rect x="386.6" y="553.8" class="st1" width="82.2" height="42.4"/>
	<path class="st1" d="M468.3,554.3v41.4h-81.2v-41.4H468.3 M469.3,553.3h-83.2v43.4h83.2V553.3L469.3,553.3z"/>
</g>
<g class="st9">
	<rect x="298.6" y="686.2" class="st1" width="170.1" height="15.5"/>
	<path class="st1" d="M468.3,686.7v14.5H299.1v-14.5H468.3 M469.3,685.7H298.1v16.5h171.1V685.7L469.3,685.7z"/>
</g>
<g class="st9">
	<rect x="298.8" y="416.5" class="st1" width="170.1" height="20.7"/>
	<path class="st1" d="M468.4,417v19.7H299.3V417H468.4 M469.4,416H298.3v21.7h171.1V416L469.4,416z"/>
</g>
<g class="st9">
	<rect x="415.5" y="504.5" class="st1" width="53.2" height="29.4"/>
	<path class="st1" d="M468.3,505v28.4H416V505H468.3 M469.3,504H415v30.4h54.2V504L469.3,504z"/>
</g>
<g class="st9">
	<rect x="298.8" y="443.9" class="st1" width="170.1" height="53.7"/>
	<path class="st1" d="M468.4,444.4v52.7H299.3v-52.7H468.4 M469.4,443.4H298.3v54.7h171.1V443.4L469.4,443.4z"/>
</g>
<g class="st9">
	<rect x="298.7" y="603.4" class="st1" width="26" height="34.8"/>
	<path class="st1" d="M324.2,603.9v33.8h-25v-33.8H324.2 M325.2,602.9h-27v35.8h27V602.9L325.2,602.9z"/>
</g>
<g class="st9">
	<rect x="329.8" y="603.4" class="st1" width="138.9" height="34.8"/>
	<path class="st1" d="M468.2,603.9v33.8H330.3v-33.8H468.2 M469.2,602.9H329.3v35.8h139.9V602.9L469.2,602.9z"/>
</g>
<g class="st9">
	<rect x="298.6" y="645.2" class="st1" width="82.6" height="34.1"/>
	<path class="st1" d="M380.8,645.7v33.1h-81.6v-33.1H380.8 M381.8,644.7h-83.6v35.1h83.6V644.7L381.8,644.7z"/>
</g>
<g class="st9">
	<rect x="386.6" y="645.2" class="st1" width="82.1" height="34.1"/>
	<path class="st1" d="M468.2,645.7v33.1h-81.1v-33.1H468.2 M469.2,644.7h-83.1v35.1h83.1V644.7L469.2,644.7z"/>
</g>
<text transform="matrix(1 0 0 1 297.835 405.8359)" class="st3 st7 st8">Columns</text>
<g>
	<g class="st9">
		<rect x="43.2" y="80.6" class="st1" width="170.1" height="283.3"/>
		<path class="st1" d="M212.8,81.1v282.3H43.7V81.1H212.8 M213.8,80.1H42.7v284.3h171.1V80.1L213.8,80.1z"/>
	</g>
	<text transform="matrix(1 0 0 1 41.4189 71.7832)" class="st3 st7 st8">Container</text>
</g>
</svg>
