<?xml version="1.0" encoding="UTF-8" standalone="no"?>
<svg width="1024px" height="768px" viewBox="0 0 1024 768" version="1.1" xmlns="http://www.w3.org/2000/svg" xmlns:xlink="http://www.w3.org/1999/xlink" xmlns:sketch="http://www.bohemiancoding.com/sketch/ns">
    <!-- Generator: Sketch 3.3.3 (12081) - http://www.bohemiancoding.com/sketch -->
    <title>hero</title>
    <desc>Created with Sketch.</desc>
    <defs></defs>
    <g id="Responsive-Grid" stroke="none" stroke-width="1" fill="none" fill-rule="evenodd" sketch:type="MSPage">
        <g id="hero" sketch:type="MSArtboardGroup">
            <g sketch:type="MSLayerGroup">
                <rect id="Rectangle-path" fill="#FFFFFF" sketch:type="MSShapeGroup" x="0" y="0" width="1024" height="768"></rect>
                <g id="Group" transform="translate(599.000000, 78.000000)" sketch:type="MSShapeGroup">
                    <rect id="Rectangle-path" fill="#00ADEE" x="0.7" y="53.1" width="384" height="122.2"></rect>
                    <g transform="translate(0.000000, 191.000000)" id="Rectangle-path" fill="#00ADEE">
                        <rect x="0.7" y="0.7" width="233.5" height="15.1"></rect>
                        <rect x="0.7" y="17.9" width="99.5" height="15.1"></rect>
                        <rect x="0.7" y="41.5" width="233.5" height="7.4"></rect>
                        <rect x="0.7" y="54.8" width="240.8" height="7.4"></rect>
                        <rect x="0.7" y="68.1" width="233.5" height="7.4"></rect>
                        <rect x="0.7" y="81.4" width="161.8" height="7.4"></rect>
                    </g>
                    <g transform="translate(0.000000, 409.000000)" id="Rectangle-path" fill="#00ADEE">
                        <rect x="0.8" y="0.6" width="61.1" height="72.8"></rect>
                        <rect x="65.3" y="4.3" width="142.5" height="11.6"></rect>
                        <rect x="65.3" y="23.2" width="298.7" height="7.4"></rect>
                        <rect x="65.3" y="36.5" width="308.2" height="7.4"></rect>
                        <rect x="65.3" y="49.8" width="298.7" height="7.4"></rect>
                        <rect x="65.3" y="63.1" width="207" height="7.4"></rect>
                    </g>
                    <g transform="translate(0.000000, 507.000000)" id="Rectangle-path" fill="#00ADEE">
                        <rect x="0.8" y="0.2" width="142.5" height="11.6"></rect>
                        <rect x="0.8" y="19.2" width="173.1" height="7.4"></rect>
                        <rect x="0.8" y="32.5" width="178.5" height="7.4"></rect>
                        <rect x="0.8" y="45.8" width="173.1" height="7.4"></rect>
                        <rect x="0.8" y="59.1" width="123.7" height="7.4"></rect>
                        <rect x="194.5" y="0.2" width="91.2" height="11.6"></rect>
                        <rect x="194.5" y="19.2" width="170.8" height="7.4"></rect>
                        <rect x="194.5" y="32.5" width="176.2" height="7.4"></rect>
                        <rect x="194.5" y="45.8" width="136.5" height="7.4"></rect>
                    </g>
                    <g transform="translate(0.000000, 603.000000)" id="Rectangle-path" fill="#00ADEE">
                        <rect x="0.8" y="0.5" width="93.4" height="19.5"></rect>
                        <rect x="291.4" y="0.5" width="84.6" height="19.5"></rect>
                        <rect x="194.5" y="0.5" width="75.2" height="19.5"></rect>
                        <rect x="97.6" y="4.5" width="72" height="4.1"></rect>
                        <rect x="97.6" y="11.9" width="69.8" height="4.1"></rect>
                    </g>
                    <g id="Rectangle-path" fill="#00ADEE">
                        <rect x="0.7" y="0.8" width="125.8" height="30.6"></rect>
                        <rect x="162.5" y="19.6" width="50.4" height="11.7"></rect>
                        <rect x="226.8" y="19.6" width="50.4" height="11.7"></rect>
                        <rect x="291.4" y="19.6" width="50.4" height="11.7"></rect>
                    </g>
                    <rect id="Rectangle-path" fill="#00ADEE" x="259.1" y="188.4" width="125.6" height="57.4"></rect>
                    <g transform="translate(0.000000, 303.000000)" id="Rectangle-path" fill="#00ADEE">
                        <rect x="0.7" y="0.4" width="62" height="72.8"></rect>
                        <rect x="66.2" y="4.1" width="82.1" height="11.6"></rect>
                        <rect x="66.2" y="23.1" width="109.4" height="7.4"></rect>
                        <rect x="66.2" y="36.4" width="112.8" height="7.4"></rect>
                        <rect x="66.2" y="49.7" width="109.4" height="7.4"></rect>
                        <rect x="66.2" y="63" width="75.8" height="7.4"></rect>
                    </g>
                    <g transform="translate(194.000000, 303.000000)" id="Rectangle-path">
                        <rect fill="#00ADEE" x="0.1" y="0.4" width="60.2" height="72.8"></rect>
                        <rect fill="#00ADEE" x="63.7" y="4.1" width="108" height="11.6"></rect>
                        <rect fill="#00ADEE" x="63.7" y="23.1" width="109.4" height="7.4"></rect>
                        <rect fill="#00ADEE" x="63.7" y="36.4" width="112.8" height="7.4"></rect>
                        <rect fill="#00ADEE" x="63.7" y="49.7" width="109.4" height="7.4"></rect>
                        <rect fill="#00ADEE" x="63.7" y="63" width="56.4" height="7.4"></rect>
                        <rect fill="#37B34A" x="128.3" y="80.8" width="47.6" height="7.4"></rect>
                    </g>
                </g>
                <text id="=" fill="#231F20" sketch:type="MSTextLayer" font-family="Helvetica" font-size="60" font-weight="normal">
                    <tspan x="516.6953" y="412.1299" fill="#000000">=</tspan>
                </text>
                <g id="Group" transform="translate(42.000000, 414.000000)" stroke="#404041" sketch:type="MSShapeGroup">
                    <path d="M0.3,0.2 L0.3,284.5" id="Shape"></path>
                    <path d="M13.9,0.2 L13.9,284.5" id="Shape"></path>
                    <path d="M28.3,0.2 L28.3,284.5" id="Shape"></path>
                    <path d="M42.7,0.2 L42.7,284.5" id="Shape"></path>
                    <path d="M57,0.2 L57,284.5" id="Shape"></path>
                    <path d="M71.4,0.2 L71.4,284.5" id="Shape"></path>
                    <path d="M85.8,0.2 L85.8,284.5" id="Shape"></path>
                    <path d="M100.1,0.2 L100.1,284.5" id="Shape"></path>
                    <path d="M114.5,0.2 L114.5,284.5" id="Shape"></path>
                    <path d="M128.9,0.2 L128.9,284.5" id="Shape"></path>
                    <path d="M143.2,0.2 L143.2,284.5" id="Shape"></path>
                    <path d="M157.6,0.2 L157.6,284.5" id="Shape"></path>
                    <path d="M171.2,1 L171.2,284.5" id="Shape"></path>
                </g>
                <text id="Fluid-grid" fill="#00ADEE" sketch:type="MSTextLayer" font-family="Expert Sans" font-size="21" font-weight="normal">
                    <tspan x="42.3291" y="406.8359">Fluid grid</tspan>
                </text>
                <g id="Group" transform="translate(298.000000, 51.000000)" fill="#00ADEE">
                    <g transform="translate(0.000000, 31.000000)" sketch:type="MSShapeGroup">
                        <g>
                            <rect id="Rectangle-path" x="0.9" y="0.5" width="170.1" height="20.7"></rect>
                            <path d="M170.5,1 L170.5,20.7 L1.4,20.7 L1.4,1 L170.5,1 L170.5,1 Z M171.5,0 L0.4,0 L0.4,21.7 L171.5,21.7 L171.5,0 L171.5,0 Z" id="Shape"></path>
                        </g>
                        <g transform="translate(0.000000, 26.000000)">
                            <rect id="Rectangle-path" x="0.9" y="0.8" width="170.1" height="104"></rect>
                            <path d="M170.5,1.3 L170.5,104.3 L1.4,104.3 L1.4,1.3 L170.5,1.3 L170.5,1.3 Z M171.5,0.3 L0.4,0.3 L0.4,105.3 L171.5,105.3 L171.5,0.3 L171.5,0.3 Z" id="Shape"></path>
                        </g>
                        <g transform="translate(0.000000, 137.000000)">
                            <rect id="Rectangle-path" x="0.9" y="0.8" width="170.1" height="42.4"></rect>
                            <path d="M170.5,1.3 L170.5,42.7 L1.4,42.7 L1.4,1.3 L170.5,1.3 L170.5,1.3 Z M171.5,0.3 L0.4,0.3 L0.4,43.7 L171.5,43.7 L171.5,0.3 L171.5,0.3 Z" id="Shape"></path>
                        </g>
                        <g transform="translate(0.000000, 186.000000)">
                            <rect id="Rectangle-path" x="0.9" y="1.3" width="170.1" height="34.8"></rect>
                            <path d="M170.5,1.8 L170.5,35.6 L1.4,35.6 L1.4,1.8 L170.5,1.8 L170.5,1.8 Z M171.5,0.8 L0.4,0.8 L0.4,36.6 L171.5,36.6 L171.5,0.8 L171.5,0.8 Z" id="Shape"></path>
                        </g>
                        <g transform="translate(0.000000, 228.000000)">
                            <rect id="Rectangle-path" x="0.9" y="1" width="170.1" height="34.2"></rect>
                            <path d="M170.5,1.5 L170.5,34.7 L1.4,34.7 L1.4,1.5 L170.5,1.5 L170.5,1.5 Z M171.5,0.5 L0.4,0.5 L0.4,35.7 L171.5,35.7 L171.5,0.5 L171.5,0.5 Z" id="Shape"></path>
                        </g>
                        <g transform="translate(0.000000, 269.000000)">
                            <rect id="Rectangle-path" x="0.9" y="1.1" width="170.1" height="15.5"></rect>
                            <path d="M170.5,1.6 L170.5,16.1 L1.4,16.1 L1.4,1.6 L170.5,1.6 L170.5,1.6 Z M171.5,0.6 L0.4,0.6 L0.4,17.1 L171.5,17.1 L171.5,0.6 L171.5,0.6 Z" id="Shape"></path>
                        </g>
                    </g>
                    <text id="Rows" sketch:type="MSTextLayer" font-family="Expert Sans" font-size="21" font-weight="normal">
                        <tspan x="0.2075" y="21.7832">Rows</tspan>
                    </text>
                </g>
                <g id="Group" transform="translate(298.000000, 504.000000)" fill="#00ADEE" sketch:type="MSShapeGroup">
                    <rect id="Rectangle-path" x="0.6" y="0.5" width="111.6" height="42.4"></rect>
                    <path d="M111.8,1 L111.8,42.4 L1.1,42.4 L1.1,1 L111.8,1 L111.8,1 Z M112.8,5.68434189e-14 L0.1,5.68434189e-14 L0.1,43.4 L112.7,43.4 L112.7,5.68434189e-14 L112.8,5.68434189e-14 L112.8,5.68434189e-14 Z" id="Shape"></path>
                </g>
                <g id="Group" transform="translate(298.000000, 553.000000)" fill="#00ADEE" sketch:type="MSShapeGroup">
                    <rect id="Rectangle-path" x="0.6" y="0.8" width="82.8" height="34.8"></rect>
                    <path d="M82.9,1.3 L82.9,35.1 L1.1,35.1 L1.1,1.3 L82.9,1.3 L82.9,1.3 Z M83.9,0.3 L0.1,0.3 L0.1,36.1 L83.9,36.1 L83.9,0.3 L83.9,0.3 Z" id="Shape"></path>
                </g>
                <g id="Group" transform="translate(386.000000, 553.000000)" fill="#00ADEE" sketch:type="MSShapeGroup">
                    <rect id="Rectangle-path" x="0.6" y="0.8" width="82.2" height="42.4"></rect>
                    <path d="M82.3,1.3 L82.3,42.7 L1.1,42.7 L1.1,1.3 L82.3,1.3 L82.3,1.3 Z M83.3,0.3 L0.1,0.3 L0.1,43.7 L83.3,43.7 L83.3,0.3 L83.3,0.3 Z" id="Shape"></path>
                </g>
                <g id="Group" transform="translate(298.000000, 685.000000)" fill="#00ADEE" sketch:type="MSShapeGroup">
                    <rect id="Rectangle-path" x="0.6" y="1.2" width="170.1" height="15.5"></rect>
                    <path d="M170.3,1.7 L170.3,16.2 L1.1,16.2 L1.1,1.7 L170.3,1.7 L170.3,1.7 Z M171.3,0.7 L0.1,0.7 L0.1,17.2 L171.2,17.2 L171.2,0.7 L171.3,0.7 L171.3,0.7 Z" id="Shape"></path>
                </g>
                <g id="Group" transform="translate(298.000000, 416.000000)" fill="#00ADEE" sketch:type="MSShapeGroup">
                    <rect id="Rectangle-path" x="0.8" y="0.5" width="170.1" height="20.7"></rect>
                    <path d="M170.4,1 L170.4,20.7 L1.3,20.7 L1.3,1 L170.4,1 L170.4,1 Z M171.4,0 L0.3,0 L0.3,21.7 L171.4,21.7 L171.4,0 L171.4,0 Z" id="Shape"></path>
                </g>
                <g id="Group" transform="translate(415.000000, 504.000000)" fill="#00ADEE" sketch:type="MSShapeGroup">
                    <rect id="Rectangle-path" x="0.5" y="0.5" width="53.2" height="29.4"></rect>
                    <path d="M53.3,1 L53.3,29.4 L1,29.4 L1,1 L53.3,1 L53.3,1 Z M54.3,5.68434189e-14 L0,5.68434189e-14 L0,30.4 L54.2,30.4 L54.2,5.68434189e-14 L54.3,5.68434189e-14 L54.3,5.68434189e-14 Z" id="Shape"></path>
                </g>
                <g id="Group" transform="translate(298.000000, 443.000000)" fill="#00ADEE" sketch:type="MSShapeGroup">
                    <rect id="Rectangle-path" x="0.8" y="0.9" width="170.1" height="53.7"></rect>
                    <path d="M170.4,1.4 L170.4,54.1 L1.3,54.1 L1.3,1.4 L170.4,1.4 L170.4,1.4 Z M171.4,0.4 L0.3,0.4 L0.3,55.1 L171.4,55.1 L171.4,0.4 L171.4,0.4 Z" id="Shape"></path>
                </g>
                <g id="Group" transform="translate(298.000000, 602.000000)" fill="#00ADEE" sketch:type="MSShapeGroup">
                    <rect id="Rectangle-path" x="0.7" y="1.4" width="26" height="34.8"></rect>
                    <path d="M26.2,1.9 L26.2,35.7 L1.2,35.7 L1.2,1.9 L26.2,1.9 L26.2,1.9 Z M27.2,0.9 L0.2,0.9 L0.2,36.7 L27.2,36.7 L27.2,0.9 L27.2,0.9 Z" id="Shape"></path>
                </g>
                <g id="Group" transform="translate(329.000000, 602.000000)" fill="#00ADEE" sketch:type="MSShapeGroup">
                    <rect id="Rectangle-path" x="0.8" y="1.4" width="138.9" height="34.8"></rect>
                    <path d="M139.2,1.9 L139.2,35.7 L1.3,35.7 L1.3,1.9 L139.2,1.9 L139.2,1.9 Z M140.2,0.9 L0.3,0.9 L0.3,36.7 L140.2,36.7 L140.2,0.9 L140.2,0.9 L140.2,0.9 Z" id="Shape"></path>
                </g>
                <g id="Group" transform="translate(298.000000, 644.000000)" fill="#00ADEE" sketch:type="MSShapeGroup">
                    <rect id="Rectangle-path" x="0.6" y="1.2" width="82.6" height="34.1"></rect>
                    <path d="M82.8,1.7 L82.8,34.8 L1.2,34.8 L1.2,1.7 L82.8,1.7 L82.8,1.7 Z M83.8,0.7 L0.2,0.7 L0.2,35.8 L83.8,35.8 L83.8,0.7 L83.8,0.7 L83.8,0.7 Z" id="Shape"></path>
                </g>
                <g id="Group" transform="translate(386.000000, 644.000000)" fill="#00ADEE" sketch:type="MSShapeGroup">
                    <rect id="Rectangle-path" x="0.6" y="1.2" width="82.1" height="34.1"></rect>
                    <path d="M82.2,1.7 L82.2,34.8 L1.1,34.8 L1.1,1.7 L82.2,1.7 L82.2,1.7 Z M83.2,0.7 L0.1,0.7 L0.1,35.8 L83.2,35.8 L83.2,0.7 L83.2,0.7 L83.2,0.7 Z" id="Shape"></path>
                </g>
                <text id="Columns" fill="#00ADEE" sketch:type="MSTextLayer" font-family="Expert Sans" font-size="21" font-weight="normal">
                    <tspan x="297.835" y="406.8359">Columns</tspan>
                </text>
                <g id="Group" transform="translate(41.000000, 51.000000)" fill="#00ADEE">
                    <g transform="translate(1.000000, 29.000000)" sketch:type="MSShapeGroup">
                        <rect id="Rectangle-path" x="1.2" y="0.6" width="170.1" height="283.3"></rect>
                        <path d="M170.8,1.1 L170.8,283.4 L1.7,283.4 L1.7,1.1 L170.8,1.1 L170.8,1.1 Z M171.8,0.1 L0.7,0.1 L0.7,284.4 L171.8,284.4 L171.8,0.1 L171.8,0.1 Z" id="Shape"></path>
                    </g>
                    <text id="Container" sketch:type="MSTextLayer" font-family="Expert Sans" font-size="21" font-weight="normal">
                        <tspan x="0.4189" y="21.7832">Container</tspan>
                    </text>
                </g>
            </g>
        </g>
    </g>
</svg>